STARTFONT 2.1
FONT -FontForge-Roboto Condensed-Book-R-Condensed---14-140-72-72-P-69-ISO10646-1
SIZE 14 72 72
FONTBOUNDINGBOX 24 20 -10 -4
COMMENT "Generated by fontforge, http://fontforge.sourceforge.net"
COMMENT "Copyright 2011 Google Inc. All Rights Reserved."
STARTPROPERTIES 41
FOUNDRY "FontForge"
FAMILY_NAME "Roboto Condensed"
WEIGHT_NAME "Book"
SLANT "R"
SETWIDTH_NAME "Condensed"
ADD_STYLE_NAME ""
PIXEL_SIZE 14
POINT_SIZE 140
RESOLUTION_X 72
RESOLUTION_Y 72
SPACING "P"
AVERAGE_WIDTH 69
CHARSET_REGISTRY "ISO10646"
CHARSET_ENCODING "1"
FONTNAME_REGISTRY ""
CHARSET_COLLECTIONS "ISO8859-2 ISO8859-5 ISO8859-7 ISO8859-9 ISO8859-4 ISO10646-1"
FONT_NAME "RobotoCondensed-Regular"
FACE_NAME "Roboto Condensed"
COPYRIGHT "Copyright 2011 Google Inc. All Rights Reserved."
FONT_VERSION "2.137; 2017"
FONT_ASCENT 10
FONT_DESCENT 4
UNDERLINE_POSITION -1
UNDERLINE_THICKNESS 1
X_HEIGHT 7
CAP_HEIGHT 9
DEFAULT_CHAR 1
RAW_ASCENT 750
RAW_DESCENT 250
NORM_SPACE 3
RELATIVE_WEIGHT 40
RELATIVE_SETWIDTH 50
SUPERSCRIPT_X 0
SUPERSCRIPT_Y 6
SUPERSCRIPT_SIZE 9
SUBSCRIPT_X 0
SUBSCRIPT_Y 1
SUBSCRIPT_SIZE 9
FIGURE_WIDTH 7
AVG_LOWERCASE_WIDTH 68
AVG_UPPERCASE_WIDTH 80
ENDPROPERTIES
CHARS 1296
STARTCHAR uni0000
ENCODING 0
SWIDTH 0 0
DWIDTH 0 0
BBX 1 1 0 0
BITMAP
00
ENDCHAR
STARTCHAR uni0002
ENCODING 2
SWIDTH 0 0
DWIDTH 0 0
BBX 1 1 0 0
BITMAP
00
ENDCHAR
STARTCHAR uni000D
ENCODING 13
SWIDTH 229 0
DWIDTH 3 0
BBX 1 1 0 0
BITMAP
00
ENDCHAR
STARTCHAR space
ENCODING 32
SWIDTH 229 0
DWIDTH 3 0
BBX 1 1 0 0
BITMAP
00
ENDCHAR
STARTCHAR exclam
ENCODING 33
SWIDTH 245 0
DWIDTH 3 0
BBX 1 10 1 0
BITMAP
80
80
80
80
80
80
80
00
00
80
ENDCHAR
STARTCHAR quotedbl
ENCODING 34
SWIDTH 319 0
DWIDTH 4 0
BBX 3 4 1 7
BITMAP
A0
A0
A0
A0
ENDCHAR
STARTCHAR numbersign
ENCODING 35
SWIDTH 547 0
DWIDTH 8 0
BBX 6 10 1 0
BITMAP
24
28
28
FC
28
48
FC
50
50
50
ENDCHAR
STARTCHAR dollar
ENCODING 36
SWIDTH 493 0
DWIDTH 7 0
BBX 5 13 1 -1
BITMAP
20
20
70
C8
88
C0
60
30
08
88
88
70
20
ENDCHAR
STARTCHAR percent
ENCODING 37
SWIDTH 632 0
DWIDTH 9 0
BBX 7 10 1 0
BITMAP
E0
A4
A8
A8
F0
1E
2A
2A
4A
0E
ENDCHAR
STARTCHAR ampersand
ENCODING 38
SWIDTH 543 0
DWIDTH 8 0
BBX 7 10 1 0
BITMAP
70
48
48
50
60
74
94
8C
8C
76
ENDCHAR
STARTCHAR quotesingle
ENCODING 39
SWIDTH 174 0
DWIDTH 2 0
BBX 1 3 1 8
BITMAP
80
80
80
ENDCHAR
STARTCHAR parenleft
ENCODING 40
SWIDTH 313 0
DWIDTH 4 0
BBX 3 14 1 -3
BITMAP
20
40
40
80
80
80
80
80
80
80
80
40
40
20
ENDCHAR
STARTCHAR parenright
ENCODING 41
SWIDTH 318 0
DWIDTH 4 0
BBX 3 14 0 -3
BITMAP
80
40
40
20
20
20
20
20
20
20
20
40
40
80
ENDCHAR
STARTCHAR asterisk
ENCODING 42
SWIDTH 430 0
DWIDTH 6 0
BBX 6 6 0 4
BITMAP
10
10
EC
30
70
48
ENDCHAR
STARTCHAR plus
ENCODING 43
SWIDTH 496 0
DWIDTH 7 0
BBX 5 7 1 1
BITMAP
20
20
20
F8
20
20
20
ENDCHAR
STARTCHAR comma
ENCODING 44
SWIDTH 196 0
DWIDTH 3 0
BBX 2 3 0 -2
BITMAP
40
40
80
ENDCHAR
STARTCHAR hyphen
ENCODING 45
SWIDTH 248 0
DWIDTH 3 0
BBX 3 1 0 4
BITMAP
E0
ENDCHAR
STARTCHAR period
ENCODING 46
SWIDTH 263 0
DWIDTH 4 0
BBX 2 1 1 0
BITMAP
C0
ENDCHAR
STARTCHAR slash
ENCODING 47
SWIDTH 370 0
DWIDTH 5 0
BBX 5 11 0 -1
BITMAP
08
10
10
10
20
20
20
40
40
40
80
ENDCHAR
STARTCHAR zero
ENCODING 48
SWIDTH 493 0
DWIDTH 7 0
BBX 5 10 1 0
BITMAP
70
98
88
88
88
88
88
88
D8
70
ENDCHAR
STARTCHAR one
ENCODING 49
SWIDTH 493 0
DWIDTH 7 0
BBX 3 10 1 0
BITMAP
20
E0
20
20
20
20
20
20
20
20
ENDCHAR
STARTCHAR two
ENCODING 50
SWIDTH 493 0
DWIDTH 7 0
BBX 5 10 1 0
BITMAP
70
98
88
08
10
10
20
40
C0
F8
ENDCHAR
STARTCHAR three
ENCODING 51
SWIDTH 493 0
DWIDTH 7 0
BBX 5 10 1 0
BITMAP
70
98
88
18
70
18
08
88
98
70
ENDCHAR
STARTCHAR four
ENCODING 52
SWIDTH 493 0
DWIDTH 7 0
BBX 7 10 0 0
BITMAP
08
18
18
28
28
68
48
FE
08
08
ENDCHAR
STARTCHAR five
ENCODING 53
SWIDTH 493 0
DWIDTH 7 0
BBX 5 10 1 0
BITMAP
78
40
C0
F0
88
08
08
88
C8
70
ENDCHAR
STARTCHAR six
ENCODING 54
SWIDTH 493 0
DWIDTH 7 0
BBX 5 10 1 0
BITMAP
30
40
C0
B0
C8
88
88
88
C8
70
ENDCHAR
STARTCHAR seven
ENCODING 55
SWIDTH 493 0
DWIDTH 7 0
BBX 5 10 1 0
BITMAP
F8
08
18
10
10
30
20
20
40
40
ENDCHAR
STARTCHAR eight
ENCODING 56
SWIDTH 493 0
DWIDTH 7 0
BBX 5 10 1 0
BITMAP
70
D8
88
D8
70
88
88
88
88
70
ENDCHAR
STARTCHAR nine
ENCODING 57
SWIDTH 493 0
DWIDTH 7 0
BBX 5 10 1 0
BITMAP
70
98
88
88
88
98
68
08
10
60
ENDCHAR
STARTCHAR colon
ENCODING 58
SWIDTH 233 0
DWIDTH 3 0
BBX 2 7 1 0
BITMAP
C0
00
00
00
00
00
C0
ENDCHAR
STARTCHAR semicolon
ENCODING 59
SWIDTH 202 0
DWIDTH 3 0
BBX 2 9 0 -2
BITMAP
40
00
00
00
00
00
40
40
C0
ENDCHAR
STARTCHAR less
ENCODING 60
SWIDTH 445 0
DWIDTH 6 0
BBX 4 6 1 2
BITMAP
10
70
C0
C0
70
10
ENDCHAR
STARTCHAR equal
ENCODING 61
SWIDTH 479 0
DWIDTH 7 0
BBX 5 4 1 3
BITMAP
F8
00
00
F8
ENDCHAR
STARTCHAR greater
ENCODING 62
SWIDTH 459 0
DWIDTH 6 0
BBX 5 6 1 2
BITMAP
80
E0
18
18
E0
80
ENDCHAR
STARTCHAR question
ENCODING 63
SWIDTH 421 0
DWIDTH 6 0
BBX 4 10 1 0
BITMAP
F0
90
90
10
30
20
60
40
00
60
ENDCHAR
STARTCHAR at
ENCODING 64
SWIDTH 769 0
DWIDTH 11 0
BBX 9 13 1 -3
BITMAP
1E00
2100
4080
8C80
9280
9480
A480
A480
B480
9B00
4000
6400
3E00
ENDCHAR
STARTCHAR A
ENCODING 65
SWIDTH 576 0
DWIDTH 8 0
BBX 8 10 0 0
BITMAP
18
18
18
24
24
24
7E
42
42
C3
ENDCHAR
STARTCHAR B
ENCODING 66
SWIDTH 545 0
DWIDTH 8 0
BBX 6 10 1 0
BITMAP
F8
8C
8C
88
F8
8C
84
84
8C
F8
ENDCHAR
STARTCHAR C
ENCODING 67
SWIDTH 566 0
DWIDTH 8 0
BBX 6 10 1 0
BITMAP
78
C4
84
80
80
80
80
84
C4
78
ENDCHAR
STARTCHAR D
ENCODING 68
SWIDTH 570 0
DWIDTH 8 0
BBX 6 10 1 0
BITMAP
F0
88
84
84
84
84
84
84
88
F0
ENDCHAR
STARTCHAR E
ENCODING 69
SWIDTH 496 0
DWIDTH 7 0
BBX 5 10 1 0
BITMAP
F8
80
80
80
F8
80
80
80
80
F8
ENDCHAR
STARTCHAR F
ENCODING 70
SWIDTH 480 0
DWIDTH 7 0
BBX 5 10 1 0
BITMAP
F8
80
80
80
F8
80
80
80
80
80
ENDCHAR
STARTCHAR G
ENCODING 71
SWIDTH 590 0
DWIDTH 8 0
BBX 6 10 1 0
BITMAP
78
CC
84
80
80
9C
84
84
C4
78
ENDCHAR
STARTCHAR H
ENCODING 72
SWIDTH 620 0
DWIDTH 9 0
BBX 7 10 1 0
BITMAP
C2
C2
C2
C2
FE
C2
C2
C2
C2
C2
ENDCHAR
STARTCHAR I
ENCODING 73
SWIDTH 250 0
DWIDTH 4 0
BBX 1 10 1 0
BITMAP
80
80
80
80
80
80
80
80
80
80
ENDCHAR
STARTCHAR J
ENCODING 74
SWIDTH 483 0
DWIDTH 7 0
BBX 6 10 0 0
BITMAP
0C
0C
0C
0C
0C
0C
0C
CC
48
78
ENDCHAR
STARTCHAR K
ENCODING 75
SWIDTH 544 0
DWIDTH 8 0
BBX 7 10 1 0
BITMAP
C6
C8
D8
D0
E0
D0
D8
C8
CC
C6
ENDCHAR
STARTCHAR L
ENCODING 76
SWIDTH 475 0
DWIDTH 7 0
BBX 5 10 1 0
BITMAP
80
80
80
80
80
80
80
80
80
F8
ENDCHAR
STARTCHAR M
ENCODING 77
SWIDTH 755 0
DWIDTH 11 0
BBX 9 10 1 0
BITMAP
C180
C380
C380
A380
A780
A580
9580
9D80
9980
8980
ENDCHAR
STARTCHAR N
ENCODING 78
SWIDTH 619 0
DWIDTH 9 0
BBX 7 10 1 0
BITMAP
C2
C2
E2
E2
D2
D2
CA
CA
C6
C6
ENDCHAR
STARTCHAR O
ENCODING 79
SWIDTH 600 0
DWIDTH 8 0
BBX 6 10 1 0
BITMAP
78
CC
84
84
84
84
84
84
CC
78
ENDCHAR
STARTCHAR P
ENCODING 80
SWIDTH 554 0
DWIDTH 8 0
BBX 6 10 1 0
BITMAP
F8
84
84
84
84
F8
80
80
80
80
ENDCHAR
STARTCHAR Q
ENCODING 81
SWIDTH 600 0
DWIDTH 8 0
BBX 6 12 1 -2
BITMAP
78
CC
84
84
84
84
84
84
CC
78
0C
04
ENDCHAR
STARTCHAR R
ENCODING 82
SWIDTH 530 0
DWIDTH 7 0
BBX 6 10 1 0
BITMAP
F8
88
8C
8C
88
F0
90
88
88
8C
ENDCHAR
STARTCHAR S
ENCODING 83
SWIDTH 518 0
DWIDTH 7 0
BBX 7 10 0 0
BITMAP
38
44
46
40
70
1C
04
C6
44
38
ENDCHAR
STARTCHAR T
ENCODING 84
SWIDTH 520 0
DWIDTH 7 0
BBX 7 10 0 0
BITMAP
FE
10
10
10
10
10
10
10
10
10
ENDCHAR
STARTCHAR U
ENCODING 85
SWIDTH 561 0
DWIDTH 8 0
BBX 6 10 1 0
BITMAP
84
84
84
84
84
84
84
84
CC
78
ENDCHAR
STARTCHAR V
ENCODING 86
SWIDTH 560 0
DWIDTH 8 0
BBX 8 10 0 0
BITMAP
C3
42
42
66
24
24
3C
18
18
18
ENDCHAR
STARTCHAR W
ENCODING 87
SWIDTH 761 0
DWIDTH 11 0
BBX 10 10 0 0
BITMAP
C440
4440
4C40
4AC0
6A80
2A80
3280
3180
3180
3100
ENDCHAR
STARTCHAR X
ENCODING 88
SWIDTH 550 0
DWIDTH 8 0
BBX 7 10 0 0
BITMAP
42
64
24
38
18
18
38
24
64
C2
ENDCHAR
STARTCHAR Y
ENCODING 89
SWIDTH 524 0
DWIDTH 7 0
BBX 7 10 0 0
BITMAP
C2
44
64
2C
28
18
10
10
10
10
ENDCHAR
STARTCHAR Z
ENCODING 90
SWIDTH 522 0
DWIDTH 7 0
BBX 6 10 1 0
BITMAP
FC
08
18
10
30
20
40
40
80
FC
ENDCHAR
STARTCHAR bracketleft
ENCODING 91
SWIDTH 250 0
DWIDTH 4 0
BBX 2 13 1 -2
BITMAP
C0
80
80
80
80
80
80
80
80
80
80
80
C0
ENDCHAR
STARTCHAR backslash
ENCODING 92
SWIDTH 369 0
DWIDTH 5 0
BBX 5 11 0 -1
BITMAP
C0
40
40
60
20
20
30
10
10
18
08
ENDCHAR
STARTCHAR bracketright
ENCODING 93
SWIDTH 250 0
DWIDTH 4 0
BBX 2 13 0 -2
BITMAP
C0
40
40
40
40
40
40
40
40
40
40
40
C0
ENDCHAR
STARTCHAR asciicircum
ENCODING 94
SWIDTH 371 0
DWIDTH 5 0
BBX 5 5 0 5
BITMAP
20
20
50
50
D8
ENDCHAR
STARTCHAR underscore
ENCODING 95
SWIDTH 404 0
DWIDTH 6 0
BBX 6 1 0 -1
BITMAP
FC
ENDCHAR
STARTCHAR grave
ENCODING 96
SWIDTH 309 0
DWIDTH 4 0
BBX 3 2 0 8
BITMAP
C0
20
ENDCHAR
STARTCHAR a
ENCODING 97
SWIDTH 479 0
DWIDTH 7 0
BBX 5 8 1 0
BITMAP
70
88
08
78
C8
88
98
68
ENDCHAR
STARTCHAR b
ENCODING 98
SWIDTH 493 0
DWIDTH 7 0
BBX 5 11 1 0
BITMAP
80
80
80
B0
C8
88
88
88
88
C8
B0
ENDCHAR
STARTCHAR c
ENCODING 99
SWIDTH 461 0
DWIDTH 6 0
BBX 6 8 0 0
BITMAP
38
48
C4
C0
C0
C4
48
38
ENDCHAR
STARTCHAR d
ENCODING 100
SWIDTH 496 0
DWIDTH 7 0
BBX 5 11 1 0
BITMAP
08
08
08
68
98
88
88
88
88
88
78
ENDCHAR
STARTCHAR e
ENCODING 101
SWIDTH 468 0
DWIDTH 7 0
BBX 5 8 1 0
BITMAP
70
C8
88
F8
80
80
C8
78
ENDCHAR
STARTCHAR f
ENCODING 102
SWIDTH 316 0
DWIDTH 4 0
BBX 4 11 0 0
BITMAP
30
60
40
F0
40
40
40
40
40
40
40
ENDCHAR
STARTCHAR g
ENCODING 103
SWIDTH 492 0
DWIDTH 7 0
BBX 5 11 1 -3
BITMAP
68
98
88
88
88
88
88
78
08
98
70
ENDCHAR
STARTCHAR h
ENCODING 104
SWIDTH 482 0
DWIDTH 7 0
BBX 5 11 1 0
BITMAP
80
80
80
B0
C8
88
88
88
88
88
88
ENDCHAR
STARTCHAR i
ENCODING 105
SWIDTH 229 0
DWIDTH 3 0
BBX 1 10 1 0
BITMAP
80
00
80
80
80
80
80
80
80
80
ENDCHAR
STARTCHAR j
ENCODING 106
SWIDTH 223 0
DWIDTH 3 0
BBX 2 13 0 -3
BITMAP
40
00
40
40
40
40
40
40
40
40
40
40
C0
ENDCHAR
STARTCHAR k
ENCODING 107
SWIDTH 450 0
DWIDTH 6 0
BBX 5 11 1 0
BITMAP
80
80
80
98
B0
A0
C0
E0
B0
90
98
ENDCHAR
STARTCHAR l
ENCODING 108
SWIDTH 229 0
DWIDTH 3 0
BBX 1 11 1 0
BITMAP
80
80
80
80
80
80
80
80
80
80
80
ENDCHAR
STARTCHAR m
ENCODING 109
SWIDTH 752 0
DWIDTH 11 0
BBX 9 8 1 0
BITMAP
B700
C980
8880
8880
8880
8880
8880
8880
ENDCHAR
STARTCHAR n
ENCODING 110
SWIDTH 483 0
DWIDTH 7 0
BBX 5 8 1 0
BITMAP
B0
C8
88
88
88
88
88
88
ENDCHAR
STARTCHAR o
ENCODING 111
SWIDTH 501 0
DWIDTH 7 0
BBX 5 8 1 0
BITMAP
70
88
88
88
88
88
88
70
ENDCHAR
STARTCHAR p
ENCODING 112
SWIDTH 493 0
DWIDTH 7 0
BBX 5 11 1 -3
BITMAP
B0
C8
88
88
88
88
88
F0
80
80
80
ENDCHAR
STARTCHAR q
ENCODING 113
SWIDTH 500 0
DWIDTH 7 0
BBX 5 11 1 -3
BITMAP
68
98
88
88
88
88
88
78
08
08
08
ENDCHAR
STARTCHAR r
ENCODING 114
SWIDTH 304 0
DWIDTH 4 0
BBX 3 8 1 0
BITMAP
E0
80
80
80
80
80
80
80
ENDCHAR
STARTCHAR s
ENCODING 115
SWIDTH 455 0
DWIDTH 6 0
BBX 6 8 0 0
BITMAP
38
48
40
60
18
08
CC
78
ENDCHAR
STARTCHAR t
ENCODING 116
SWIDTH 295 0
DWIDTH 4 0
BBX 4 10 0 0
BITMAP
40
40
F0
40
40
40
40
40
40
30
ENDCHAR
STARTCHAR u
ENCODING 117
SWIDTH 483 0
DWIDTH 7 0
BBX 5 8 1 0
BITMAP
88
88
88
88
88
88
98
68
ENDCHAR
STARTCHAR v
ENCODING 118
SWIDTH 427 0
DWIDTH 6 0
BBX 6 8 0 0
BITMAP
CC
48
48
48
30
30
30
30
ENDCHAR
STARTCHAR w
ENCODING 119
SWIDTH 649 0
DWIDTH 9 0
BBX 9 8 0 0
BITMAP
C980
4900
5500
5500
5500
3600
2200
2200
ENDCHAR
STARTCHAR x
ENCODING 120
SWIDTH 438 0
DWIDTH 6 0
BBX 6 8 0 0
BITMAP
CC
48
30
30
30
30
48
CC
ENDCHAR
STARTCHAR y
ENCODING 121
SWIDTH 416 0
DWIDTH 6 0
BBX 6 11 0 -3
BITMAP
CC
48
48
48
30
30
30
30
20
20
40
ENDCHAR
STARTCHAR z
ENCODING 122
SWIDTH 438 0
DWIDTH 6 0
BBX 5 8 1 0
BITMAP
F0
10
30
20
40
40
80
F8
ENDCHAR
STARTCHAR braceleft
ENCODING 123
SWIDTH 306 0
DWIDTH 4 0
BBX 4 14 0 -3
BITMAP
10
20
20
20
20
60
C0
60
20
20
20
20
20
10
ENDCHAR
STARTCHAR bar
ENCODING 124
SWIDTH 243 0
DWIDTH 3 0
BBX 1 12 1 -2
BITMAP
80
80
80
80
80
80
80
80
80
80
80
80
ENDCHAR
STARTCHAR braceright
ENCODING 125
SWIDTH 306 0
DWIDTH 4 0
BBX 4 14 0 -3
BITMAP
80
40
40
40
40
60
30
60
40
40
40
40
40
80
ENDCHAR
STARTCHAR asciitilde
ENCODING 126
SWIDTH 589 0
DWIDTH 8 0
BBX 6 3 1 3
BITMAP
64
94
9C
ENDCHAR
STARTCHAR uni00A0
ENCODING 160
SWIDTH 229 0
DWIDTH 3 0
BBX 1 1 0 0
BITMAP
00
ENDCHAR
STARTCHAR exclamdown
ENCODING 161
SWIDTH 231 0
DWIDTH 3 0
BBX 1 10 1 -2
BITMAP
80
00
80
80
80
80
80
80
80
80
ENDCHAR
STARTCHAR cent
ENCODING 162
SWIDTH 479 0
DWIDTH 7 0
BBX 5 12 1 -2
BITMAP
20
20
70
C8
88
80
80
80
C8
70
20
20
ENDCHAR
STARTCHAR sterling
ENCODING 163
SWIDTH 510 0
DWIDTH 7 0
BBX 6 10 1 0
BITMAP
78
48
C8
C0
C0
E0
C0
40
C0
FC
ENDCHAR
STARTCHAR currency
ENCODING 164
SWIDTH 712 0
DWIDTH 10 0
BBX 8 9 1 0
BITMAP
BD
E3
C3
81
81
81
C3
E3
BD
ENDCHAR
STARTCHAR yen
ENCODING 165
SWIDTH 463 0
DWIDTH 6 0
BBX 6 10 0 0
BITMAP
CC
48
48
78
30
78
30
78
30
30
ENDCHAR
STARTCHAR brokenbar
ENCODING 166
SWIDTH 239 0
DWIDTH 3 0
BBX 1 12 1 -2
BITMAP
80
80
80
80
80
00
80
80
80
80
80
80
ENDCHAR
STARTCHAR section
ENCODING 167
SWIDTH 537 0
DWIDTH 8 0
BBX 6 13 1 -3
BITMAP
78
CC
84
C0
70
8C
84
C4
38
0C
84
CC
78
ENDCHAR
STARTCHAR dieresis
ENCODING 168
SWIDTH 417 0
DWIDTH 6 0
BBX 4 1 1 9
BITMAP
90
ENDCHAR
STARTCHAR copyright
ENCODING 169
SWIDTH 785 0
DWIDTH 11 0
BBX 9 10 1 0
BITMAP
3E00
4300
9C80
A280
A080
A080
A280
9C80
4300
3E00
ENDCHAR
STARTCHAR ordfeminine
ENCODING 170
SWIDTH 395 0
DWIDTH 6 0
BBX 4 5 1 5
BITMAP
60
90
70
90
F0
ENDCHAR
STARTCHAR guillemotleft
ENCODING 171
SWIDTH 417 0
DWIDTH 6 0
BBX 4 5 1 1
BITMAP
50
A0
A0
A0
50
ENDCHAR
STARTCHAR logicalnot
ENCODING 172
SWIDTH 487 0
DWIDTH 7 0
BBX 5 3 1 2
BITMAP
F8
18
18
ENDCHAR
STARTCHAR uni00AD
ENCODING 173
SWIDTH 248 0
DWIDTH 3 0
BBX 3 1 0 4
BITMAP
E0
ENDCHAR
STARTCHAR registered
ENCODING 174
SWIDTH 786 0
DWIDTH 11 0
BBX 9 10 1 0
BITMAP
3E00
4300
BC80
A280
A280
BC80
A280
A280
4300
3E00
ENDCHAR
STARTCHAR macron
ENCODING 175
SWIDTH 414 0
DWIDTH 6 0
BBX 4 1 1 9
BITMAP
F0
ENDCHAR
STARTCHAR degree
ENCODING 176
SWIDTH 373 0
DWIDTH 5 0
BBX 3 4 1 6
BITMAP
E0
A0
A0
E0
ENDCHAR
STARTCHAR plusminus
ENCODING 177
SWIDTH 469 0
DWIDTH 7 0
BBX 5 9 1 0
BITMAP
20
20
20
F8
20
20
20
00
F8
ENDCHAR
STARTCHAR uni00B2
ENCODING 178
SWIDTH 329 0
DWIDTH 5 0
BBX 3 5 1 5
BITMAP
E0
A0
20
C0
E0
ENDCHAR
STARTCHAR uni00B3
ENCODING 179
SWIDTH 329 0
DWIDTH 5 0
BBX 3 5 1 5
BITMAP
E0
20
40
20
E0
ENDCHAR
STARTCHAR acute
ENCODING 180
SWIDTH 313 0
DWIDTH 4 0
BBX 3 2 1 8
BITMAP
60
80
ENDCHAR
STARTCHAR mu
ENCODING 181
SWIDTH 498 0
DWIDTH 7 0
BBX 5 11 1 -3
BITMAP
88
88
88
88
88
88
C8
F8
80
80
80
ENDCHAR
STARTCHAR paragraph
ENCODING 182
SWIDTH 434 0
DWIDTH 6 0
BBX 5 10 0 0
BITMAP
38
78
F8
F8
78
78
08
08
08
08
ENDCHAR
STARTCHAR periodcentered
ENCODING 183
SWIDTH 243 0
DWIDTH 3 0
BBX 1 2 1 4
BITMAP
80
80
ENDCHAR
STARTCHAR cedilla
ENCODING 184
SWIDTH 229 0
DWIDTH 3 0
BBX 2 3 1 -3
BITMAP
80
80
C0
ENDCHAR
STARTCHAR uni00B9
ENCODING 185
SWIDTH 329 0
DWIDTH 5 0
BBX 2 5 1 5
BITMAP
40
C0
40
40
40
ENDCHAR
STARTCHAR ordmasculine
ENCODING 186
SWIDTH 402 0
DWIDTH 6 0
BBX 4 5 1 5
BITMAP
60
90
90
90
60
ENDCHAR
STARTCHAR guillemotright
ENCODING 187
SWIDTH 417 0
DWIDTH 6 0
BBX 4 5 1 1
BITMAP
A0
50
50
50
A0
ENDCHAR
STARTCHAR onequarter
ENCODING 188
SWIDTH 637 0
DWIDTH 9 0
BBX 7 10 1 0
BITMAP
40
C4
48
48
50
16
26
2A
4E
02
ENDCHAR
STARTCHAR onehalf
ENCODING 189
SWIDTH 677 0
DWIDTH 9 0
BBX 8 10 1 0
BITMAP
40
C4
48
50
50
26
29
42
44
0F
ENDCHAR
STARTCHAR threequarters
ENCODING 190
SWIDTH 673 0
DWIDTH 9 0
BBX 8 10 1 0
BITMAP
E0
26
64
28
E8
12
16
2A
2F
02
ENDCHAR
STARTCHAR questiondown
ENCODING 191
SWIDTH 421 0
DWIDTH 6 0
BBX 4 11 1 -3
BITMAP
60
00
00
60
40
C0
80
80
90
90
E0
ENDCHAR
STARTCHAR Agrave
ENCODING 192
SWIDTH 576 0
DWIDTH 8 0
BBX 8 13 0 0
BITMAP
30
18
00
18
18
18
24
24
24
7E
42
42
C3
ENDCHAR
STARTCHAR Aacute
ENCODING 193
SWIDTH 576 0
DWIDTH 8 0
BBX 8 13 0 0
BITMAP
0C
18
00
18
18
18
24
24
24
7E
42
42
C3
ENDCHAR
STARTCHAR Acircumflex
ENCODING 194
SWIDTH 576 0
DWIDTH 8 0
BBX 8 13 0 0
BITMAP
18
34
00
18
18
18
24
24
24
7E
42
42
C3
ENDCHAR
STARTCHAR Atilde
ENCODING 195
SWIDTH 576 0
DWIDTH 8 0
BBX 8 13 0 0
BITMAP
34
2C
00
18
18
18
24
24
24
7E
42
42
C3
ENDCHAR
STARTCHAR Adieresis
ENCODING 196
SWIDTH 576 0
DWIDTH 8 0
BBX 8 12 0 0
BITMAP
24
00
18
18
18
24
24
24
7E
42
42
C3
ENDCHAR
STARTCHAR Aring
ENCODING 197
SWIDTH 576 0
DWIDTH 8 0
BBX 8 14 0 0
BITMAP
18
24
18
00
18
18
18
24
24
24
7E
42
42
C3
ENDCHAR
STARTCHAR AE
ENCODING 198
SWIDTH 812 0
DWIDTH 11 0
BBX 11 10 0 0
BITMAP
07E0
0A00
0A00
1200
13C0
2200
3E00
4200
4200
C3E0
ENDCHAR
STARTCHAR Ccedilla
ENCODING 199
SWIDTH 566 0
DWIDTH 8 0
BBX 6 13 1 -3
BITMAP
78
C4
84
80
80
80
80
84
C4
78
20
10
30
ENDCHAR
STARTCHAR Egrave
ENCODING 200
SWIDTH 496 0
DWIDTH 7 0
BBX 5 13 1 0
BITMAP
60
20
00
F8
80
80
80
F8
80
80
80
80
F8
ENDCHAR
STARTCHAR Eacute
ENCODING 201
SWIDTH 496 0
DWIDTH 7 0
BBX 5 13 1 0
BITMAP
18
20
00
F8
80
80
80
F8
80
80
80
80
F8
ENDCHAR
STARTCHAR Ecircumflex
ENCODING 202
SWIDTH 496 0
DWIDTH 7 0
BBX 5 13 1 0
BITMAP
30
50
00
F8
80
80
80
F8
80
80
80
80
F8
ENDCHAR
STARTCHAR Edieresis
ENCODING 203
SWIDTH 496 0
DWIDTH 7 0
BBX 5 12 1 0
BITMAP
D8
00
F8
80
80
80
F8
80
80
80
80
F8
ENDCHAR
STARTCHAR Igrave
ENCODING 204
SWIDTH 250 0
DWIDTH 4 0
BBX 2 13 0 0
BITMAP
C0
40
00
40
40
40
40
40
40
40
40
40
40
ENDCHAR
STARTCHAR Iacute
ENCODING 205
SWIDTH 250 0
DWIDTH 4 0
BBX 3 13 1 0
BITMAP
60
C0
00
80
80
80
80
80
80
80
80
80
80
ENDCHAR
STARTCHAR Icircumflex
ENCODING 206
SWIDTH 250 0
DWIDTH 4 0
BBX 4 13 0 0
BITMAP
60
B0
00
40
40
40
40
40
40
40
40
40
40
ENDCHAR
STARTCHAR Idieresis
ENCODING 207
SWIDTH 250 0
DWIDTH 4 0
BBX 4 12 0 0
BITMAP
B0
00
40
40
40
40
40
40
40
40
40
40
ENDCHAR
STARTCHAR Eth
ENCODING 208
SWIDTH 585 0
DWIDTH 8 0
BBX 7 10 0 0
BITMAP
7C
46
42
42
F2
42
42
42
46
7C
ENDCHAR
STARTCHAR Ntilde
ENCODING 209
SWIDTH 619 0
DWIDTH 9 0
BBX 7 13 1 0
BITMAP
28
58
00
C2
C2
E2
E2
D2
D2
CA
CA
C6
C6
ENDCHAR
STARTCHAR Ograve
ENCODING 210
SWIDTH 600 0
DWIDTH 8 0
BBX 6 13 1 0
BITMAP
60
30
00
78
CC
84
84
84
84
84
84
CC
78
ENDCHAR
STARTCHAR Oacute
ENCODING 211
SWIDTH 600 0
DWIDTH 8 0
BBX 6 13 1 0
BITMAP
18
10
00
78
CC
84
84
84
84
84
84
CC
78
ENDCHAR
STARTCHAR Ocircumflex
ENCODING 212
SWIDTH 600 0
DWIDTH 8 0
BBX 6 13 1 0
BITMAP
30
68
00
78
CC
84
84
84
84
84
84
CC
78
ENDCHAR
STARTCHAR Otilde
ENCODING 213
SWIDTH 600 0
DWIDTH 8 0
BBX 6 13 1 0
BITMAP
28
58
00
78
CC
84
84
84
84
84
84
CC
78
ENDCHAR
STARTCHAR Odieresis
ENCODING 214
SWIDTH 600 0
DWIDTH 8 0
BBX 6 12 1 0
BITMAP
68
00
78
CC
84
84
84
84
84
84
CC
78
ENDCHAR
STARTCHAR multiply
ENCODING 215
SWIDTH 470 0
DWIDTH 7 0
BBX 5 7 1 1
BITMAP
88
90
70
20
70
D0
88
ENDCHAR
STARTCHAR Oslash
ENCODING 216
SWIDTH 600 0
DWIDTH 8 0
BBX 7 11 1 -1
BITMAP
7E
CC
8C
94
94
A4
A4
C4
CC
F8
80
ENDCHAR
STARTCHAR Ugrave
ENCODING 217
SWIDTH 561 0
DWIDTH 8 0
BBX 6 13 1 0
BITMAP
60
30
00
84
84
84
84
84
84
84
84
CC
78
ENDCHAR
STARTCHAR Uacute
ENCODING 218
SWIDTH 561 0
DWIDTH 8 0
BBX 6 13 1 0
BITMAP
18
30
00
84
84
84
84
84
84
84
84
CC
78
ENDCHAR
STARTCHAR Ucircumflex
ENCODING 219
SWIDTH 561 0
DWIDTH 8 0
BBX 6 13 1 0
BITMAP
30
58
00
84
84
84
84
84
84
84
84
CC
78
ENDCHAR
STARTCHAR Udieresis
ENCODING 220
SWIDTH 561 0
DWIDTH 8 0
BBX 6 12 1 0
BITMAP
48
00
84
84
84
84
84
84
84
84
CC
78
ENDCHAR
STARTCHAR Yacute
ENCODING 221
SWIDTH 524 0
DWIDTH 7 0
BBX 7 13 0 0
BITMAP
0C
10
00
C2
44
64
2C
28
18
10
10
10
10
ENDCHAR
STARTCHAR Thorn
ENCODING 222
SWIDTH 515 0
DWIDTH 7 0
BBX 5 10 1 0
BITMAP
80
80
F0
88
88
88
88
F0
80
80
ENDCHAR
STARTCHAR germandbls
ENCODING 223
SWIDTH 521 0
DWIDTH 7 0
BBX 6 11 1 0
BITMAP
70
90
90
90
B0
B0
90
88
8C
C8
B8
ENDCHAR
STARTCHAR agrave
ENCODING 224
SWIDTH 479 0
DWIDTH 7 0
BBX 5 11 1 0
BITMAP
C0
20
00
70
88
08
78
C8
88
98
68
ENDCHAR
STARTCHAR aacute
ENCODING 225
SWIDTH 479 0
DWIDTH 7 0
BBX 5 11 1 0
BITMAP
18
20
00
70
88
08
78
C8
88
98
68
ENDCHAR
STARTCHAR acircumflex
ENCODING 226
SWIDTH 479 0
DWIDTH 7 0
BBX 5 11 1 0
BITMAP
20
50
00
70
88
08
78
C8
88
98
68
ENDCHAR
STARTCHAR atilde
ENCODING 227
SWIDTH 479 0
DWIDTH 7 0
BBX 5 11 1 0
BITMAP
48
B0
00
70
88
08
78
C8
88
98
68
ENDCHAR
STARTCHAR adieresis
ENCODING 228
SWIDTH 479 0
DWIDTH 7 0
BBX 5 10 1 0
BITMAP
D8
00
70
88
08
78
C8
88
98
68
ENDCHAR
STARTCHAR aring
ENCODING 229
SWIDTH 479 0
DWIDTH 7 0
BBX 5 12 1 0
BITMAP
30
50
30
00
70
88
08
78
C8
88
98
68
ENDCHAR
STARTCHAR ae
ENCODING 230
SWIDTH 728 0
DWIDTH 10 0
BBX 10 8 0 0
BITMAP
7B80
4C80
0CC0
7FC0
4800
CC00
4C80
7380
ENDCHAR
STARTCHAR ccedilla
ENCODING 231
SWIDTH 461 0
DWIDTH 6 0
BBX 6 11 0 -3
BITMAP
38
48
C4
C0
C0
C4
48
38
10
30
10
ENDCHAR
STARTCHAR egrave
ENCODING 232
SWIDTH 468 0
DWIDTH 7 0
BBX 5 11 1 0
BITMAP
C0
20
00
70
C8
88
F8
80
80
C8
78
ENDCHAR
STARTCHAR eacute
ENCODING 233
SWIDTH 468 0
DWIDTH 7 0
BBX 5 11 1 0
BITMAP
18
20
00
70
C8
88
F8
80
80
C8
78
ENDCHAR
STARTCHAR ecircumflex
ENCODING 234
SWIDTH 468 0
DWIDTH 7 0
BBX 5 11 1 0
BITMAP
20
50
00
70
C8
88
F8
80
80
C8
78
ENDCHAR
STARTCHAR edieresis
ENCODING 235
SWIDTH 468 0
DWIDTH 7 0
BBX 5 10 1 0
BITMAP
D8
00
70
C8
88
F8
80
80
C8
78
ENDCHAR
STARTCHAR igrave
ENCODING 236
SWIDTH 234 0
DWIDTH 3 0
BBX 2 11 0 0
BITMAP
80
40
00
40
40
40
40
40
40
40
40
ENDCHAR
STARTCHAR iacute
ENCODING 237
SWIDTH 234 0
DWIDTH 3 0
BBX 3 11 1 0
BITMAP
60
80
00
80
80
80
80
80
80
80
80
ENDCHAR
STARTCHAR icircumflex
ENCODING 238
SWIDTH 234 0
DWIDTH 3 0
BBX 3 11 0 0
BITMAP
40
A0
00
40
40
40
40
40
40
40
40
ENDCHAR
STARTCHAR idieresis
ENCODING 239
SWIDTH 234 0
DWIDTH 3 0
BBX 5 10 -1 0
BITMAP
D8
00
20
20
20
20
20
20
20
20
ENDCHAR
STARTCHAR eth
ENCODING 240
SWIDTH 513 0
DWIDTH 7 0
BBX 5 11 1 0
BITMAP
50
F8
30
58
78
C8
88
88
88
D8
70
ENDCHAR
STARTCHAR ntilde
ENCODING 241
SWIDTH 483 0
DWIDTH 7 0
BBX 5 11 1 0
BITMAP
50
B0
00
B0
C8
88
88
88
88
88
88
ENDCHAR
STARTCHAR ograve
ENCODING 242
SWIDTH 501 0
DWIDTH 7 0
BBX 5 11 1 0
BITMAP
C0
20
00
70
88
88
88
88
88
88
70
ENDCHAR
STARTCHAR oacute
ENCODING 243
SWIDTH 501 0
DWIDTH 7 0
BBX 5 11 1 0
BITMAP
18
20
00
70
88
88
88
88
88
88
70
ENDCHAR
STARTCHAR ocircumflex
ENCODING 244
SWIDTH 501 0
DWIDTH 7 0
BBX 5 11 1 0
BITMAP
20
50
00
70
88
88
88
88
88
88
70
ENDCHAR
STARTCHAR otilde
ENCODING 245
SWIDTH 501 0
DWIDTH 7 0
BBX 5 11 1 0
BITMAP
58
B0
00
70
88
88
88
88
88
88
70
ENDCHAR
STARTCHAR odieresis
ENCODING 246
SWIDTH 501 0
DWIDTH 7 0
BBX 5 10 1 0
BITMAP
D8
00
70
88
88
88
88
88
88
70
ENDCHAR
STARTCHAR divide
ENCODING 247
SWIDTH 500 0
DWIDTH 7 0
BBX 5 7 1 1
BITMAP
20
20
00
F8
00
20
20
ENDCHAR
STARTCHAR oslash
ENCODING 248
SWIDTH 498 0
DWIDTH 7 0
BBX 5 10 1 -1
BITMAP
08
70
D8
98
A8
A8
C8
C8
70
80
ENDCHAR
STARTCHAR ugrave
ENCODING 249
SWIDTH 483 0
DWIDTH 7 0
BBX 5 11 1 0
BITMAP
C0
20
00
88
88
88
88
88
88
98
68
ENDCHAR
STARTCHAR uacute
ENCODING 250
SWIDTH 483 0
DWIDTH 7 0
BBX 5 11 1 0
BITMAP
18
20
00
88
88
88
88
88
88
98
68
ENDCHAR
STARTCHAR ucircumflex
ENCODING 251
SWIDTH 483 0
DWIDTH 7 0
BBX 5 11 1 0
BITMAP
20
50
00
88
88
88
88
88
88
98
68
ENDCHAR
STARTCHAR udieresis
ENCODING 252
SWIDTH 483 0
DWIDTH 7 0
BBX 5 10 1 0
BITMAP
D8
00
88
88
88
88
88
88
98
68
ENDCHAR
STARTCHAR yacute
ENCODING 253
SWIDTH 416 0
DWIDTH 6 0
BBX 6 14 0 -3
BITMAP
18
30
00
CC
48
48
48
30
30
30
30
20
20
40
ENDCHAR
STARTCHAR thorn
ENCODING 254
SWIDTH 508 0
DWIDTH 7 0
BBX 5 14 1 -3
BITMAP
80
80
80
F0
98
88
88
88
88
98
F0
80
80
80
ENDCHAR
STARTCHAR ydieresis
ENCODING 255
SWIDTH 416 0
DWIDTH 6 0
BBX 6 13 0 -3
BITMAP
48
00
CC
48
48
48
30
30
30
30
20
20
40
ENDCHAR
STARTCHAR Amacron
ENCODING 256
SWIDTH 576 0
DWIDTH 8 0
BBX 8 12 0 0
BITMAP
3C
00
18
18
18
24
24
24
7E
42
42
C3
ENDCHAR
STARTCHAR amacron
ENCODING 257
SWIDTH 479 0
DWIDTH 7 0
BBX 5 10 1 0
BITMAP
78
00
70
88
08
78
C8
88
98
68
ENDCHAR
STARTCHAR Abreve
ENCODING 258
SWIDTH 576 0
DWIDTH 8 0
BBX 8 13 0 0
BITMAP
24
1C
00
18
18
18
24
24
24
7E
42
42
C3
ENDCHAR
STARTCHAR abreve
ENCODING 259
SWIDTH 479 0
DWIDTH 7 0
BBX 5 11 1 0
BITMAP
D8
70
00
70
88
08
78
C8
88
98
68
ENDCHAR
STARTCHAR Aogonek
ENCODING 260
SWIDTH 576 0
DWIDTH 8 0
BBX 8 13 0 -3
BITMAP
18
18
18
24
24
24
7E
42
42
C3
02
02
07
ENDCHAR
STARTCHAR aogonek
ENCODING 261
SWIDTH 479 0
DWIDTH 7 0
BBX 5 11 1 -3
BITMAP
70
88
08
78
C8
88
98
68
10
10
18
ENDCHAR
STARTCHAR Cacute
ENCODING 262
SWIDTH 566 0
DWIDTH 8 0
BBX 6 13 1 0
BITMAP
18
30
00
78
C4
84
80
80
80
80
84
C4
78
ENDCHAR
STARTCHAR cacute
ENCODING 263
SWIDTH 461 0
DWIDTH 6 0
BBX 6 11 0 0
BITMAP
18
30
00
38
48
C4
C0
C0
C4
48
38
ENDCHAR
STARTCHAR Ccircumflex
ENCODING 264
SWIDTH 566 0
DWIDTH 8 0
BBX 6 13 1 0
BITMAP
30
68
00
78
C4
84
80
80
80
80
84
C4
78
ENDCHAR
STARTCHAR ccircumflex
ENCODING 265
SWIDTH 461 0
DWIDTH 6 0
BBX 6 11 0 0
BITMAP
30
68
00
38
48
C4
C0
C0
C4
48
38
ENDCHAR
STARTCHAR Cdotaccent
ENCODING 266
SWIDTH 566 0
DWIDTH 8 0
BBX 6 12 1 0
BITMAP
30
00
78
C4
84
80
80
80
80
84
C4
78
ENDCHAR
STARTCHAR cdotaccent
ENCODING 267
SWIDTH 461 0
DWIDTH 6 0
BBX 6 10 0 0
BITMAP
30
00
38
48
C4
C0
C0
C4
48
38
ENDCHAR
STARTCHAR Ccaron
ENCODING 268
SWIDTH 566 0
DWIDTH 8 0
BBX 6 13 1 0
BITMAP
68
30
00
78
C4
84
80
80
80
80
84
C4
78
ENDCHAR
STARTCHAR ccaron
ENCODING 269
SWIDTH 461 0
DWIDTH 6 0
BBX 6 11 0 0
BITMAP
68
30
00
38
48
C4
C0
C0
C4
48
38
ENDCHAR
STARTCHAR Dcaron
ENCODING 270
SWIDTH 570 0
DWIDTH 8 0
BBX 6 13 1 0
BITMAP
58
20
00
F0
88
84
84
84
84
84
84
88
F0
ENDCHAR
STARTCHAR dcaron
ENCODING 271
SWIDTH 569 0
DWIDTH 8 0
BBX 7 11 1 0
BITMAP
0A
0E
0C
68
98
88
88
88
88
88
78
ENDCHAR
STARTCHAR Dcroat
ENCODING 272
SWIDTH 585 0
DWIDTH 8 0
BBX 7 10 0 0
BITMAP
7C
46
42
42
F2
42
42
42
46
7C
ENDCHAR
STARTCHAR dcroat
ENCODING 273
SWIDTH 529 0
DWIDTH 7 0
BBX 7 11 0 0
BITMAP
04
1E
04
34
4C
44
C4
C4
44
4C
34
ENDCHAR
STARTCHAR Emacron
ENCODING 274
SWIDTH 496 0
DWIDTH 7 0
BBX 5 12 1 0
BITMAP
78
00
F8
80
80
80
F8
80
80
80
80
F8
ENDCHAR
STARTCHAR emacron
ENCODING 275
SWIDTH 468 0
DWIDTH 7 0
BBX 5 10 1 0
BITMAP
F0
00
70
C8
88
F8
80
80
C8
78
ENDCHAR
STARTCHAR Ebreve
ENCODING 276
SWIDTH 496 0
DWIDTH 7 0
BBX 5 13 1 0
BITMAP
48
70
00
F8
80
80
80
F8
80
80
80
80
F8
ENDCHAR
STARTCHAR ebreve
ENCODING 277
SWIDTH 468 0
DWIDTH 7 0
BBX 5 11 1 0
BITMAP
90
70
00
70
C8
88
F8
80
80
C8
78
ENDCHAR
STARTCHAR Edotaccent
ENCODING 278
SWIDTH 496 0
DWIDTH 7 0
BBX 5 12 1 0
BITMAP
20
00
F8
80
80
80
F8
80
80
80
80
F8
ENDCHAR
STARTCHAR edotaccent
ENCODING 279
SWIDTH 468 0
DWIDTH 7 0
BBX 5 10 1 0
BITMAP
60
00
70
C8
88
F8
80
80
C8
78
ENDCHAR
STARTCHAR Eogonek
ENCODING 280
SWIDTH 496 0
DWIDTH 7 0
BBX 5 13 1 -3
BITMAP
F8
80
80
80
F8
80
80
80
80
F8
10
10
18
ENDCHAR
STARTCHAR eogonek
ENCODING 281
SWIDTH 468 0
DWIDTH 7 0
BBX 5 11 1 -3
BITMAP
70
C8
88
F8
80
80
C8
78
20
20
30
ENDCHAR
STARTCHAR Ecaron
ENCODING 282
SWIDTH 496 0
DWIDTH 7 0
BBX 5 13 1 0
BITMAP
58
20
00
F8
80
80
80
F8
80
80
80
80
F8
ENDCHAR
STARTCHAR ecaron
ENCODING 283
SWIDTH 468 0
DWIDTH 7 0
BBX 5 11 1 0
BITMAP
50
20
00
70
C8
88
F8
80
80
C8
78
ENDCHAR
STARTCHAR Gcircumflex
ENCODING 284
SWIDTH 590 0
DWIDTH 8 0
BBX 6 13 1 0
BITMAP
30
58
00
78
CC
84
80
80
9C
84
84
C4
78
ENDCHAR
STARTCHAR gcircumflex
ENCODING 285
SWIDTH 492 0
DWIDTH 7 0
BBX 5 14 1 -3
BITMAP
60
50
00
68
98
88
88
88
88
88
78
08
98
70
ENDCHAR
STARTCHAR Gbreve
ENCODING 286
SWIDTH 590 0
DWIDTH 8 0
BBX 6 13 1 0
BITMAP
48
30
00
78
CC
84
80
80
9C
84
84
C4
78
ENDCHAR
STARTCHAR gbreve
ENCODING 287
SWIDTH 492 0
DWIDTH 7 0
BBX 5 14 1 -3
BITMAP
90
70
00
68
98
88
88
88
88
88
78
08
98
70
ENDCHAR
STARTCHAR Gdotaccent
ENCODING 288
SWIDTH 590 0
DWIDTH 8 0
BBX 6 12 1 0
BITMAP
30
00
78
CC
84
80
80
9C
84
84
C4
78
ENDCHAR
STARTCHAR gdotaccent
ENCODING 289
SWIDTH 492 0
DWIDTH 7 0
BBX 5 13 1 -3
BITMAP
60
00
68
98
88
88
88
88
88
78
08
98
70
ENDCHAR
STARTCHAR uni0122
ENCODING 290
SWIDTH 590 0
DWIDTH 8 0
BBX 6 14 1 -4
BITMAP
78
CC
84
80
80
9C
84
84
C4
78
00
10
30
20
ENDCHAR
STARTCHAR uni0123
ENCODING 291
SWIDTH 492 0
DWIDTH 7 0
BBX 5 15 1 -3
BITMAP
20
20
20
00
68
98
88
88
88
88
88
78
08
98
70
ENDCHAR
STARTCHAR Hcircumflex
ENCODING 292
SWIDTH 620 0
DWIDTH 9 0
BBX 7 13 1 0
BITMAP
30
68
00
C2
C2
C2
C2
FE
C2
C2
C2
C2
C2
ENDCHAR
STARTCHAR hcircumflex
ENCODING 293
SWIDTH 482 0
DWIDTH 7 0
BBX 5 14 1 0
BITMAP
60
D0
00
80
80
80
B0
C8
88
88
88
88
88
88
ENDCHAR
STARTCHAR Hbar
ENCODING 294
SWIDTH 611 0
DWIDTH 9 0
BBX 8 10 0 0
BITMAP
43
43
FF
43
7F
43
43
43
43
43
ENDCHAR
STARTCHAR hbar
ENCODING 295
SWIDTH 497 0
DWIDTH 7 0
BBX 6 11 0 0
BITMAP
40
F0
40
58
64
44
44
44
44
44
44
ENDCHAR
STARTCHAR Itilde
ENCODING 296
SWIDTH 250 0
DWIDTH 4 0
BBX 4 13 0 0
BITMAP
D0
A0
00
40
40
40
40
40
40
40
40
40
40
ENDCHAR
STARTCHAR itilde
ENCODING 297
SWIDTH 234 0
DWIDTH 3 0
BBX 4 11 0 0
BITMAP
D0
A0
00
40
40
40
40
40
40
40
40
ENDCHAR
STARTCHAR Imacron
ENCODING 298
SWIDTH 250 0
DWIDTH 4 0
BBX 4 12 0 0
BITMAP
F0
00
40
40
40
40
40
40
40
40
40
40
ENDCHAR
STARTCHAR imacron
ENCODING 299
SWIDTH 234 0
DWIDTH 3 0
BBX 4 10 0 0
BITMAP
F0
00
40
40
40
40
40
40
40
40
ENDCHAR
STARTCHAR Ibreve
ENCODING 300
SWIDTH 250 0
DWIDTH 4 0
BBX 4 13 0 0
BITMAP
90
E0
00
40
40
40
40
40
40
40
40
40
40
ENDCHAR
STARTCHAR ibreve
ENCODING 301
SWIDTH 234 0
DWIDTH 3 0
BBX 4 11 0 0
BITMAP
90
E0
00
40
40
40
40
40
40
40
40
ENDCHAR
STARTCHAR Iogonek
ENCODING 302
SWIDTH 250 0
DWIDTH 4 0
BBX 3 13 0 -3
BITMAP
40
40
40
40
40
40
40
40
40
40
60
40
E0
ENDCHAR
STARTCHAR iogonek
ENCODING 303
SWIDTH 229 0
DWIDTH 3 0
BBX 2 13 0 -3
BITMAP
40
00
40
40
40
40
40
40
40
40
40
80
40
ENDCHAR
STARTCHAR Idotaccent
ENCODING 304
SWIDTH 250 0
DWIDTH 4 0
BBX 1 12 1 0
BITMAP
80
00
80
80
80
80
80
80
80
80
80
80
ENDCHAR
STARTCHAR dotlessi
ENCODING 305
SWIDTH 234 0
DWIDTH 3 0
BBX 1 8 1 0
BITMAP
80
80
80
80
80
80
80
80
ENDCHAR
STARTCHAR IJ
ENCODING 306
SWIDTH 733 0
DWIDTH 10 0
BBX 8 10 1 0
BITMAP
81
81
81
81
81
81
81
91
99
8E
ENDCHAR
STARTCHAR ij
ENCODING 307
SWIDTH 452 0
DWIDTH 6 0
BBX 4 13 1 -3
BITMAP
90
00
90
90
90
90
90
90
90
90
10
10
30
ENDCHAR
STARTCHAR Jcircumflex
ENCODING 308
SWIDTH 483 0
DWIDTH 7 0
BBX 7 13 0 0
BITMAP
0C
16
00
0C
0C
0C
0C
0C
0C
0C
CC
48
78
ENDCHAR
STARTCHAR jcircumflex
ENCODING 309
SWIDTH 237 0
DWIDTH 3 0
BBX 4 14 0 -3
BITMAP
60
B0
00
40
40
40
40
40
40
40
40
40
40
C0
ENDCHAR
STARTCHAR uni0136
ENCODING 310
SWIDTH 544 0
DWIDTH 8 0
BBX 7 14 1 -4
BITMAP
C6
C8
D8
D0
E0
D0
D8
C8
CC
C4
02
20
20
20
ENDCHAR
STARTCHAR uni0137
ENCODING 311
SWIDTH 450 0
DWIDTH 6 0
BBX 5 15 1 -4
BITMAP
80
80
80
98
B0
A0
C0
E0
B0
90
98
00
60
40
40
ENDCHAR
STARTCHAR kgreenlandic
ENCODING 312
SWIDTH 491 0
DWIDTH 7 0
BBX 5 8 1 0
BITMAP
88
90
B0
A0
E0
B0
90
88
ENDCHAR
STARTCHAR Lacute
ENCODING 313
SWIDTH 475 0
DWIDTH 7 0
BBX 5 13 1 0
BITMAP
60
80
00
80
80
80
80
80
80
80
80
80
F8
ENDCHAR
STARTCHAR lacute
ENCODING 314
SWIDTH 229 0
DWIDTH 3 0
BBX 3 14 1 0
BITMAP
60
80
00
80
80
80
80
80
80
80
80
80
80
80
ENDCHAR
STARTCHAR uni013B
ENCODING 315
SWIDTH 475 0
DWIDTH 7 0
BBX 5 14 1 -4
BITMAP
80
80
80
80
80
80
80
80
80
F8
00
20
20
20
ENDCHAR
STARTCHAR uni013C
ENCODING 316
SWIDTH 229 0
DWIDTH 3 0
BBX 2 15 0 -4
BITMAP
40
40
40
40
40
40
40
40
40
40
40
00
40
40
C0
ENDCHAR
STARTCHAR Lcaron
ENCODING 317
SWIDTH 475 0
DWIDTH 7 0
BBX 5 10 1 0
BITMAP
90
90
A0
80
80
80
80
80
80
F8
ENDCHAR
STARTCHAR lcaron
ENCODING 318
SWIDTH 302 0
DWIDTH 4 0
BBX 3 11 1 0
BITMAP
A0
A0
A0
80
80
80
80
80
80
80
80
ENDCHAR
STARTCHAR Ldot
ENCODING 319
SWIDTH 475 0
DWIDTH 7 0
BBX 5 10 1 0
BITMAP
80
80
80
80
B0
80
80
80
80
F8
ENDCHAR
STARTCHAR ldot
ENCODING 320
SWIDTH 336 0
DWIDTH 5 0
BBX 3 11 1 0
BITMAP
80
80
80
80
80
A0
80
80
80
80
80
ENDCHAR
STARTCHAR Lslash
ENCODING 321
SWIDTH 475 0
DWIDTH 7 0
BBX 6 10 0 0
BITMAP
40
40
40
40
70
C0
40
40
40
7C
ENDCHAR
STARTCHAR lslash
ENCODING 322
SWIDTH 250 0
DWIDTH 4 0
BBX 3 11 0 0
BITMAP
40
40
40
40
60
C0
40
40
40
40
40
ENDCHAR
STARTCHAR Nacute
ENCODING 323
SWIDTH 619 0
DWIDTH 9 0
BBX 7 13 1 0
BITMAP
18
10
00
C2
C2
E2
E2
D2
D2
CA
CA
C6
C6
ENDCHAR
STARTCHAR nacute
ENCODING 324
SWIDTH 483 0
DWIDTH 7 0
BBX 5 11 1 0
BITMAP
18
20
00
B0
C8
88
88
88
88
88
88
ENDCHAR
STARTCHAR uni0145
ENCODING 325
SWIDTH 619 0
DWIDTH 9 0
BBX 7 14 1 -4
BITMAP
C2
C2
E2
E2
D2
D2
CA
CA
C6
C6
00
10
30
20
ENDCHAR
STARTCHAR uni0146
ENCODING 326
SWIDTH 483 0
DWIDTH 7 0
BBX 5 12 1 -4
BITMAP
B0
C8
88
88
88
88
88
88
00
20
20
40
ENDCHAR
STARTCHAR Ncaron
ENCODING 327
SWIDTH 619 0
DWIDTH 9 0
BBX 7 13 1 0
BITMAP
68
10
00
C2
C2
E2
E2
D2
D2
CA
CA
C6
C6
ENDCHAR
STARTCHAR ncaron
ENCODING 328
SWIDTH 483 0
DWIDTH 7 0
BBX 5 11 1 0
BITMAP
50
20
00
B0
C8
88
88
88
88
88
88
ENDCHAR
STARTCHAR napostrophe
ENCODING 329
SWIDTH 483 0
DWIDTH 7 0
BBX 6 10 0 0
BITMAP
80
80
D8
64
44
44
44
44
44
44
ENDCHAR
STARTCHAR Eng
ENCODING 330
SWIDTH 599 0
DWIDTH 8 0
BBX 6 13 1 -3
BITMAP
84
C4
C4
A4
A4
94
94
8C
8C
84
04
04
0C
ENDCHAR
STARTCHAR eng
ENCODING 331
SWIDTH 498 0
DWIDTH 7 0
BBX 5 11 1 -3
BITMAP
B0
C8
88
88
88
88
88
88
08
08
30
ENDCHAR
STARTCHAR Omacron
ENCODING 332
SWIDTH 600 0
DWIDTH 8 0
BBX 6 12 1 0
BITMAP
78
00
78
CC
84
84
84
84
84
84
CC
78
ENDCHAR
STARTCHAR omacron
ENCODING 333
SWIDTH 501 0
DWIDTH 7 0
BBX 5 10 1 0
BITMAP
78
00
70
88
88
88
88
88
88
70
ENDCHAR
STARTCHAR Obreve
ENCODING 334
SWIDTH 600 0
DWIDTH 8 0
BBX 6 13 1 0
BITMAP
48
38
00
78
CC
84
84
84
84
84
84
CC
78
ENDCHAR
STARTCHAR obreve
ENCODING 335
SWIDTH 501 0
DWIDTH 7 0
BBX 5 11 1 0
BITMAP
D8
70
00
70
88
88
88
88
88
88
70
ENDCHAR
STARTCHAR Ohungarumlaut
ENCODING 336
SWIDTH 600 0
DWIDTH 8 0
BBX 6 13 1 0
BITMAP
3C
38
00
78
CC
84
84
84
84
84
84
CC
78
ENDCHAR
STARTCHAR ohungarumlaut
ENCODING 337
SWIDTH 501 0
DWIDTH 7 0
BBX 5 11 1 0
BITMAP
38
50
00
70
88
88
88
88
88
88
70
ENDCHAR
STARTCHAR OE
ENCODING 338
SWIDTH 826 0
DWIDTH 12 0
BBX 10 10 1 0
BITMAP
7FC0
4C00
8C00
8C00
8F80
8C00
8C00
8C00
4C00
3FC0
ENDCHAR
STARTCHAR oe
ENCODING 339
SWIDTH 777 0
DWIDTH 11 0
BBX 9 8 1 0
BITMAP
7300
CC80
8C80
8F80
8800
8C00
CC80
7780
ENDCHAR
STARTCHAR Racute
ENCODING 340
SWIDTH 530 0
DWIDTH 7 0
BBX 6 13 1 0
BITMAP
18
20
00
F8
88
8C
8C
88
F0
90
88
88
8C
ENDCHAR
STARTCHAR racute
ENCODING 341
SWIDTH 304 0
DWIDTH 4 0
BBX 4 11 1 0
BITMAP
30
40
00
E0
80
80
80
80
80
80
80
ENDCHAR
STARTCHAR uni0156
ENCODING 342
SWIDTH 530 0
DWIDTH 7 0
BBX 6 14 1 -4
BITMAP
F8
88
8C
8C
88
F0
90
88
88
8C
00
20
20
60
ENDCHAR
STARTCHAR uni0157
ENCODING 343
SWIDTH 304 0
DWIDTH 4 0
BBX 4 12 0 -4
BITMAP
70
40
40
40
40
40
40
40
00
40
40
80
ENDCHAR
STARTCHAR Rcaron
ENCODING 344
SWIDTH 530 0
DWIDTH 7 0
BBX 6 13 1 0
BITMAP
50
20
00
F8
88
8C
8C
88
F0
90
88
88
8C
ENDCHAR
STARTCHAR rcaron
ENCODING 345
SWIDTH 304 0
DWIDTH 4 0
BBX 3 11 1 0
BITMAP
A0
40
00
E0
80
80
80
80
80
80
80
ENDCHAR
STARTCHAR Sacute
ENCODING 346
SWIDTH 518 0
DWIDTH 7 0
BBX 7 13 0 0
BITMAP
0C
10
00
38
44
46
40
70
1C
04
C6
44
38
ENDCHAR
STARTCHAR sacute
ENCODING 347
SWIDTH 455 0
DWIDTH 6 0
BBX 6 11 0 0
BITMAP
0C
10
00
38
48
40
60
18
08
CC
78
ENDCHAR
STARTCHAR Scircumflex
ENCODING 348
SWIDTH 518 0
DWIDTH 7 0
BBX 7 13 0 0
BITMAP
18
28
00
38
44
46
40
70
1C
04
C6
44
38
ENDCHAR
STARTCHAR scircumflex
ENCODING 349
SWIDTH 455 0
DWIDTH 6 0
BBX 6 11 0 0
BITMAP
10
28
00
38
48
40
60
18
08
CC
78
ENDCHAR
STARTCHAR Scedilla
ENCODING 350
SWIDTH 518 0
DWIDTH 7 0
BBX 7 13 0 -3
BITMAP
38
44
46
40
70
1C
04
C6
44
38
10
08
18
ENDCHAR
STARTCHAR scedilla
ENCODING 351
SWIDTH 455 0
DWIDTH 6 0
BBX 6 11 0 -3
BITMAP
38
48
40
60
18
08
CC
78
10
10
18
ENDCHAR
STARTCHAR Scaron
ENCODING 352
SWIDTH 518 0
DWIDTH 7 0
BBX 7 13 0 0
BITMAP
2C
10
00
38
44
46
40
70
1C
04
C6
44
38
ENDCHAR
STARTCHAR scaron
ENCODING 353
SWIDTH 455 0
DWIDTH 6 0
BBX 6 11 0 0
BITMAP
28
10
00
38
48
40
60
18
08
CC
78
ENDCHAR
STARTCHAR uni0162
ENCODING 354
SWIDTH 520 0
DWIDTH 7 0
BBX 7 13 0 -3
BITMAP
FE
10
10
10
10
10
10
10
10
10
10
08
18
ENDCHAR
STARTCHAR uni0163
ENCODING 355
SWIDTH 295 0
DWIDTH 4 0
BBX 4 13 0 -3
BITMAP
40
40
F0
40
40
40
40
40
40
30
20
10
30
ENDCHAR
STARTCHAR Tcaron
ENCODING 356
SWIDTH 520 0
DWIDTH 7 0
BBX 7 13 0 0
BITMAP
2C
10
00
FE
10
10
10
10
10
10
10
10
10
ENDCHAR
STARTCHAR tcaron
ENCODING 357
SWIDTH 314 0
DWIDTH 4 0
BBX 4 11 0 0
BITMAP
10
50
50
F0
40
40
40
40
40
40
30
ENDCHAR
STARTCHAR Tbar
ENCODING 358
SWIDTH 520 0
DWIDTH 7 0
BBX 7 10 0 0
BITMAP
FE
10
10
3C
10
10
10
10
10
10
ENDCHAR
STARTCHAR tbar
ENCODING 359
SWIDTH 295 0
DWIDTH 4 0
BBX 4 10 0 0
BITMAP
40
40
F0
40
F0
40
40
40
60
30
ENDCHAR
STARTCHAR Utilde
ENCODING 360
SWIDTH 561 0
DWIDTH 8 0
BBX 6 13 1 0
BITMAP
68
58
00
84
84
84
84
84
84
84
84
CC
78
ENDCHAR
STARTCHAR utilde
ENCODING 361
SWIDTH 483 0
DWIDTH 7 0
BBX 5 11 1 0
BITMAP
50
B0
00
88
88
88
88
88
88
98
68
ENDCHAR
STARTCHAR Umacron
ENCODING 362
SWIDTH 561 0
DWIDTH 8 0
BBX 6 12 1 0
BITMAP
78
00
84
84
84
84
84
84
84
84
CC
78
ENDCHAR
STARTCHAR umacron
ENCODING 363
SWIDTH 483 0
DWIDTH 7 0
BBX 5 10 1 0
BITMAP
F0
00
88
88
88
88
88
88
98
68
ENDCHAR
STARTCHAR Ubreve
ENCODING 364
SWIDTH 561 0
DWIDTH 8 0
BBX 6 13 1 0
BITMAP
48
30
00
84
84
84
84
84
84
84
84
CC
78
ENDCHAR
STARTCHAR ubreve
ENCODING 365
SWIDTH 483 0
DWIDTH 7 0
BBX 5 11 1 0
BITMAP
90
70
00
88
88
88
88
88
88
98
68
ENDCHAR
STARTCHAR Uring
ENCODING 366
SWIDTH 561 0
DWIDTH 8 0
BBX 6 14 1 0
BITMAP
30
48
30
00
84
84
84
84
84
84
84
84
CC
78
ENDCHAR
STARTCHAR uring
ENCODING 367
SWIDTH 483 0
DWIDTH 7 0
BBX 5 12 1 0
BITMAP
70
50
70
00
88
88
88
88
88
88
98
68
ENDCHAR
STARTCHAR Uhungarumlaut
ENCODING 368
SWIDTH 561 0
DWIDTH 8 0
BBX 6 13 1 0
BITMAP
3C
78
00
84
84
84
84
84
84
84
84
CC
78
ENDCHAR
STARTCHAR uhungarumlaut
ENCODING 369
SWIDTH 483 0
DWIDTH 7 0
BBX 5 11 1 0
BITMAP
78
50
00
88
88
88
88
88
88
98
68
ENDCHAR
STARTCHAR Uogonek
ENCODING 370
SWIDTH 561 0
DWIDTH 8 0
BBX 6 13 1 -3
BITMAP
84
84
84
84
84
84
84
84
CC
78
10
10
18
ENDCHAR
STARTCHAR uogonek
ENCODING 371
SWIDTH 483 0
DWIDTH 7 0
BBX 5 11 1 -3
BITMAP
88
88
88
88
88
88
98
68
10
10
18
ENDCHAR
STARTCHAR Wcircumflex
ENCODING 372
SWIDTH 761 0
DWIDTH 11 0
BBX 10 13 0 0
BITMAP
0400
0A00
0000
C440
4440
4C40
4AC0
6A80
2A80
3280
3180
3180
3100
ENDCHAR
STARTCHAR wcircumflex
ENCODING 373
SWIDTH 649 0
DWIDTH 9 0
BBX 9 11 0 0
BITMAP
0800
1400
0000
C980
4900
5500
5500
5500
3600
2200
2200
ENDCHAR
STARTCHAR Ycircumflex
ENCODING 374
SWIDTH 524 0
DWIDTH 7 0
BBX 7 13 0 0
BITMAP
18
28
00
C2
44
64
2C
28
18
10
10
10
10
ENDCHAR
STARTCHAR ycircumflex
ENCODING 375
SWIDTH 416 0
DWIDTH 6 0
BBX 6 14 0 -3
BITMAP
30
68
00
CC
48
48
48
30
30
30
30
20
20
40
ENDCHAR
STARTCHAR Ydieresis
ENCODING 376
SWIDTH 524 0
DWIDTH 7 0
BBX 7 12 0 0
BITMAP
6C
00
C2
44
64
2C
28
18
10
10
10
10
ENDCHAR
STARTCHAR Zacute
ENCODING 377
SWIDTH 522 0
DWIDTH 7 0
BBX 6 13 1 0
BITMAP
18
20
00
FC
08
18
10
30
20
40
40
80
FC
ENDCHAR
STARTCHAR zacute
ENCODING 378
SWIDTH 438 0
DWIDTH 6 0
BBX 5 11 1 0
BITMAP
30
60
00
F0
10
30
20
40
40
80
F8
ENDCHAR
STARTCHAR Zdotaccent
ENCODING 379
SWIDTH 522 0
DWIDTH 7 0
BBX 6 12 1 0
BITMAP
20
00
FC
08
18
10
30
20
40
40
80
FC
ENDCHAR
STARTCHAR zdotaccent
ENCODING 380
SWIDTH 438 0
DWIDTH 6 0
BBX 5 10 1 0
BITMAP
60
00
F0
10
30
20
40
40
80
F8
ENDCHAR
STARTCHAR Zcaron
ENCODING 381
SWIDTH 522 0
DWIDTH 7 0
BBX 6 13 1 0
BITMAP
58
20
00
FC
08
18
10
30
20
40
40
80
FC
ENDCHAR
STARTCHAR zcaron
ENCODING 382
SWIDTH 438 0
DWIDTH 6 0
BBX 5 11 1 0
BITMAP
D0
60
00
F0
10
30
20
40
40
80
F8
ENDCHAR
STARTCHAR longs
ENCODING 383
SWIDTH 234 0
DWIDTH 3 0
BBX 3 11 1 0
BITMAP
60
80
80
80
80
80
80
80
80
80
80
ENDCHAR
STARTCHAR uni018F
ENCODING 399
SWIDTH 597 0
DWIDTH 8 0
BBX 7 10 0 0
BITMAP
78
46
02
02
02
FE
C2
42
46
3C
ENDCHAR
STARTCHAR florin
ENCODING 402
SWIDTH 309 0
DWIDTH 4 0
BBX 4 14 0 -3
BITMAP
30
60
40
E0
40
40
40
40
40
40
40
40
40
C0
ENDCHAR
STARTCHAR Ohorn
ENCODING 416
SWIDTH 592 0
DWIDTH 8 0
BBX 7 11 1 0
BITMAP
02
7A
CC
84
84
84
84
84
84
CC
78
ENDCHAR
STARTCHAR ohorn
ENCODING 417
SWIDTH 502 0
DWIDTH 7 0
BBX 6 9 1 0
BITMAP
04
74
9C
88
88
88
88
98
70
ENDCHAR
STARTCHAR Uhorn
ENCODING 431
SWIDTH 608 0
DWIDTH 9 0
BBX 8 11 1 0
BITMAP
01
85
87
84
84
84
84
84
84
4C
78
ENDCHAR
STARTCHAR uhorn
ENCODING 432
SWIDTH 549 0
DWIDTH 8 0
BBX 7 8 1 0
BITMAP
8A
8C
88
88
88
88
98
78
ENDCHAR
STARTCHAR uni01F0
ENCODING 496
SWIDTH 237 0
DWIDTH 3 0
BBX 4 14 0 -3
BITMAP
B0
40
00
40
40
40
40
40
40
40
40
40
40
C0
ENDCHAR
STARTCHAR Aringacute
ENCODING 506
SWIDTH 576 0
DWIDTH 8 0
BBX 8 13 0 0
BITMAP
0C
08
18
18
18
18
24
24
24
7E
42
42
C3
ENDCHAR
STARTCHAR aringacute
ENCODING 507
SWIDTH 479 0
DWIDTH 7 0
BBX 5 11 1 0
BITMAP
10
20
20
70
88
08
78
C8
88
98
68
ENDCHAR
STARTCHAR AEacute
ENCODING 508
SWIDTH 812 0
DWIDTH 11 0
BBX 11 13 0 0
BITMAP
0300
0400
0000
07E0
0A00
0A00
1200
13C0
2200
3E00
4200
4200
C3E0
ENDCHAR
STARTCHAR aeacute
ENCODING 509
SWIDTH 728 0
DWIDTH 10 0
BBX 10 11 0 0
BITMAP
0600
0C00
0000
7B80
4C80
0CC0
7FC0
4800
CC00
4C80
7380
ENDCHAR
STARTCHAR Oslashacute
ENCODING 510
SWIDTH 600 0
DWIDTH 8 0
BBX 7 14 1 -1
BITMAP
18
10
00
7E
CC
8C
94
94
A4
A4
C4
CC
F8
80
ENDCHAR
STARTCHAR oslashacute
ENCODING 511
SWIDTH 498 0
DWIDTH 7 0
BBX 5 12 1 -1
BITMAP
30
20
08
70
D8
98
A8
A8
C8
C8
70
80
ENDCHAR
STARTCHAR uni0218
ENCODING 536
SWIDTH 518 0
DWIDTH 7 0
BBX 7 14 0 -4
BITMAP
38
44
46
40
70
1C
04
C6
44
38
00
10
10
10
ENDCHAR
STARTCHAR uni0219
ENCODING 537
SWIDTH 455 0
DWIDTH 6 0
BBX 6 12 0 -4
BITMAP
38
48
40
60
18
08
CC
78
00
10
10
20
ENDCHAR
STARTCHAR uni021A
ENCODING 538
SWIDTH 520 0
DWIDTH 7 0
BBX 7 14 0 -4
BITMAP
FE
10
10
10
10
10
10
10
10
10
00
10
10
30
ENDCHAR
STARTCHAR uni021B
ENCODING 539
SWIDTH 295 0
DWIDTH 4 0
BBX 4 14 0 -4
BITMAP
40
40
F0
40
40
40
40
40
40
30
00
20
20
20
ENDCHAR
STARTCHAR uni0237
ENCODING 567
SWIDTH 237 0
DWIDTH 3 0
BBX 2 11 0 -3
BITMAP
40
40
40
40
40
40
40
40
40
40
C0
ENDCHAR
STARTCHAR uni0259
ENCODING 601
SWIDTH 465 0
DWIDTH 7 0
BBX 5 8 1 0
BITMAP
70
98
08
08
F8
88
D8
70
ENDCHAR
STARTCHAR uni02BC
ENCODING 700
SWIDTH 194 0
DWIDTH 3 0
BBX 1 4 1 7
BITMAP
80
80
80
80
ENDCHAR
STARTCHAR circumflex
ENCODING 710
SWIDTH 428 0
DWIDTH 6 0
BBX 4 2 1 9
BITMAP
60
B0
ENDCHAR
STARTCHAR caron
ENCODING 711
SWIDTH 403 0
DWIDTH 6 0
BBX 4 2 1 9
BITMAP
B0
60
ENDCHAR
STARTCHAR uni02C9
ENCODING 713
SWIDTH 414 0
DWIDTH 6 0
BBX 4 1 1 9
BITMAP
F0
ENDCHAR
STARTCHAR breve
ENCODING 728
SWIDTH 426 0
DWIDTH 6 0
BBX 4 2 1 8
BITMAP
90
60
ENDCHAR
STARTCHAR dotaccent
ENCODING 729
SWIDTH 242 0
DWIDTH 3 0
BBX 1 1 1 9
BITMAP
80
ENDCHAR
STARTCHAR ring
ENCODING 730
SWIDTH 334 0
DWIDTH 5 0
BBX 3 3 1 8
BITMAP
E0
A0
E0
ENDCHAR
STARTCHAR ogonek
ENCODING 731
SWIDTH 253 0
DWIDTH 4 0
BBX 2 3 1 -3
BITMAP
C0
80
C0
ENDCHAR
STARTCHAR tilde
ENCODING 732
SWIDTH 427 0
DWIDTH 6 0
BBX 4 2 1 9
BITMAP
D0
B0
ENDCHAR
STARTCHAR hungarumlaut
ENCODING 733
SWIDTH 331 0
DWIDTH 5 0
BBX 4 2 1 8
BITMAP
F0
E0
ENDCHAR
STARTCHAR uni02F3
ENCODING 755
SWIDTH 263 0
DWIDTH 4 0
BBX 2 3 1 -4
BITMAP
C0
C0
C0
ENDCHAR
STARTCHAR gravecomb
ENCODING 768
SWIDTH 0 0
DWIDTH 0 0
BBX 3 2 -5 8
BITMAP
C0
60
ENDCHAR
STARTCHAR acutecomb
ENCODING 769
SWIDTH 0 0
DWIDTH 0 0
BBX 3 2 -4 8
BITMAP
60
C0
ENDCHAR
STARTCHAR tildecomb
ENCODING 771
SWIDTH 0 0
DWIDTH 0 0
BBX 4 2 -5 9
BITMAP
D0
B0
ENDCHAR
STARTCHAR hookabovecomb
ENCODING 777
SWIDTH 0 0
DWIDTH 0 0
BBX 2 3 -4 8
BITMAP
C0
40
80
ENDCHAR
STARTCHAR uni030F
ENCODING 783
SWIDTH 0 0
DWIDTH 0 0
BBX 5 2 -6 9
BITMAP
F0
28
ENDCHAR
STARTCHAR dotbelowcomb
ENCODING 803
SWIDTH 0 0
DWIDTH 0 0
BBX 2 1 -5 -2
BITMAP
C0
ENDCHAR
STARTCHAR tonos
ENCODING 900
SWIDTH 256 0
DWIDTH 4 0
BBX 2 2 1 9
BITMAP
C0
80
ENDCHAR
STARTCHAR dieresistonos
ENCODING 901
SWIDTH 452 0
DWIDTH 6 0
BBX 4 3 1 9
BITMAP
20
20
90
ENDCHAR
STARTCHAR Alphatonos
ENCODING 902
SWIDTH 576 0
DWIDTH 8 0
BBX 8 11 0 0
BITMAP
60
58
18
18
24
24
24
7E
42
42
C3
ENDCHAR
STARTCHAR anoteleia
ENCODING 903
SWIDTH 243 0
DWIDTH 3 0
BBX 1 2 1 4
BITMAP
80
80
ENDCHAR
STARTCHAR Epsilontonos
ENCODING 904
SWIDTH 496 0
DWIDTH 7 0
BBX 7 11 -1 0
BITMAP
80
BE
20
20
20
3E
20
20
20
20
3E
ENDCHAR
STARTCHAR Etatonos
ENCODING 905
SWIDTH 620 0
DWIDTH 9 0
BBX 9 11 -1 0
BITMAP
8000
B080
3080
3080
3080
3F80
3080
3080
3080
3080
3080
ENDCHAR
STARTCHAR Iotatonos
ENCODING 906
SWIDTH 250 0
DWIDTH 4 0
BBX 3 11 -1 0
BITMAP
80
A0
20
20
20
20
20
20
20
20
20
ENDCHAR
STARTCHAR Omicrontonos
ENCODING 908
SWIDTH 610 0
DWIDTH 9 0
BBX 7 11 0 0
BITMAP
80
BC
66
42
42
42
42
42
42
66
3C
ENDCHAR
STARTCHAR Upsilontonos
ENCODING 910
SWIDTH 573 0
DWIDTH 8 0
BBX 9 11 -1 0
BITMAP
8000
B180
1100
1300
1A00
0A00
0C00
0400
0400
0400
0400
ENDCHAR
STARTCHAR Omegatonos
ENCODING 911
SWIDTH 591 0
DWIDTH 8 0
BBX 7 11 0 0
BITMAP
80
BC
26
42
42
42
42
42
42
24
7E
ENDCHAR
STARTCHAR iotadieresistonos
ENCODING 912
SWIDTH 299 0
DWIDTH 4 0
BBX 4 12 0 0
BITMAP
20
40
90
00
40
40
40
40
40
40
60
30
ENDCHAR
STARTCHAR Alpha
ENCODING 913
SWIDTH 576 0
DWIDTH 8 0
BBX 8 10 0 0
BITMAP
18
18
18
24
24
24
7E
42
42
C3
ENDCHAR
STARTCHAR Beta
ENCODING 914
SWIDTH 545 0
DWIDTH 8 0
BBX 6 10 1 0
BITMAP
F8
8C
8C
88
F8
8C
84
84
8C
F8
ENDCHAR
STARTCHAR Gamma
ENCODING 915
SWIDTH 487 0
DWIDTH 7 0
BBX 5 10 1 0
BITMAP
F8
80
80
80
80
80
80
80
80
80
ENDCHAR
STARTCHAR Delta.dup1
ENCODING 916
SWIDTH 614 0
DWIDTH 9 0
BBX 8 10 0 0
BITMAP
08
18
14
14
24
26
22
42
43
FF
ENDCHAR
STARTCHAR Epsilon
ENCODING 917
SWIDTH 496 0
DWIDTH 7 0
BBX 5 10 1 0
BITMAP
F8
80
80
80
F8
80
80
80
80
F8
ENDCHAR
STARTCHAR Zeta
ENCODING 918
SWIDTH 522 0
DWIDTH 7 0
BBX 6 10 1 0
BITMAP
FC
08
18
10
30
20
40
40
80
FC
ENDCHAR
STARTCHAR Eta
ENCODING 919
SWIDTH 620 0
DWIDTH 9 0
BBX 7 10 1 0
BITMAP
C2
C2
C2
C2
FE
C2
C2
C2
C2
C2
ENDCHAR
STARTCHAR Theta
ENCODING 920
SWIDTH 593 0
DWIDTH 8 0
BBX 6 10 1 0
BITMAP
78
CC
84
84
B4
84
84
84
CC
78
ENDCHAR
STARTCHAR Iota
ENCODING 921
SWIDTH 250 0
DWIDTH 4 0
BBX 1 10 1 0
BITMAP
80
80
80
80
80
80
80
80
80
80
ENDCHAR
STARTCHAR Kappa
ENCODING 922
SWIDTH 544 0
DWIDTH 8 0
BBX 7 10 1 0
BITMAP
C6
C8
D8
D0
E0
D0
D8
C8
CC
C6
ENDCHAR
STARTCHAR Lambda
ENCODING 923
SWIDTH 572 0
DWIDTH 8 0
BBX 8 10 0 0
BITMAP
18
18
18
3C
24
24
66
46
42
C3
ENDCHAR
STARTCHAR Mu
ENCODING 924
SWIDTH 755 0
DWIDTH 11 0
BBX 9 10 1 0
BITMAP
C180
C380
C380
A380
A780
A580
9580
9D80
9980
8980
ENDCHAR
STARTCHAR Nu
ENCODING 925
SWIDTH 619 0
DWIDTH 9 0
BBX 7 10 1 0
BITMAP
C2
C2
E2
E2
D2
D2
CA
CA
C6
C6
ENDCHAR
STARTCHAR Xi
ENCODING 926
SWIDTH 502 0
DWIDTH 7 0
BBX 5 10 1 0
BITMAP
F8
00
00
00
F8
00
00
00
00
F8
ENDCHAR
STARTCHAR Omicron
ENCODING 927
SWIDTH 600 0
DWIDTH 8 0
BBX 6 10 1 0
BITMAP
78
CC
84
84
84
84
84
84
CC
78
ENDCHAR
STARTCHAR Pi
ENCODING 928
SWIDTH 620 0
DWIDTH 9 0
BBX 7 10 1 0
BITMAP
FE
86
86
86
86
86
86
86
86
86
ENDCHAR
STARTCHAR Rho
ENCODING 929
SWIDTH 554 0
DWIDTH 8 0
BBX 6 10 1 0
BITMAP
F8
84
84
84
84
F8
80
80
80
80
ENDCHAR
STARTCHAR Sigma
ENCODING 931
SWIDTH 502 0
DWIDTH 7 0
BBX 5 10 1 0
BITMAP
F8
80
40
60
20
30
60
40
80
F8
ENDCHAR
STARTCHAR Tau
ENCODING 932
SWIDTH 520 0
DWIDTH 7 0
BBX 7 10 0 0
BITMAP
FE
10
10
10
10
10
10
10
10
10
ENDCHAR
STARTCHAR Upsilon
ENCODING 933
SWIDTH 524 0
DWIDTH 7 0
BBX 7 10 0 0
BITMAP
C2
44
64
2C
28
18
10
10
10
10
ENDCHAR
STARTCHAR Phi
ENCODING 934
SWIDTH 621 0
DWIDTH 9 0
BBX 7 10 1 0
BITMAP
10
7C
D6
92
92
92
92
D6
7C
10
ENDCHAR
STARTCHAR Chi
ENCODING 935
SWIDTH 550 0
DWIDTH 8 0
BBX 7 10 0 0
BITMAP
42
64
24
38
18
18
38
24
64
C2
ENDCHAR
STARTCHAR Psi
ENCODING 936
SWIDTH 600 0
DWIDTH 8 0
BBX 8 10 0 0
BITMAP
DB
DB
DB
DA
DA
5E
3C
18
18
18
ENDCHAR
STARTCHAR Omega.dup2
ENCODING 937
SWIDTH 581 0
DWIDTH 8 0
BBX 6 10 1 0
BITMAP
78
C8
84
84
84
84
84
84
48
FC
ENDCHAR
STARTCHAR Iotadieresis
ENCODING 938
SWIDTH 250 0
DWIDTH 4 0
BBX 4 12 0 0
BITMAP
B0
00
40
40
40
40
40
40
40
40
40
40
ENDCHAR
STARTCHAR Upsilondieresis
ENCODING 939
SWIDTH 524 0
DWIDTH 7 0
BBX 7 12 0 0
BITMAP
6C
00
C2
44
64
2C
28
18
10
10
10
10
ENDCHAR
STARTCHAR alphatonos
ENCODING 940
SWIDTH 494 0
DWIDTH 7 0
BBX 6 11 1 0
BITMAP
30
20
00
68
D8
88
88
88
88
98
6C
ENDCHAR
STARTCHAR epsilontonos
ENCODING 941
SWIDTH 470 0
DWIDTH 7 0
BBX 5 11 1 0
BITMAP
20
20
00
70
D8
88
80
70
80
88
70
ENDCHAR
STARTCHAR etatonos
ENCODING 942
SWIDTH 498 0
DWIDTH 7 0
BBX 5 14 1 -3
BITMAP
30
20
00
B0
C8
88
88
88
88
88
88
08
08
08
ENDCHAR
STARTCHAR iotatonos
ENCODING 943
SWIDTH 299 0
DWIDTH 4 0
BBX 3 11 1 0
BITMAP
40
80
00
80
80
80
80
80
80
C0
60
ENDCHAR
STARTCHAR upsilondieresistonos
ENCODING 944
SWIDTH 480 0
DWIDTH 7 0
BBX 5 12 1 0
BITMAP
20
20
98
00
98
88
88
88
88
88
D8
70
ENDCHAR
STARTCHAR alpha
ENCODING 945
SWIDTH 494 0
DWIDTH 7 0
BBX 6 8 1 0
BITMAP
68
D8
88
88
88
88
98
6C
ENDCHAR
STARTCHAR beta
ENCODING 946
SWIDTH 517 0
DWIDTH 7 0
BBX 5 13 1 -3
BITMAP
70
98
88
88
B0
88
88
88
88
F0
80
80
80
ENDCHAR
STARTCHAR gamma
ENCODING 947
SWIDTH 444 0
DWIDTH 6 0
BBX 6 11 0 -3
BITMAP
CC
48
48
48
30
30
30
30
30
30
30
ENDCHAR
STARTCHAR delta
ENCODING 948
SWIDTH 498 0
DWIDTH 7 0
BBX 5 11 1 0
BITMAP
70
C0
C0
60
70
98
88
88
88
88
70
ENDCHAR
STARTCHAR epsilon
ENCODING 949
SWIDTH 470 0
DWIDTH 7 0
BBX 5 8 1 0
BITMAP
70
D8
88
80
70
80
88
70
ENDCHAR
STARTCHAR zeta
ENCODING 950
SWIDTH 462 0
DWIDTH 6 0
BBX 5 13 1 -3
BITMAP
F8
10
20
60
40
C0
80
80
80
60
10
10
10
ENDCHAR
STARTCHAR eta
ENCODING 951
SWIDTH 498 0
DWIDTH 7 0
BBX 5 11 1 -3
BITMAP
B0
C8
88
88
88
88
88
88
08
08
08
ENDCHAR
STARTCHAR theta
ENCODING 952
SWIDTH 496 0
DWIDTH 7 0
BBX 5 10 1 0
BITMAP
70
D8
88
88
F8
88
88
88
D8
70
ENDCHAR
STARTCHAR iota
ENCODING 953
SWIDTH 299 0
DWIDTH 4 0
BBX 3 8 1 0
BITMAP
80
80
80
80
80
80
C0
60
ENDCHAR
STARTCHAR kappa
ENCODING 954
SWIDTH 491 0
DWIDTH 7 0
BBX 5 8 1 0
BITMAP
88
90
B0
A0
E0
B0
90
88
ENDCHAR
STARTCHAR lambda
ENCODING 955
SWIDTH 485 0
DWIDTH 7 0
BBX 6 10 0 0
BITMAP
60
20
30
10
30
38
28
48
4C
C4
ENDCHAR
STARTCHAR uni03BC
ENCODING 956
SWIDTH 498 0
DWIDTH 7 0
BBX 5 11 1 -3
BITMAP
88
88
88
88
88
88
C8
F8
80
80
80
ENDCHAR
STARTCHAR nu
ENCODING 957
SWIDTH 427 0
DWIDTH 6 0
BBX 6 8 0 0
BITMAP
CC
48
48
48
30
30
30
30
ENDCHAR
STARTCHAR xi
ENCODING 958
SWIDTH 431 0
DWIDTH 6 0
BBX 5 13 1 -3
BITMAP
70
C0
80
C0
70
80
80
80
80
E0
10
18
10
ENDCHAR
STARTCHAR omicron
ENCODING 959
SWIDTH 501 0
DWIDTH 7 0
BBX 5 8 1 0
BITMAP
70
88
88
88
88
88
88
70
ENDCHAR
STARTCHAR pi
ENCODING 960
SWIDTH 520 0
DWIDTH 7 0
BBX 7 8 0 0
BITMAP
FC
4C
4C
4C
4C
4C
4C
46
ENDCHAR
STARTCHAR rho
ENCODING 961
SWIDTH 498 0
DWIDTH 7 0
BBX 5 11 1 -3
BITMAP
70
D8
88
88
88
88
88
F0
80
80
80
ENDCHAR
STARTCHAR sigma1
ENCODING 962
SWIDTH 472 0
DWIDTH 7 0
BBX 5 11 1 -3
BITMAP
70
C8
88
80
80
80
C0
70
18
18
10
ENDCHAR
STARTCHAR sigma
ENCODING 963
SWIDTH 498 0
DWIDTH 7 0
BBX 6 8 1 0
BITMAP
7C
D8
88
88
88
88
D8
70
ENDCHAR
STARTCHAR tau
ENCODING 964
SWIDTH 460 0
DWIDTH 6 0
BBX 6 8 0 0
BITMAP
FC
30
30
30
30
30
30
18
ENDCHAR
STARTCHAR upsilon
ENCODING 965
SWIDTH 480 0
DWIDTH 7 0
BBX 5 8 1 0
BITMAP
98
88
88
88
88
88
D8
70
ENDCHAR
STARTCHAR phi
ENCODING 966
SWIDTH 617 0
DWIDTH 9 0
BBX 7 11 1 -3
BITMAP
5C
D6
92
92
92
92
D6
7C
10
10
10
ENDCHAR
STARTCHAR chi
ENCODING 967
SWIDTH 438 0
DWIDTH 6 0
BBX 6 11 0 -3
BITMAP
CC
68
28
38
30
10
30
38
68
48
C4
ENDCHAR
STARTCHAR psi
ENCODING 968
SWIDTH 612 0
DWIDTH 9 0
BBX 7 11 1 -3
BITMAP
96
92
92
92
92
92
56
7C
10
10
10
ENDCHAR
STARTCHAR omega
ENCODING 969
SWIDTH 711 0
DWIDTH 10 0
BBX 8 8 1 0
BITMAP
C3
81
99
99
99
99
9B
66
ENDCHAR
STARTCHAR iotadieresis
ENCODING 970
SWIDTH 299 0
DWIDTH 4 0
BBX 4 10 0 0
BITMAP
90
00
40
40
40
40
40
40
60
30
ENDCHAR
STARTCHAR upsilondieresis
ENCODING 971
SWIDTH 480 0
DWIDTH 7 0
BBX 5 10 1 0
BITMAP
D8
00
98
88
88
88
88
88
D8
70
ENDCHAR
STARTCHAR omicrontonos
ENCODING 972
SWIDTH 501 0
DWIDTH 7 0
BBX 5 11 1 0
BITMAP
30
20
00
70
88
88
88
88
88
88
70
ENDCHAR
STARTCHAR upsilontonos
ENCODING 973
SWIDTH 480 0
DWIDTH 7 0
BBX 5 11 1 0
BITMAP
20
20
00
98
88
88
88
88
88
D8
70
ENDCHAR
STARTCHAR omegatonos
ENCODING 974
SWIDTH 711 0
DWIDTH 10 0
BBX 8 11 1 0
BITMAP
08
10
00
C3
81
99
99
99
99
9B
66
ENDCHAR
STARTCHAR theta1
ENCODING 977
SWIDTH 507 0
DWIDTH 7 0
BBX 6 10 1 0
BITMAP
30
48
48
48
28
9C
88
88
98
70
ENDCHAR
STARTCHAR Upsilon1
ENCODING 978
SWIDTH 465 0
DWIDTH 7 0
BBX 7 10 0 0
BITMAP
C6
44
2C
28
28
10
10
10
10
10
ENDCHAR
STARTCHAR omega1
ENCODING 982
SWIDTH 678 0
DWIDTH 10 0
BBX 8 8 1 0
BITMAP
FF
C3
81
99
99
99
DB
66
ENDCHAR
STARTCHAR uni0400
ENCODING 1024
SWIDTH 496 0
DWIDTH 7 0
BBX 5 13 1 0
BITMAP
60
20
00
F8
80
80
80
F8
80
80
80
80
F8
ENDCHAR
STARTCHAR uni0401
ENCODING 1025
SWIDTH 496 0
DWIDTH 7 0
BBX 5 12 1 0
BITMAP
D8
00
F8
80
80
80
F8
80
80
80
80
F8
ENDCHAR
STARTCHAR uni0402
ENCODING 1026
SWIDTH 650 0
DWIDTH 9 0
BBX 8 10 0 0
BITMAP
FE
10
10
10
1E
11
11
11
11
12
ENDCHAR
STARTCHAR uni0403
ENCODING 1027
SWIDTH 487 0
DWIDTH 7 0
BBX 5 13 1 0
BITMAP
18
30
00
F8
80
80
80
80
80
80
80
80
80
ENDCHAR
STARTCHAR uni0404
ENCODING 1028
SWIDTH 589 0
DWIDTH 8 0
BBX 6 10 1 0
BITMAP
78
CC
84
80
F0
80
80
84
CC
78
ENDCHAR
STARTCHAR uni0405
ENCODING 1029
SWIDTH 518 0
DWIDTH 7 0
BBX 7 10 0 0
BITMAP
38
44
46
40
70
1C
04
C6
44
38
ENDCHAR
STARTCHAR uni0406
ENCODING 1030
SWIDTH 250 0
DWIDTH 4 0
BBX 1 10 1 0
BITMAP
80
80
80
80
80
80
80
80
80
80
ENDCHAR
STARTCHAR uni0407
ENCODING 1031
SWIDTH 250 0
DWIDTH 4 0
BBX 4 12 0 0
BITMAP
B0
00
40
40
40
40
40
40
40
40
40
40
ENDCHAR
STARTCHAR uni0408
ENCODING 1032
SWIDTH 483 0
DWIDTH 7 0
BBX 6 10 0 0
BITMAP
0C
0C
0C
0C
0C
0C
0C
CC
48
78
ENDCHAR
STARTCHAR uni0409
ENCODING 1033
SWIDTH 923 0
DWIDTH 13 0
BBX 12 10 0 0
BITMAP
3F00
2300
2300
2300
23E0
2310
2310
2310
2310
C3E0
ENDCHAR
STARTCHAR uni040A
ENCODING 1034
SWIDTH 927 0
DWIDTH 13 0
BBX 11 10 1 0
BITMAP
8600
8600
8600
8600
FFC0
8620
8620
8620
8620
87C0
ENDCHAR
STARTCHAR uni040B
ENCODING 1035
SWIDTH 705 0
DWIDTH 10 0
BBX 8 10 1 0
BITMAP
FC
20
20
20
3E
23
21
21
21
21
ENDCHAR
STARTCHAR uni040C
ENCODING 1036
SWIDTH 544 0
DWIDTH 8 0
BBX 7 13 1 0
BITMAP
18
20
00
C6
C8
D8
D0
E0
D0
D8
C8
CC
C6
ENDCHAR
STARTCHAR uni040D
ENCODING 1037
SWIDTH 619 0
DWIDTH 9 0
BBX 7 13 1 0
BITMAP
60
10
00
86
86
8E
8E
96
B6
A6
E6
C6
C6
ENDCHAR
STARTCHAR uni040E
ENCODING 1038
SWIDTH 547 0
DWIDTH 8 0
BBX 6 13 1 0
BITMAP
48
70
00
84
CC
48
48
78
30
30
30
20
60
ENDCHAR
STARTCHAR uni040F
ENCODING 1039
SWIDTH 621 0
DWIDTH 9 0
BBX 7 12 1 -2
BITMAP
86
86
86
86
86
86
86
86
86
FE
10
10
ENDCHAR
STARTCHAR uni0410
ENCODING 1040
SWIDTH 576 0
DWIDTH 8 0
BBX 8 10 0 0
BITMAP
18
18
18
24
24
24
7E
42
42
C3
ENDCHAR
STARTCHAR uni0411
ENCODING 1041
SWIDTH 549 0
DWIDTH 8 0
BBX 6 10 1 0
BITMAP
F8
80
80
80
F8
84
84
84
84
F8
ENDCHAR
STARTCHAR uni0412
ENCODING 1042
SWIDTH 545 0
DWIDTH 8 0
BBX 6 10 1 0
BITMAP
F8
8C
8C
88
F8
8C
84
84
8C
F8
ENDCHAR
STARTCHAR uni0413
ENCODING 1043
SWIDTH 487 0
DWIDTH 7 0
BBX 5 10 1 0
BITMAP
F8
80
80
80
80
80
80
80
80
80
ENDCHAR
STARTCHAR uni0414
ENCODING 1044
SWIDTH 660 0
DWIDTH 9 0
BBX 9 12 0 -2
BITMAP
3F00
3300
3300
2300
2300
2300
2300
2300
6300
FF80
C180
C180
ENDCHAR
STARTCHAR uni0415
ENCODING 1045
SWIDTH 496 0
DWIDTH 7 0
BBX 5 10 1 0
BITMAP
F8
80
80
80
F8
80
80
80
80
F8
ENDCHAR
STARTCHAR uni0416
ENCODING 1046
SWIDTH 791 0
DWIDTH 11 0
BBX 11 10 0 0
BITMAP
4460
64C0
2480
1580
1F00
3580
2480
24C0
6440
C460
ENDCHAR
STARTCHAR uni0417
ENCODING 1047
SWIDTH 517 0
DWIDTH 7 0
BBX 7 10 0 0
BITMAP
38
44
44
04
18
04
04
C6
44
38
ENDCHAR
STARTCHAR uni0418
ENCODING 1048
SWIDTH 619 0
DWIDTH 9 0
BBX 7 10 1 0
BITMAP
86
86
8E
8E
96
B6
A6
E6
C6
C6
ENDCHAR
STARTCHAR uni0419
ENCODING 1049
SWIDTH 619 0
DWIDTH 9 0
BBX 7 13 1 0
BITMAP
48
38
00
86
86
8E
8E
96
B6
A6
E6
C6
C6
ENDCHAR
STARTCHAR uni041A
ENCODING 1050
SWIDTH 560 0
DWIDTH 8 0
BBX 7 10 1 0
BITMAP
86
88
98
90
E0
90
98
88
8C
86
ENDCHAR
STARTCHAR uni041B
ENCODING 1051
SWIDTH 615 0
DWIDTH 9 0
BBX 7 10 1 0
BITMAP
7E
66
66
46
46
46
46
46
46
86
ENDCHAR
STARTCHAR uni041C
ENCODING 1052
SWIDTH 755 0
DWIDTH 11 0
BBX 9 10 1 0
BITMAP
C180
C380
C380
A380
A780
A580
9580
9D80
9980
8980
ENDCHAR
STARTCHAR uni041D
ENCODING 1053
SWIDTH 620 0
DWIDTH 9 0
BBX 7 10 1 0
BITMAP
C2
C2
C2
C2
FE
C2
C2
C2
C2
C2
ENDCHAR
STARTCHAR uni041E
ENCODING 1054
SWIDTH 600 0
DWIDTH 8 0
BBX 6 10 1 0
BITMAP
78
CC
84
84
84
84
84
84
CC
78
ENDCHAR
STARTCHAR uni041F
ENCODING 1055
SWIDTH 620 0
DWIDTH 9 0
BBX 7 10 1 0
BITMAP
FE
86
86
86
86
86
86
86
86
86
ENDCHAR
STARTCHAR uni0420
ENCODING 1056
SWIDTH 554 0
DWIDTH 8 0
BBX 6 10 1 0
BITMAP
F8
84
84
84
84
F8
80
80
80
80
ENDCHAR
STARTCHAR uni0421
ENCODING 1057
SWIDTH 566 0
DWIDTH 8 0
BBX 6 10 1 0
BITMAP
78
C4
84
80
80
80
80
84
C4
78
ENDCHAR
STARTCHAR uni0422
ENCODING 1058
SWIDTH 520 0
DWIDTH 7 0
BBX 7 10 0 0
BITMAP
FE
10
10
10
10
10
10
10
10
10
ENDCHAR
STARTCHAR uni0423
ENCODING 1059
SWIDTH 547 0
DWIDTH 8 0
BBX 6 10 1 0
BITMAP
84
CC
48
48
78
30
30
30
20
60
ENDCHAR
STARTCHAR uni0424
ENCODING 1060
SWIDTH 676 0
DWIDTH 9 0
BBX 9 10 0 0
BITMAP
0800
3E00
4900
4900
C980
C980
4900
4900
3E00
0800
ENDCHAR
STARTCHAR uni0425
ENCODING 1061
SWIDTH 550 0
DWIDTH 8 0
BBX 7 10 0 0
BITMAP
42
64
24
38
18
18
38
24
64
C2
ENDCHAR
STARTCHAR uni0426
ENCODING 1062
SWIDTH 639 0
DWIDTH 9 0
BBX 7 12 1 -2
BITMAP
86
86
86
86
86
86
86
86
86
FE
02
02
ENDCHAR
STARTCHAR uni0427
ENCODING 1063
SWIDTH 600 0
DWIDTH 8 0
BBX 6 10 1 0
BITMAP
84
84
84
84
84
7C
04
04
04
04
ENDCHAR
STARTCHAR uni0428
ENCODING 1064
SWIDTH 814 0
DWIDTH 11 0
BBX 9 10 1 0
BITMAP
8880
8880
8880
8880
8880
8880
8880
8880
8880
FF80
ENDCHAR
STARTCHAR uni0429
ENCODING 1065
SWIDTH 841 0
DWIDTH 12 0
BBX 10 12 1 -2
BITMAP
8880
8880
8880
8880
8880
8880
8880
8880
8880
FFC0
0040
0040
ENDCHAR
STARTCHAR uni042A
ENCODING 1066
SWIDTH 651 0
DWIDTH 9 0
BBX 9 10 0 0
BITMAP
F000
3000
3000
3000
3E00
3100
3180
3180
3100
3E00
ENDCHAR
STARTCHAR uni042B
ENCODING 1067
SWIDTH 755 0
DWIDTH 11 0
BBX 9 10 1 0
BITMAP
C180
C180
C180
C180
F980
C580
C580
C580
C580
F980
ENDCHAR
STARTCHAR uni042C
ENCODING 1068
SWIDTH 551 0
DWIDTH 8 0
BBX 6 10 1 0
BITMAP
80
80
80
80
F8
84
84
84
84
F8
ENDCHAR
STARTCHAR uni042D
ENCODING 1069
SWIDTH 589 0
DWIDTH 8 0
BBX 6 10 1 0
BITMAP
78
CC
84
04
3C
04
04
84
CC
78
ENDCHAR
STARTCHAR uni042E
ENCODING 1070
SWIDTH 765 0
DWIDTH 11 0
BBX 9 10 1 0
BITMAP
CF00
D980
D080
D080
F080
D080
D080
D080
D980
CF00
ENDCHAR
STARTCHAR uni042F
ENCODING 1071
SWIDTH 562 0
DWIDTH 8 0
BBX 6 10 1 0
BITMAP
7C
CC
8C
8C
CC
7C
6C
4C
CC
8C
ENDCHAR
STARTCHAR uni0430
ENCODING 1072
SWIDTH 479 0
DWIDTH 7 0
BBX 5 8 1 0
BITMAP
70
88
08
78
C8
88
98
68
ENDCHAR
STARTCHAR uni0431
ENCODING 1073
SWIDTH 484 0
DWIDTH 7 0
BBX 5 11 1 0
BITMAP
08
38
60
80
F0
C8
88
88
88
C8
70
ENDCHAR
STARTCHAR uni0432
ENCODING 1074
SWIDTH 503 0
DWIDTH 7 0
BBX 5 8 1 0
BITMAP
F0
88
88
F0
88
88
88
F0
ENDCHAR
STARTCHAR uni0433
ENCODING 1075
SWIDTH 371 0
DWIDTH 5 0
BBX 4 8 1 0
BITMAP
F0
80
80
80
80
80
80
80
ENDCHAR
STARTCHAR uni0434
ENCODING 1076
SWIDTH 536 0
DWIDTH 8 0
BBX 6 10 1 -2
BITMAP
78
48
48
48
48
48
C8
FC
84
84
ENDCHAR
STARTCHAR uni0435
ENCODING 1077
SWIDTH 468 0
DWIDTH 7 0
BBX 5 8 1 0
BITMAP
70
C8
88
F8
80
80
C8
78
ENDCHAR
STARTCHAR uni0436
ENCODING 1078
SWIDTH 662 0
DWIDTH 9 0
BBX 9 8 0 0
BITMAP
C980
4900
2B00
2A00
3E00
2A00
6900
C980
ENDCHAR
STARTCHAR uni0437
ENCODING 1079
SWIDTH 446 0
DWIDTH 6 0
BBX 5 8 0 0
BITMAP
78
48
08
30
08
08
C8
78
ENDCHAR
STARTCHAR uni0438
ENCODING 1080
SWIDTH 509 0
DWIDTH 7 0
BBX 5 8 1 0
BITMAP
88
98
98
A8
A8
C8
C8
88
ENDCHAR
STARTCHAR uni0439
ENCODING 1081
SWIDTH 509 0
DWIDTH 7 0
BBX 5 11 1 0
BITMAP
58
70
00
88
98
98
A8
A8
C8
C8
88
ENDCHAR
STARTCHAR uni043A
ENCODING 1082
SWIDTH 479 0
DWIDTH 7 0
BBX 5 8 1 0
BITMAP
88
90
90
A0
E0
B0
90
88
ENDCHAR
STARTCHAR uni043B
ENCODING 1083
SWIDTH 509 0
DWIDTH 7 0
BBX 6 8 0 0
BITMAP
3C
24
24
24
24
24
44
C4
ENDCHAR
STARTCHAR uni043C
ENCODING 1084
SWIDTH 645 0
DWIDTH 9 0
BBX 7 8 1 0
BITMAP
C6
C6
C6
AA
AA
AA
92
92
ENDCHAR
STARTCHAR uni043D
ENCODING 1085
SWIDTH 508 0
DWIDTH 7 0
BBX 5 8 1 0
BITMAP
88
88
88
88
F8
88
88
88
ENDCHAR
STARTCHAR uni043E
ENCODING 1086
SWIDTH 501 0
DWIDTH 7 0
BBX 5 8 1 0
BITMAP
70
88
88
88
88
88
88
70
ENDCHAR
STARTCHAR uni043F
ENCODING 1087
SWIDTH 509 0
DWIDTH 7 0
BBX 5 8 1 0
BITMAP
F8
88
88
88
88
88
88
88
ENDCHAR
STARTCHAR uni0440
ENCODING 1088
SWIDTH 493 0
DWIDTH 7 0
BBX 5 11 1 -3
BITMAP
B0
C8
88
88
88
88
88
F0
80
80
80
ENDCHAR
STARTCHAR uni0441
ENCODING 1089
SWIDTH 461 0
DWIDTH 6 0
BBX 6 8 0 0
BITMAP
38
4C
C4
C0
C0
C0
4C
38
ENDCHAR
STARTCHAR uni0442
ENCODING 1090
SWIDTH 424 0
DWIDTH 6 0
BBX 6 8 0 0
BITMAP
FC
30
30
30
30
30
30
30
ENDCHAR
STARTCHAR uni0443
ENCODING 1091
SWIDTH 416 0
DWIDTH 6 0
BBX 6 11 0 -3
BITMAP
CC
48
48
48
30
30
30
30
20
20
40
ENDCHAR
STARTCHAR uni0444
ENCODING 1092
SWIDTH 628 0
DWIDTH 9 0
BBX 7 14 1 -3
BITMAP
10
10
10
7C
D6
92
92
92
92
92
7C
10
10
10
ENDCHAR
STARTCHAR uni0445
ENCODING 1093
SWIDTH 438 0
DWIDTH 6 0
BBX 6 8 0 0
BITMAP
CC
48
30
30
30
30
48
CC
ENDCHAR
STARTCHAR uni0446
ENCODING 1094
SWIDTH 524 0
DWIDTH 7 0
BBX 6 10 1 -2
BITMAP
88
88
88
88
88
88
88
FC
04
04
ENDCHAR
STARTCHAR uni0447
ENCODING 1095
SWIDTH 479 0
DWIDTH 7 0
BBX 5 8 1 0
BITMAP
88
88
88
88
78
08
08
08
ENDCHAR
STARTCHAR uni0448
ENCODING 1096
SWIDTH 703 0
DWIDTH 10 0
BBX 8 8 1 0
BITMAP
99
99
99
99
99
99
99
FF
ENDCHAR
STARTCHAR uni0449
ENCODING 1097
SWIDTH 722 0
DWIDTH 10 0
BBX 9 10 1 -2
BITMAP
9100
9100
9100
9100
9100
9100
9100
FF80
0180
0180
ENDCHAR
STARTCHAR uni044A
ENCODING 1098
SWIDTH 538 0
DWIDTH 8 0
BBX 7 8 0 0
BITMAP
F0
30
30
3E
32
32
32
3E
ENDCHAR
STARTCHAR uni044B
ENCODING 1099
SWIDTH 679 0
DWIDTH 10 0
BBX 8 8 1 0
BITMAP
83
83
83
FB
8B
8B
8B
F3
ENDCHAR
STARTCHAR uni044C
ENCODING 1100
SWIDTH 478 0
DWIDTH 7 0
BBX 5 8 1 0
BITMAP
80
80
80
F0
88
88
88
F0
ENDCHAR
STARTCHAR uni044D
ENCODING 1101
SWIDTH 472 0
DWIDTH 7 0
BBX 5 8 1 0
BITMAP
70
98
08
38
08
88
98
70
ENDCHAR
STARTCHAR uni044E
ENCODING 1102
SWIDTH 706 0
DWIDTH 10 0
BBX 8 8 1 0
BITMAP
8E
93
91
91
F1
91
93
8E
ENDCHAR
STARTCHAR uni044F
ENCODING 1103
SWIDTH 482 0
DWIDTH 7 0
BBX 6 8 0 0
BITMAP
3C
44
44
44
3C
24
44
C4
ENDCHAR
STARTCHAR uni0450
ENCODING 1104
SWIDTH 468 0
DWIDTH 7 0
BBX 5 11 1 0
BITMAP
C0
20
00
70
C8
88
F8
80
80
C8
78
ENDCHAR
STARTCHAR uni0451
ENCODING 1105
SWIDTH 468 0
DWIDTH 7 0
BBX 5 10 1 0
BITMAP
D8
00
70
C8
88
F8
80
80
C8
78
ENDCHAR
STARTCHAR uni0452
ENCODING 1106
SWIDTH 482 0
DWIDTH 7 0
BBX 6 14 0 -3
BITMAP
40
F0
40
58
64
44
44
44
44
44
44
04
04
18
ENDCHAR
STARTCHAR uni0453
ENCODING 1107
SWIDTH 371 0
DWIDTH 5 0
BBX 4 11 1 0
BITMAP
30
40
00
F0
80
80
80
80
80
80
80
ENDCHAR
STARTCHAR uni0454
ENCODING 1108
SWIDTH 472 0
DWIDTH 7 0
BBX 5 8 1 0
BITMAP
70
C8
88
E0
80
88
C8
70
ENDCHAR
STARTCHAR uni0455
ENCODING 1109
SWIDTH 455 0
DWIDTH 6 0
BBX 6 8 0 0
BITMAP
38
48
40
60
18
08
CC
78
ENDCHAR
STARTCHAR uni0456
ENCODING 1110
SWIDTH 229 0
DWIDTH 3 0
BBX 1 10 1 0
BITMAP
80
00
80
80
80
80
80
80
80
80
ENDCHAR
STARTCHAR uni0457
ENCODING 1111
SWIDTH 234 0
DWIDTH 3 0
BBX 5 10 -1 0
BITMAP
D8
00
20
20
20
20
20
20
20
20
ENDCHAR
STARTCHAR uni0458
ENCODING 1112
SWIDTH 223 0
DWIDTH 3 0
BBX 2 13 0 -3
BITMAP
40
00
40
40
40
40
40
40
40
40
40
40
C0
ENDCHAR
STARTCHAR uni0459
ENCODING 1113
SWIDTH 729 0
DWIDTH 10 0
BBX 10 8 0 0
BITMAP
3C00
2400
2400
2780
2480
64C0
4480
C780
ENDCHAR
STARTCHAR uni045A
ENCODING 1114
SWIDTH 743 0
DWIDTH 10 0
BBX 9 8 1 0
BITMAP
8800
8800
8800
FF00
8980
8880
8980
8F00
ENDCHAR
STARTCHAR uni045B
ENCODING 1115
SWIDTH 499 0
DWIDTH 7 0
BBX 6 11 0 0
BITMAP
40
F0
40
58
6C
44
44
44
44
44
44
ENDCHAR
STARTCHAR uni045C
ENCODING 1116
SWIDTH 479 0
DWIDTH 7 0
BBX 5 11 1 0
BITMAP
30
20
00
88
90
90
A0
E0
B0
90
88
ENDCHAR
STARTCHAR uni045D
ENCODING 1117
SWIDTH 509 0
DWIDTH 7 0
BBX 5 11 1 0
BITMAP
C0
20
00
88
98
98
A8
A8
C8
C8
88
ENDCHAR
STARTCHAR uni045E
ENCODING 1118
SWIDTH 416 0
DWIDTH 6 0
BBX 6 14 0 -3
BITMAP
48
30
00
CC
48
48
48
30
30
30
30
20
20
40
ENDCHAR
STARTCHAR uni045F
ENCODING 1119
SWIDTH 509 0
DWIDTH 7 0
BBX 5 10 1 -2
BITMAP
88
88
88
88
88
88
88
F8
20
20
ENDCHAR
STARTCHAR uni0460
ENCODING 1120
SWIDTH 754 0
DWIDTH 11 0
BBX 9 10 1 0
BITMAP
8880
8880
8880
8880
8880
8880
8880
8880
CD80
7700
ENDCHAR
STARTCHAR uni0461
ENCODING 1121
SWIDTH 650 0
DWIDTH 9 0
BBX 7 8 1 0
BITMAP
92
92
92
92
92
92
92
6E
ENDCHAR
STARTCHAR uni0462
ENCODING 1122
SWIDTH 551 0
DWIDTH 8 0
BBX 7 10 0 0
BITMAP
40
F0
40
40
7C
46
42
42
46
7C
ENDCHAR
STARTCHAR uni0463
ENCODING 1123
SWIDTH 477 0
DWIDTH 7 0
BBX 6 11 0 0
BITMAP
40
40
F0
40
40
40
78
44
44
44
78
ENDCHAR
STARTCHAR uni0464
ENCODING 1124
SWIDTH 772 0
DWIDTH 11 0
BBX 9 10 1 0
BITMAP
8F00
9980
9080
9000
FE00
B000
9000
9080
9980
8F00
ENDCHAR
STARTCHAR uni0465
ENCODING 1125
SWIDTH 646 0
DWIDTH 9 0
BBX 7 8 1 0
BITMAP
9C
92
A2
FC
A0
B2
92
9C
ENDCHAR
STARTCHAR uni0466
ENCODING 1126
SWIDTH 526 0
DWIDTH 7 0
BBX 7 10 0 0
BITMAP
18
18
18
38
24
24
7C
56
52
D2
ENDCHAR
STARTCHAR uni0467
ENCODING 1127
SWIDTH 470 0
DWIDTH 7 0
BBX 6 8 0 0
BITMAP
10
30
38
28
68
78
54
D4
ENDCHAR
STARTCHAR uni0468
ENCODING 1128
SWIDTH 759 0
DWIDTH 11 0
BBX 9 10 1 0
BITMAP
C600
C600
C600
CF00
C900
C900
FF00
D780
D680
F680
ENDCHAR
STARTCHAR uni0469
ENCODING 1129
SWIDTH 654 0
DWIDTH 9 0
BBX 8 8 1 0
BITMAP
88
8C
8C
94
96
FE
AA
AB
ENDCHAR
STARTCHAR uni046A
ENCODING 1130
SWIDTH 747 0
DWIDTH 10 0
BBX 8 10 1 0
BITMAP
7F
66
24
3C
7E
99
99
99
99
99
ENDCHAR
STARTCHAR uni046B
ENCODING 1131
SWIDTH 645 0
DWIDTH 9 0
BBX 7 8 1 0
BITMAP
7C
6C
28
28
7C
92
92
92
ENDCHAR
STARTCHAR uni046C
ENCODING 1132
SWIDTH 980 0
DWIDTH 14 0
BBX 12 10 1 0
BITMAP
CFE0
C440
C2C0
C280
FFE0
C930
D910
D910
D910
D910
ENDCHAR
STARTCHAR uni046D
ENCODING 1133
SWIDTH 856 0
DWIDTH 12 0
BBX 10 8 1 0
BITMAP
8F80
8D80
8500
8500
FF80
9240
9240
9240
ENDCHAR
STARTCHAR uni046E
ENCODING 1134
SWIDTH 454 0
DWIDTH 6 0
BBX 5 16 0 -3
BITMAP
78
30
00
70
08
08
08
70
08
08
08
08
70
C0
C0
40
ENDCHAR
STARTCHAR uni046F
ENCODING 1135
SWIDTH 423 0
DWIDTH 6 0
BBX 4 14 1 -3
BITMAP
B0
60
00
E0
10
10
60
10
10
10
E0
80
80
C0
ENDCHAR
STARTCHAR uni0470
ENCODING 1136
SWIDTH 600 0
DWIDTH 8 0
BBX 8 10 0 0
BITMAP
DB
DB
DB
DA
DA
5E
3C
18
18
18
ENDCHAR
STARTCHAR uni0471
ENCODING 1137
SWIDTH 612 0
DWIDTH 9 0
BBX 7 11 1 -3
BITMAP
96
92
92
92
92
92
56
7C
10
10
10
ENDCHAR
STARTCHAR uni0472
ENCODING 1138
SWIDTH 593 0
DWIDTH 8 0
BBX 6 10 1 0
BITMAP
78
CC
84
84
FC
84
84
84
CC
78
ENDCHAR
STARTCHAR uni0473
ENCODING 1139
SWIDTH 497 0
DWIDTH 7 0
BBX 5 8 1 0
BITMAP
70
88
88
F8
88
88
D8
70
ENDCHAR
STARTCHAR uni0474
ENCODING 1140
SWIDTH 553 0
DWIDTH 8 0
BBX 7 10 0 0
BITMAP
C2
42
44
64
24
24
28
18
18
18
ENDCHAR
STARTCHAR uni0475
ENCODING 1141
SWIDTH 443 0
DWIDTH 6 0
BBX 6 8 0 0
BITMAP
CC
48
48
48
30
30
30
30
ENDCHAR
STARTCHAR uni0476
ENCODING 1142
SWIDTH 553 0
DWIDTH 8 0
BBX 7 13 0 0
BITMAP
50
28
10
C2
42
44
64
24
24
28
18
18
18
ENDCHAR
STARTCHAR uni0477
ENCODING 1143
SWIDTH 443 0
DWIDTH 6 0
BBX 6 11 0 0
BITMAP
F0
70
00
CC
48
48
48
30
30
30
30
ENDCHAR
STARTCHAR uni0478
ENCODING 1144
SWIDTH 1017 0
DWIDTH 14 0
BBX 13 13 1 -3
BITMAP
7800
CC00
8488
8498
84D0
8450
8450
8470
CC20
7820
0020
0040
00C0
ENDCHAR
STARTCHAR uni0479
ENCODING 1145
SWIDTH 918 0
DWIDTH 13 0
BBX 12 11 1 -3
BITMAP
7330
8920
8920
89A0
88C0
88C0
88C0
70C0
0080
0080
0100
ENDCHAR
STARTCHAR uni047A
ENCODING 1146
SWIDTH 593 0
DWIDTH 8 0
BBX 6 12 1 -1
BITMAP
30
78
FC
84
84
84
84
84
84
FC
78
30
ENDCHAR
STARTCHAR uni047B
ENCODING 1147
SWIDTH 498 0
DWIDTH 7 0
BBX 5 10 1 -1
BITMAP
20
70
A8
88
88
88
88
A8
70
20
ENDCHAR
STARTCHAR uni047C
ENCODING 1148
SWIDTH 752 0
DWIDTH 11 0
BBX 9 13 1 0
BITMAP
1800
1600
0800
6B00
C180
C080
C080
C880
C880
C880
C880
CD80
7700
ENDCHAR
STARTCHAR uni047D
ENCODING 1149
SWIDTH 654 0
DWIDTH 9 0
BBX 7 11 1 0
BITMAP
30
2C
10
56
82
82
82
92
92
92
6E
ENDCHAR
STARTCHAR uni047E
ENCODING 1150
SWIDTH 754 0
DWIDTH 11 0
BBX 9 13 1 0
BITMAP
3E00
0800
0000
8880
8880
8880
8880
8880
8880
8880
8880
CD80
7700
ENDCHAR
STARTCHAR uni047F
ENCODING 1151
SWIDTH 650 0
DWIDTH 9 0
BBX 7 11 1 0
BITMAP
7C
10
00
92
92
92
92
92
92
92
6E
ENDCHAR
STARTCHAR uni0480
ENCODING 1152
SWIDTH 570 0
DWIDTH 8 0
BBX 6 13 1 -3
BITMAP
78
CC
84
80
80
80
80
80
C0
70
30
30
30
ENDCHAR
STARTCHAR uni0481
ENCODING 1153
SWIDTH 472 0
DWIDTH 7 0
BBX 5 11 1 -3
BITMAP
70
C8
88
80
80
80
C0
60
20
20
20
ENDCHAR
STARTCHAR uni0482
ENCODING 1154
SWIDTH 547 0
DWIDTH 8 0
BBX 6 9 1 0
BITMAP
0C
48
30
18
A4
E0
60
50
80
ENDCHAR
STARTCHAR uni0483
ENCODING 1155
SWIDTH 0 0
DWIDTH 0 0
BBX 4 3 -5 8
BITMAP
10
F0
80
ENDCHAR
STARTCHAR uni0484
ENCODING 1156
SWIDTH 0 0
DWIDTH 0 0
BBX 4 2 -5 9
BITMAP
30
D0
ENDCHAR
STARTCHAR uni0485
ENCODING 1157
SWIDTH 0 0
DWIDTH 0 0
BBX 2 2 -4 9
BITMAP
80
40
ENDCHAR
STARTCHAR uni0486
ENCODING 1158
SWIDTH 0 0
DWIDTH 0 0
BBX 1 2 -3 9
BITMAP
80
80
ENDCHAR
STARTCHAR uni0488
ENCODING 1160
SWIDTH 0 0
DWIDTH 0 0
BBX 13 13 -10 -3
BITMAP
0600
0500
6060
5050
0000
C018
A028
0000
0000
6060
5050
0600
0500
ENDCHAR
STARTCHAR uni0489
ENCODING 1161
SWIDTH 0 0
DWIDTH 0 0
BBX 12 13 -10 -3
BITMAP
0200
2200
2420
30C0
0000
0000
C030
4010
0000
2040
7040
0220
0400
ENDCHAR
STARTCHAR uni048A
ENCODING 1162
SWIDTH 666 0
DWIDTH 9 0
BBX 8 15 1 -2
BITMAP
24
38
00
86
86
8E
8E
96
B6
A6
E6
C6
C7
03
02
ENDCHAR
STARTCHAR uni048B
ENCODING 1163
SWIDTH 550 0
DWIDTH 8 0
BBX 6 13 1 -2
BITMAP
48
70
00
88
98
98
A8
A8
C8
C8
8C
04
0C
ENDCHAR
STARTCHAR uni048C
ENCODING 1164
SWIDTH 551 0
DWIDTH 8 0
BBX 7 10 0 0
BITMAP
40
F0
40
40
7C
46
42
42
46
7C
ENDCHAR
STARTCHAR uni048D
ENCODING 1165
SWIDTH 477 0
DWIDTH 7 0
BBX 6 11 0 0
BITMAP
40
F0
40
40
40
40
78
44
44
44
78
ENDCHAR
STARTCHAR uni048E
ENCODING 1166
SWIDTH 557 0
DWIDTH 8 0
BBX 7 10 1 0
BITMAP
F8
84
84
8C
8C
FC
86
80
80
80
ENDCHAR
STARTCHAR uni048F
ENCODING 1167
SWIDTH 496 0
DWIDTH 7 0
BBX 5 11 1 -3
BITMAP
F0
98
88
88
88
98
98
F8
80
80
80
ENDCHAR
STARTCHAR uni0490
ENCODING 1168
SWIDTH 479 0
DWIDTH 7 0
BBX 5 12 1 0
BITMAP
08
08
F8
80
80
80
80
80
80
80
80
80
ENDCHAR
STARTCHAR uni0491
ENCODING 1169
SWIDTH 395 0
DWIDTH 6 0
BBX 4 10 1 0
BITMAP
10
10
F0
80
80
80
80
80
80
80
ENDCHAR
STARTCHAR uni0492
ENCODING 1170
SWIDTH 487 0
DWIDTH 7 0
BBX 6 10 0 0
BITMAP
7C
40
40
40
F0
40
40
40
40
40
ENDCHAR
STARTCHAR uni0493
ENCODING 1171
SWIDTH 371 0
DWIDTH 5 0
BBX 5 8 0 0
BITMAP
78
40
40
F0
40
40
40
40
ENDCHAR
STARTCHAR uni0494
ENCODING 1172
SWIDTH 539 0
DWIDTH 8 0
BBX 6 12 1 -2
BITMAP
FC
C0
C0
C0
F8
C8
C4
C4
C4
C4
0C
18
ENDCHAR
STARTCHAR uni0495
ENCODING 1173
SWIDTH 443 0
DWIDTH 6 0
BBX 5 10 1 -2
BITMAP
F0
80
80
E0
90
90
98
90
10
20
ENDCHAR
STARTCHAR uni0496
ENCODING 1174
SWIDTH 833 0
DWIDTH 12 0
BBX 11 13 0 -3
BITMAP
4460
64C0
2480
1580
1F00
3580
2480
24C0
6440
4460
8020
0020
0020
ENDCHAR
STARTCHAR uni0497
ENCODING 1175
SWIDTH 696 0
DWIDTH 10 0
BBX 9 11 0 -3
BITMAP
C980
4900
2B00
2A00
3E00
2A00
6900
4980
8080
0080
0080
ENDCHAR
STARTCHAR uni0498
ENCODING 1176
SWIDTH 517 0
DWIDTH 7 0
BBX 7 13 0 -3
BITMAP
38
44
44
04
18
04
04
C6
44
38
10
10
10
ENDCHAR
STARTCHAR uni0499
ENCODING 1177
SWIDTH 446 0
DWIDTH 6 0
BBX 5 11 0 -3
BITMAP
78
48
08
30
08
08
C8
78
10
10
10
ENDCHAR
STARTCHAR uni049A
ENCODING 1178
SWIDTH 617 0
DWIDTH 9 0
BBX 7 13 1 -3
BITMAP
86
88
98
90
E0
90
98
88
8C
86
02
02
02
ENDCHAR
STARTCHAR uni049B
ENCODING 1179
SWIDTH 524 0
DWIDTH 7 0
BBX 6 11 1 -3
BITMAP
88
90
90
A0
E0
B0
90
8C
04
04
04
ENDCHAR
STARTCHAR uni049C
ENCODING 1180
SWIDTH 553 0
DWIDTH 8 0
BBX 7 10 1 0
BITMAP
84
8C
A8
B0
F0
B8
A8
88
8C
86
ENDCHAR
STARTCHAR uni049D
ENCODING 1181
SWIDTH 498 0
DWIDTH 7 0
BBX 6 8 1 0
BITMAP
8C
88
98
B0
F0
B0
88
8C
ENDCHAR
STARTCHAR uni049E
ENCODING 1182
SWIDTH 570 0
DWIDTH 8 0
BBX 8 10 0 0
BITMAP
63
66
FC
68
78
68
6C
64
66
63
ENDCHAR
STARTCHAR uni049F
ENCODING 1183
SWIDTH 462 0
DWIDTH 6 0
BBX 6 11 0 0
BITMAP
40
E0
40
4C
48
58
70
58
48
4C
44
ENDCHAR
STARTCHAR uni04A0
ENCODING 1184
SWIDTH 710 0
DWIDTH 10 0
BBX 10 10 0 0
BITMAP
F0C0
1180
1300
1200
1C00
1200
1300
1100
1180
10C0
ENDCHAR
STARTCHAR uni04A1
ENCODING 1185
SWIDTH 607 0
DWIDTH 9 0
BBX 7 8 1 0
BITMAP
E6
24
2C
28
38
2C
24
22
ENDCHAR
STARTCHAR uni04A2
ENCODING 1186
SWIDTH 662 0
DWIDTH 9 0
BBX 8 13 1 -3
BITMAP
C2
C2
C2
C2
FE
C2
C2
C2
C2
C3
03
03
03
ENDCHAR
STARTCHAR uni04A3
ENCODING 1187
SWIDTH 541 0
DWIDTH 8 0
BBX 6 11 1 -3
BITMAP
88
88
88
88
F8
88
88
8C
04
04
04
ENDCHAR
STARTCHAR uni04A4
ENCODING 1188
SWIDTH 829 0
DWIDTH 12 0
BBX 10 10 1 0
BITMAP
87C0
8600
8600
8600
FE00
8600
8600
8600
8600
8600
ENDCHAR
STARTCHAR uni04A5
ENCODING 1189
SWIDTH 614 0
DWIDTH 9 0
BBX 7 8 1 0
BITMAP
8E
88
88
88
F8
88
88
88
ENDCHAR
STARTCHAR uni04A6
ENCODING 1190
SWIDTH 880 0
DWIDTH 12 0
BBX 10 12 1 -2
BITMAP
FC00
8400
8400
8400
8780
84C0
8440
8440
8440
8440
0040
0080
ENDCHAR
STARTCHAR uni04A7
ENCODING 1191
SWIDTH 755 0
DWIDTH 11 0
BBX 9 10 1 -2
BITMAP
F800
8800
8800
8F00
8980
8880
8880
8880
0180
0100
ENDCHAR
STARTCHAR uni04A8
ENCODING 1192
SWIDTH 641 0
DWIDTH 9 0
BBX 7 10 1 0
BITMAP
4C
D2
92
92
92
92
92
92
4C
3E
ENDCHAR
STARTCHAR uni04A9
ENCODING 1193
SWIDTH 528 0
DWIDTH 7 0
BBX 6 8 1 0
BITMAP
D8
A8
A8
A8
A8
A8
98
7C
ENDCHAR
STARTCHAR uni04AA
ENCODING 1194
SWIDTH 566 0
DWIDTH 8 0
BBX 6 13 1 -3
BITMAP
78
C4
84
80
80
80
80
84
C4
78
30
30
30
ENDCHAR
STARTCHAR uni04AB
ENCODING 1195
SWIDTH 461 0
DWIDTH 6 0
BBX 6 11 0 -3
BITMAP
38
48
C4
C0
C0
C4
48
38
10
10
10
ENDCHAR
STARTCHAR uni04AC
ENCODING 1196
SWIDTH 520 0
DWIDTH 7 0
BBX 7 13 0 -3
BITMAP
FE
10
10
10
10
10
10
10
10
18
08
08
08
ENDCHAR
STARTCHAR uni04AD
ENCODING 1197
SWIDTH 424 0
DWIDTH 6 0
BBX 6 11 0 -3
BITMAP
FC
30
30
30
30
30
30
38
18
18
18
ENDCHAR
STARTCHAR uni04AE
ENCODING 1198
SWIDTH 524 0
DWIDTH 7 0
BBX 7 10 0 0
BITMAP
C2
44
64
2C
28
18
10
10
10
10
ENDCHAR
STARTCHAR uni04AF
ENCODING 1199
SWIDTH 444 0
DWIDTH 6 0
BBX 6 11 0 -3
BITMAP
CC
48
48
48
30
30
30
30
30
30
30
ENDCHAR
STARTCHAR uni04B0
ENCODING 1200
SWIDTH 524 0
DWIDTH 7 0
BBX 7 10 0 0
BITMAP
C6
44
44
28
28
38
10
10
10
10
ENDCHAR
STARTCHAR uni04B1
ENCODING 1201
SWIDTH 444 0
DWIDTH 6 0
BBX 6 11 0 -3
BITMAP
CC
48
48
48
38
30
30
78
30
30
30
ENDCHAR
STARTCHAR uni04B2
ENCODING 1202
SWIDTH 559 0
DWIDTH 8 0
BBX 8 13 0 -3
BITMAP
42
64
24
38
18
18
38
24
64
43
83
03
03
ENDCHAR
STARTCHAR uni04B3
ENCODING 1203
SWIDTH 465 0
DWIDTH 7 0
BBX 6 11 0 -3
BITMAP
CC
48
30
30
30
30
48
4C
84
04
04
ENDCHAR
STARTCHAR uni04B4
ENCODING 1204
SWIDTH 781 0
DWIDTH 11 0
BBX 10 12 0 -2
BITMAP
FC80
1080
1080
1080
1080
1080
1080
1080
1080
1FC0
0040
0040
ENDCHAR
STARTCHAR uni04B5
ENCODING 1205
SWIDTH 587 0
DWIDTH 8 0
BBX 8 10 0 -2
BITMAP
F2
22
22
22
22
22
22
3F
01
01
ENDCHAR
STARTCHAR uni04B6
ENCODING 1206
SWIDTH 638 0
DWIDTH 9 0
BBX 7 13 1 -3
BITMAP
84
84
84
84
84
7C
04
04
04
06
02
02
02
ENDCHAR
STARTCHAR uni04B7
ENCODING 1207
SWIDTH 512 0
DWIDTH 7 0
BBX 6 11 1 -3
BITMAP
88
88
88
88
78
08
08
0C
04
04
04
ENDCHAR
STARTCHAR uni04B8
ENCODING 1208
SWIDTH 595 0
DWIDTH 8 0
BBX 6 10 1 0
BITMAP
84
84
84
94
94
7C
14
14
04
04
ENDCHAR
STARTCHAR uni04B9
ENCODING 1209
SWIDTH 483 0
DWIDTH 7 0
BBX 5 8 1 0
BITMAP
88
88
A8
A8
78
28
08
08
ENDCHAR
STARTCHAR uni04BA
ENCODING 1210
SWIDTH 595 0
DWIDTH 8 0
BBX 6 10 1 0
BITMAP
80
80
80
80
F8
8C
84
84
84
84
ENDCHAR
STARTCHAR uni04BB
ENCODING 1211
SWIDTH 482 0
DWIDTH 7 0
BBX 5 11 1 0
BITMAP
80
80
80
B0
C8
88
88
88
88
88
88
ENDCHAR
STARTCHAR uni04BC
ENCODING 1212
SWIDTH 674 0
DWIDTH 9 0
BBX 8 10 0 0
BITMAP
0E
11
B1
61
7F
20
30
30
11
0F
ENDCHAR
STARTCHAR uni04BD
ENCODING 1213
SWIDTH 518 0
DWIDTH 7 0
BBX 7 8 0 0
BITMAP
38
24
C4
7E
40
60
24
1C
ENDCHAR
STARTCHAR uni04BE
ENCODING 1214
SWIDTH 674 0
DWIDTH 9 0
BBX 8 13 0 -3
BITMAP
0E
11
B1
61
7F
20
30
30
11
0F
04
04
04
ENDCHAR
STARTCHAR uni04BF
ENCODING 1215
SWIDTH 518 0
DWIDTH 7 0
BBX 7 11 0 -3
BITMAP
38
24
C4
7E
40
60
24
1C
08
08
08
ENDCHAR
STARTCHAR uni04C0
ENCODING 1216
SWIDTH 250 0
DWIDTH 4 0
BBX 1 10 1 0
BITMAP
80
80
80
80
80
80
80
80
80
80
ENDCHAR
STARTCHAR uni04C1
ENCODING 1217
SWIDTH 791 0
DWIDTH 11 0
BBX 11 13 0 0
BITMAP
1B00
0E00
0000
4460
64C0
2480
1580
1F00
3580
2480
24C0
6440
C460
ENDCHAR
STARTCHAR uni04C2
ENCODING 1218
SWIDTH 662 0
DWIDTH 9 0
BBX 9 11 0 0
BITMAP
1200
1C00
0000
C980
4900
2B00
2A00
3E00
2A00
6900
C980
ENDCHAR
STARTCHAR uni04C3
ENCODING 1219
SWIDTH 553 0
DWIDTH 8 0
BBX 6 12 1 -2
BITMAP
84
88
98
B0
F8
8C
84
84
84
84
04
08
ENDCHAR
STARTCHAR uni04C4
ENCODING 1220
SWIDTH 481 0
DWIDTH 7 0
BBX 5 10 1 -2
BITMAP
88
98
90
A0
F0
88
88
88
08
10
ENDCHAR
STARTCHAR uni04C5
ENCODING 1221
SWIDTH 662 0
DWIDTH 9 0
BBX 8 12 1 -2
BITMAP
7E
66
66
46
46
46
46
46
46
87
03
02
ENDCHAR
STARTCHAR uni04C6
ENCODING 1222
SWIDTH 551 0
DWIDTH 8 0
BBX 7 10 0 -2
BITMAP
3C
24
24
24
24
24
44
C6
02
02
ENDCHAR
STARTCHAR uni04C7
ENCODING 1223
SWIDTH 620 0
DWIDTH 9 0
BBX 7 13 1 -3
BITMAP
C6
C6
C6
C6
FE
C6
C6
C6
C6
C6
06
06
0C
ENDCHAR
STARTCHAR uni04C8
ENCODING 1224
SWIDTH 498 0
DWIDTH 7 0
BBX 5 11 1 -3
BITMAP
88
88
88
F8
88
88
88
88
08
08
30
ENDCHAR
STARTCHAR uni04C9
ENCODING 1225
SWIDTH 671 0
DWIDTH 9 0
BBX 8 12 1 -2
BITMAP
C2
C2
C2
C2
FE
C2
C2
C2
C2
C3
01
02
ENDCHAR
STARTCHAR uni04CA
ENCODING 1226
SWIDTH 550 0
DWIDTH 8 0
BBX 6 10 1 -2
BITMAP
88
88
88
88
F8
88
88
8C
04
0C
ENDCHAR
STARTCHAR uni04CB
ENCODING 1227
SWIDTH 600 0
DWIDTH 8 0
BBX 6 13 1 -3
BITMAP
84
84
84
84
84
7C
04
04
04
0C
08
08
08
ENDCHAR
STARTCHAR uni04CC
ENCODING 1228
SWIDTH 479 0
DWIDTH 7 0
BBX 5 11 1 -3
BITMAP
88
88
88
88
78
08
08
38
30
30
30
ENDCHAR
STARTCHAR uni04CD
ENCODING 1229
SWIDTH 801 0
DWIDTH 11 0
BBX 10 12 1 -2
BITMAP
C180
C380
C380
A380
A780
A580
9580
9D80
9980
89C0
00C0
0080
ENDCHAR
STARTCHAR uni04CE
ENCODING 1230
SWIDTH 687 0
DWIDTH 10 0
BBX 8 10 1 -2
BITMAP
C6
C6
C6
AA
AA
AA
92
93
01
03
ENDCHAR
STARTCHAR uni04CF
ENCODING 1231
SWIDTH 250 0
DWIDTH 4 0
BBX 1 10 1 0
BITMAP
80
80
80
80
80
80
80
80
80
80
ENDCHAR
STARTCHAR uni04D0
ENCODING 1232
SWIDTH 576 0
DWIDTH 8 0
BBX 8 13 0 0
BITMAP
24
1C
00
18
18
18
24
24
24
7E
42
42
C3
ENDCHAR
STARTCHAR uni04D1
ENCODING 1233
SWIDTH 479 0
DWIDTH 7 0
BBX 5 11 1 0
BITMAP
D8
70
00
70
88
08
78
C8
88
98
68
ENDCHAR
STARTCHAR uni04D2
ENCODING 1234
SWIDTH 576 0
DWIDTH 8 0
BBX 8 12 0 0
BITMAP
24
00
18
18
18
24
24
24
7E
42
42
C3
ENDCHAR
STARTCHAR uni04D3
ENCODING 1235
SWIDTH 479 0
DWIDTH 7 0
BBX 5 10 1 0
BITMAP
D8
00
70
88
08
78
C8
88
98
68
ENDCHAR
STARTCHAR uni04D4
ENCODING 1236
SWIDTH 812 0
DWIDTH 11 0
BBX 11 10 0 0
BITMAP
07E0
0A00
0A00
1200
13C0
2200
3E00
4200
4200
C3E0
ENDCHAR
STARTCHAR uni04D5
ENCODING 1237
SWIDTH 728 0
DWIDTH 10 0
BBX 10 8 0 0
BITMAP
7B80
4C80
0CC0
7FC0
4800
CC00
4C80
7380
ENDCHAR
STARTCHAR uni04D6
ENCODING 1238
SWIDTH 496 0
DWIDTH 7 0
BBX 5 13 1 0
BITMAP
48
70
00
F8
80
80
80
F8
80
80
80
80
F8
ENDCHAR
STARTCHAR uni04D7
ENCODING 1239
SWIDTH 468 0
DWIDTH 7 0
BBX 5 11 1 0
BITMAP
90
70
00
70
C8
88
F8
80
80
C8
78
ENDCHAR
STARTCHAR uni04D8
ENCODING 1240
SWIDTH 597 0
DWIDTH 8 0
BBX 7 10 0 0
BITMAP
78
46
02
02
02
FE
C2
42
46
3C
ENDCHAR
STARTCHAR uni04D9
ENCODING 1241
SWIDTH 465 0
DWIDTH 7 0
BBX 5 8 1 0
BITMAP
70
98
08
08
F8
88
D8
70
ENDCHAR
STARTCHAR uni04DA
ENCODING 1242
SWIDTH 597 0
DWIDTH 8 0
BBX 7 12 0 0
BITMAP
2C
00
78
46
02
02
02
FE
C2
42
46
3C
ENDCHAR
STARTCHAR uni04DB
ENCODING 1243
SWIDTH 465 0
DWIDTH 7 0
BBX 5 10 1 0
BITMAP
D8
00
70
98
08
08
F8
88
D8
70
ENDCHAR
STARTCHAR uni04DC
ENCODING 1244
SWIDTH 791 0
DWIDTH 11 0
BBX 11 12 0 0
BITMAP
1B00
0000
4460
64C0
2480
1580
1F00
3580
2480
24C0
6440
C460
ENDCHAR
STARTCHAR uni04DD
ENCODING 1245
SWIDTH 662 0
DWIDTH 9 0
BBX 9 10 0 0
BITMAP
3600
0000
C980
4900
2B00
2A00
3E00
2A00
6900
C980
ENDCHAR
STARTCHAR uni04DE
ENCODING 1246
SWIDTH 517 0
DWIDTH 7 0
BBX 7 12 0 0
BITMAP
6C
00
38
44
44
04
18
04
04
C6
44
38
ENDCHAR
STARTCHAR uni04DF
ENCODING 1247
SWIDTH 446 0
DWIDTH 6 0
BBX 5 10 0 0
BITMAP
48
00
78
48
08
30
08
08
C8
78
ENDCHAR
STARTCHAR uni04E0
ENCODING 1248
SWIDTH 510 0
DWIDTH 7 0
BBX 5 10 1 0
BITMAP
F8
10
30
20
70
08
08
88
88
70
ENDCHAR
STARTCHAR uni04E1
ENCODING 1249
SWIDTH 510 0
DWIDTH 7 0
BBX 5 11 1 -3
BITMAP
F8
18
10
20
20
70
08
08
88
88
70
ENDCHAR
STARTCHAR uni04E2
ENCODING 1250
SWIDTH 619 0
DWIDTH 9 0
BBX 7 12 1 0
BITMAP
78
00
86
86
8E
8E
96
B6
A6
E6
C6
C6
ENDCHAR
STARTCHAR uni04E3
ENCODING 1251
SWIDTH 509 0
DWIDTH 7 0
BBX 5 10 1 0
BITMAP
78
00
88
98
98
A8
A8
C8
C8
88
ENDCHAR
STARTCHAR uni04E4
ENCODING 1252
SWIDTH 619 0
DWIDTH 9 0
BBX 7 12 1 0
BITMAP
6C
00
86
86
8E
8E
96
B6
A6
E6
C6
C6
ENDCHAR
STARTCHAR uni04E5
ENCODING 1253
SWIDTH 509 0
DWIDTH 7 0
BBX 5 10 1 0
BITMAP
D8
00
88
98
98
A8
A8
C8
C8
88
ENDCHAR
STARTCHAR uni04E6
ENCODING 1254
SWIDTH 600 0
DWIDTH 8 0
BBX 6 12 1 0
BITMAP
68
00
78
CC
84
84
84
84
84
84
CC
78
ENDCHAR
STARTCHAR uni04E7
ENCODING 1255
SWIDTH 501 0
DWIDTH 7 0
BBX 5 10 1 0
BITMAP
D8
00
70
88
88
88
88
88
88
70
ENDCHAR
STARTCHAR uni04E8
ENCODING 1256
SWIDTH 593 0
DWIDTH 8 0
BBX 6 10 1 0
BITMAP
78
CC
84
84
FC
84
84
84
CC
78
ENDCHAR
STARTCHAR uni04E9
ENCODING 1257
SWIDTH 497 0
DWIDTH 7 0
BBX 5 8 1 0
BITMAP
70
88
88
F8
88
88
D8
70
ENDCHAR
STARTCHAR uni04EA
ENCODING 1258
SWIDTH 593 0
DWIDTH 8 0
BBX 6 12 1 0
BITMAP
68
04
78
CC
84
84
FC
84
84
84
CC
78
ENDCHAR
STARTCHAR uni04EB
ENCODING 1259
SWIDTH 497 0
DWIDTH 7 0
BBX 5 10 1 0
BITMAP
D8
00
70
88
88
F8
88
88
D8
70
ENDCHAR
STARTCHAR uni04EC
ENCODING 1260
SWIDTH 589 0
DWIDTH 8 0
BBX 6 12 1 0
BITMAP
48
00
78
CC
84
04
3C
04
04
84
CC
78
ENDCHAR
STARTCHAR uni04ED
ENCODING 1261
SWIDTH 472 0
DWIDTH 7 0
BBX 5 10 1 0
BITMAP
D8
00
70
98
08
38
08
88
98
70
ENDCHAR
STARTCHAR uni04EE
ENCODING 1262
SWIDTH 547 0
DWIDTH 8 0
BBX 6 12 1 0
BITMAP
78
00
84
CC
48
48
78
30
30
30
20
60
ENDCHAR
STARTCHAR uni04EF
ENCODING 1263
SWIDTH 416 0
DWIDTH 6 0
BBX 6 13 0 -3
BITMAP
78
00
CC
48
48
48
30
30
30
30
20
20
40
ENDCHAR
STARTCHAR uni04F0
ENCODING 1264
SWIDTH 547 0
DWIDTH 8 0
BBX 6 12 1 0
BITMAP
48
00
84
CC
48
48
78
30
30
30
20
60
ENDCHAR
STARTCHAR uni04F1
ENCODING 1265
SWIDTH 416 0
DWIDTH 6 0
BBX 6 13 0 -3
BITMAP
48
00
CC
48
48
48
30
30
30
30
20
20
40
ENDCHAR
STARTCHAR uni04F2
ENCODING 1266
SWIDTH 547 0
DWIDTH 8 0
BBX 6 13 1 0
BITMAP
3C
70
00
84
CC
48
48
78
30
30
30
20
60
ENDCHAR
STARTCHAR uni04F3
ENCODING 1267
SWIDTH 416 0
DWIDTH 6 0
BBX 6 14 0 -3
BITMAP
3C
38
00
CC
48
48
48
30
30
30
30
20
20
40
ENDCHAR
STARTCHAR uni04F4
ENCODING 1268
SWIDTH 600 0
DWIDTH 8 0
BBX 6 12 1 0
BITMAP
48
00
84
84
84
84
84
7C
04
04
04
04
ENDCHAR
STARTCHAR uni04F5
ENCODING 1269
SWIDTH 479 0
DWIDTH 7 0
BBX 5 10 1 0
BITMAP
90
00
88
88
88
88
78
08
08
08
ENDCHAR
STARTCHAR uni04F6
ENCODING 1270
SWIDTH 487 0
DWIDTH 7 0
BBX 5 13 1 -3
BITMAP
F8
80
80
80
80
80
80
80
80
C0
40
40
40
ENDCHAR
STARTCHAR uni04F7
ENCODING 1271
SWIDTH 371 0
DWIDTH 5 0
BBX 4 11 1 -3
BITMAP
F0
80
80
80
80
80
80
C0
40
40
40
ENDCHAR
STARTCHAR uni04F8
ENCODING 1272
SWIDTH 755 0
DWIDTH 11 0
BBX 8 12 1 0
BITMAP
34
02
C1
C1
C1
C1
F9
C5
C5
C5
C5
F9
ENDCHAR
STARTCHAR uni04F9
ENCODING 1273
SWIDTH 679 0
DWIDTH 10 0
BBX 7 10 1 0
BITMAP
6C
00
82
82
82
F2
8A
8A
8A
F2
ENDCHAR
STARTCHAR uni04FA
ENCODING 1274
SWIDTH 520 0
DWIDTH 7 0
BBX 6 13 1 -3
BITMAP
7C
40
40
40
40
E0
40
40
40
60
20
20
C0
ENDCHAR
STARTCHAR uni04FB
ENCODING 1275
SWIDTH 410 0
DWIDTH 6 0
BBX 5 11 1 -3
BITMAP
78
40
40
40
E0
40
40
60
20
60
C0
ENDCHAR
STARTCHAR uni04FC
ENCODING 1276
SWIDTH 570 0
DWIDTH 8 0
BBX 8 13 0 -3
BITMAP
42
64
24
38
18
18
38
24
64
43
83
03
06
ENDCHAR
STARTCHAR uni04FD
ENCODING 1277
SWIDTH 476 0
DWIDTH 7 0
BBX 6 11 0 -3
BITMAP
CC
48
30
30
30
30
48
4C
84
04
0C
ENDCHAR
STARTCHAR uni04FE
ENCODING 1278
SWIDTH 550 0
DWIDTH 8 0
BBX 7 10 0 0
BITMAP
42
64
24
18
3C
18
3C
24
66
C2
ENDCHAR
STARTCHAR uni04FF
ENCODING 1279
SWIDTH 438 0
DWIDTH 6 0
BBX 6 8 0 0
BITMAP
CC
48
30
78
30
78
48
CC
ENDCHAR
STARTCHAR uni0500
ENCODING 1280
SWIDTH 555 0
DWIDTH 8 0
BBX 6 10 1 0
BITMAP
04
04
04
04
7C
84
84
84
C4
7C
ENDCHAR
STARTCHAR uni0501
ENCODING 1281
SWIDTH 496 0
DWIDTH 7 0
BBX 5 11 1 0
BITMAP
08
08
08
68
98
88
88
88
88
88
78
ENDCHAR
STARTCHAR uni0502
ENCODING 1282
SWIDTH 723 0
DWIDTH 10 0
BBX 9 10 1 0
BITMAP
0C00
0C00
0C00
0C00
7C00
8D00
8D80
8D80
8D00
7F00
ENDCHAR
STARTCHAR uni0503
ENCODING 1283
SWIDTH 743 0
DWIDTH 10 0
BBX 9 11 0 0
BITMAP
0C00
0C00
0C00
3C00
4C00
4C80
CC80
CC80
4C80
4C80
3700
ENDCHAR
STARTCHAR uni0504
ENCODING 1284
SWIDTH 685 0
DWIDTH 10 0
BBX 8 10 1 0
BITMAP
F0
10
18
18
13
61
11
19
1B
0E
ENDCHAR
STARTCHAR uni0505
ENCODING 1285
SWIDTH 562 0
DWIDTH 8 0
BBX 7 8 0 0
BITMAP
F0
10
18
12
72
12
1A
0C
ENDCHAR
STARTCHAR uni0506
ENCODING 1286
SWIDTH 470 0
DWIDTH 7 0
BBX 5 12 1 -2
BITMAP
E0
10
10
10
10
E0
10
10
10
18
08
18
ENDCHAR
STARTCHAR uni0507
ENCODING 1287
SWIDTH 443 0
DWIDTH 6 0
BBX 5 10 1 -2
BITMAP
E0
30
10
30
E0
30
10
18
08
10
ENDCHAR
STARTCHAR uni0508
ENCODING 1288
SWIDTH 834 0
DWIDTH 12 0
BBX 10 10 1 0
BITMAP
7E00
6600
6600
6600
6640
6640
4640
4640
46C0
8380
ENDCHAR
STARTCHAR uni0509
ENCODING 1289
SWIDTH 698 0
DWIDTH 10 0
BBX 8 8 1 0
BITMAP
78
48
49
49
49
49
49
86
ENDCHAR
STARTCHAR uni050A
ENCODING 1290
SWIDTH 864 0
DWIDTH 12 0
BBX 10 10 1 0
BITMAP
8400
8400
8400
8400
FC40
8440
8440
8440
86C0
8380
ENDCHAR
STARTCHAR uni050B
ENCODING 1291
SWIDTH 716 0
DWIDTH 10 0
BBX 8 8 1 0
BITMAP
88
88
89
F9
89
89
89
86
ENDCHAR
STARTCHAR uni050C
ENCODING 1292
SWIDTH 541 0
DWIDTH 8 0
BBX 6 10 1 0
BITMAP
38
40
C0
80
80
84
84
C4
44
38
ENDCHAR
STARTCHAR uni050D
ENCODING 1293
SWIDTH 452 0
DWIDTH 6 0
BBX 5 8 1 0
BITMAP
70
80
80
80
90
98
90
70
ENDCHAR
STARTCHAR uni050E
ENCODING 1294
SWIDTH 616 0
DWIDTH 9 0
BBX 7 10 1 0
BITMAP
FC
20
20
20
22
22
22
22
36
1C
ENDCHAR
STARTCHAR uni050F
ENCODING 1295
SWIDTH 558 0
DWIDTH 8 0
BBX 6 8 1 0
BITMAP
F8
20
20
24
24
24
24
38
ENDCHAR
STARTCHAR uni0510
ENCODING 1296
SWIDTH 589 0
DWIDTH 8 0
BBX 6 10 1 0
BITMAP
78
C4
84
C0
70
C0
80
84
C4
78
ENDCHAR
STARTCHAR uni0511
ENCODING 1297
SWIDTH 470 0
DWIDTH 7 0
BBX 5 8 1 0
BITMAP
70
D8
88
80
70
80
88
70
ENDCHAR
STARTCHAR uni0512
ENCODING 1298
SWIDTH 664 0
DWIDTH 9 0
BBX 8 13 1 -3
BITMAP
7E
66
66
46
46
46
46
46
46
87
03
02
06
ENDCHAR
STARTCHAR uni0513
ENCODING 1299
SWIDTH 553 0
DWIDTH 8 0
BBX 7 11 0 -3
BITMAP
3C
24
24
24
24
24
44
C6
02
02
06
ENDCHAR
STARTCHAR uni1E00
ENCODING 7680
SWIDTH 576 0
DWIDTH 8 0
BBX 8 14 0 -4
BITMAP
18
18
18
24
24
24
7E
42
42
C3
00
18
18
18
ENDCHAR
STARTCHAR uni1E01
ENCODING 7681
SWIDTH 479 0
DWIDTH 7 0
BBX 5 12 1 -4
BITMAP
70
88
08
78
C8
88
98
68
00
60
A0
60
ENDCHAR
STARTCHAR uni1E3E
ENCODING 7742
SWIDTH 755 0
DWIDTH 11 0
BBX 9 13 1 0
BITMAP
0C00
0800
0000
C180
C380
C380
A380
A780
A580
9580
9D80
9980
8980
ENDCHAR
STARTCHAR uni1E3F
ENCODING 7743
SWIDTH 752 0
DWIDTH 11 0
BBX 9 11 1 0
BITMAP
0600
0800
0000
B700
C980
8880
8880
8880
8880
8880
8880
ENDCHAR
STARTCHAR Wgrave
ENCODING 7808
SWIDTH 761 0
DWIDTH 11 0
BBX 10 13 0 0
BITMAP
1800
0400
0000
C440
4440
4C40
4AC0
6A80
2A80
3280
3180
3180
3100
ENDCHAR
STARTCHAR wgrave
ENCODING 7809
SWIDTH 649 0
DWIDTH 9 0
BBX 9 11 0 0
BITMAP
3000
0800
0000
C980
4900
5500
5500
5500
3600
2200
2200
ENDCHAR
STARTCHAR Wacute
ENCODING 7810
SWIDTH 761 0
DWIDTH 11 0
BBX 10 13 0 0
BITMAP
0300
0400
0000
C440
4440
4C40
4AC0
6A80
2A80
3280
3180
3180
3100
ENDCHAR
STARTCHAR wacute
ENCODING 7811
SWIDTH 649 0
DWIDTH 9 0
BBX 9 11 0 0
BITMAP
0600
0800
0000
C980
4900
5500
5500
5500
3600
2200
2200
ENDCHAR
STARTCHAR Wdieresis
ENCODING 7812
SWIDTH 761 0
DWIDTH 11 0
BBX 10 12 0 0
BITMAP
1B00
0000
C440
4440
4C40
4AC0
6A80
2A80
3280
3180
3180
3100
ENDCHAR
STARTCHAR wdieresis
ENCODING 7813
SWIDTH 649 0
DWIDTH 9 0
BBX 9 10 0 0
BITMAP
3600
0000
C980
4900
5500
5500
5500
3600
2200
2200
ENDCHAR
STARTCHAR uni1EA0
ENCODING 7840
SWIDTH 576 0
DWIDTH 8 0
BBX 8 12 0 -2
BITMAP
18
18
18
24
24
24
7E
42
42
C3
00
18
ENDCHAR
STARTCHAR uni1EA1
ENCODING 7841
SWIDTH 479 0
DWIDTH 7 0
BBX 5 10 1 -2
BITMAP
70
88
08
78
C8
88
98
68
00
60
ENDCHAR
STARTCHAR uni1EA2
ENCODING 7842
SWIDTH 576 0
DWIDTH 8 0
BBX 8 14 0 0
BITMAP
08
08
08
00
18
18
18
24
24
24
7E
42
42
C3
ENDCHAR
STARTCHAR uni1EA3
ENCODING 7843
SWIDTH 479 0
DWIDTH 7 0
BBX 5 12 1 0
BITMAP
20
10
20
00
70
88
08
78
C8
88
98
68
ENDCHAR
STARTCHAR uni1EA4
ENCODING 7844
SWIDTH 576 0
DWIDTH 8 0
BBX 8 14 0 0
BITMAP
03
1A
34
00
18
18
18
24
24
24
7E
42
42
C3
ENDCHAR
STARTCHAR uni1EA5
ENCODING 7845
SWIDTH 479 0
DWIDTH 7 0
BBX 6 12 1 0
BITMAP
04
78
D8
00
70
88
08
78
C8
88
98
68
ENDCHAR
STARTCHAR uni1EA6
ENCODING 7846
SWIDTH 576 0
DWIDTH 8 0
BBX 8 14 0 0
BITMAP
C0
58
34
00
18
18
18
24
24
24
7E
42
42
C3
ENDCHAR
STARTCHAR uni1EA7
ENCODING 7847
SWIDTH 479 0
DWIDTH 7 0
BBX 6 12 0 0
BITMAP
80
78
6C
00
38
44
04
3C
64
44
4C
34
ENDCHAR
STARTCHAR uni1EA8
ENCODING 7848
SWIDTH 576 0
DWIDTH 8 0
BBX 8 15 0 0
BITMAP
02
02
1C
24
00
18
18
18
24
24
24
7E
42
42
C3
ENDCHAR
STARTCHAR uni1EA9
ENCODING 7849
SWIDTH 479 0
DWIDTH 7 0
BBX 6 13 1 0
BITMAP
08
04
78
D8
00
70
88
08
78
C8
88
98
68
ENDCHAR
STARTCHAR uni1EAA
ENCODING 7850
SWIDTH 576 0
DWIDTH 8 0
BBX 8 16 0 0
BITMAP
14
28
00
18
24
00
18
18
18
24
24
24
7E
42
42
C3
ENDCHAR
STARTCHAR uni1EAB
ENCODING 7851
SWIDTH 479 0
DWIDTH 7 0
BBX 5 14 1 0
BITMAP
50
B0
00
60
D8
00
70
88
08
78
C8
88
98
68
ENDCHAR
STARTCHAR uni1EAC
ENCODING 7852
SWIDTH 576 0
DWIDTH 8 0
BBX 8 15 0 -2
BITMAP
18
34
00
18
18
18
24
24
24
7E
42
42
C3
00
18
ENDCHAR
STARTCHAR uni1EAD
ENCODING 7853
SWIDTH 479 0
DWIDTH 7 0
BBX 5 13 1 -2
BITMAP
20
50
00
70
88
08
78
C8
88
98
68
00
60
ENDCHAR
STARTCHAR uni1EAE
ENCODING 7854
SWIDTH 576 0
DWIDTH 8 0
BBX 8 15 0 0
BITMAP
08
08
24
18
00
18
18
18
24
24
24
7E
42
42
C3
ENDCHAR
STARTCHAR uni1EAF
ENCODING 7855
SWIDTH 479 0
DWIDTH 7 0
BBX 5 13 1 0
BITMAP
30
20
50
70
00
70
88
08
78
C8
88
98
68
ENDCHAR
STARTCHAR uni1EB0
ENCODING 7856
SWIDTH 576 0
DWIDTH 8 0
BBX 8 15 0 0
BITMAP
10
10
24
18
00
18
18
18
24
24
24
7E
42
42
C3
ENDCHAR
STARTCHAR uni1EB1
ENCODING 7857
SWIDTH 479 0
DWIDTH 7 0
BBX 5 13 1 0
BITMAP
40
20
50
70
00
70
88
08
78
C8
88
98
68
ENDCHAR
STARTCHAR uni1EB2
ENCODING 7858
SWIDTH 576 0
DWIDTH 8 0
BBX 8 16 0 0
BITMAP
08
08
10
24
18
00
18
18
18
24
24
24
7E
42
42
C3
ENDCHAR
STARTCHAR uni1EB3
ENCODING 7859
SWIDTH 479 0
DWIDTH 7 0
BBX 5 14 1 0
BITMAP
20
10
20
50
70
00
70
88
08
78
C8
88
98
68
ENDCHAR
STARTCHAR uni1EB4
ENCODING 7860
SWIDTH 576 0
DWIDTH 8 0
BBX 8 16 0 0
BITMAP
14
28
00
24
18
00
18
18
18
24
24
24
7E
42
42
C3
ENDCHAR
STARTCHAR uni1EB5
ENCODING 7861
SWIDTH 479 0
DWIDTH 7 0
BBX 5 14 1 0
BITMAP
70
B0
00
50
70
00
70
88
08
78
C8
88
98
68
ENDCHAR
STARTCHAR uni1EB6
ENCODING 7862
SWIDTH 576 0
DWIDTH 8 0
BBX 8 15 0 -2
BITMAP
24
1C
00
18
18
18
24
24
24
7E
42
42
C3
00
18
ENDCHAR
STARTCHAR uni1EB7
ENCODING 7863
SWIDTH 479 0
DWIDTH 7 0
BBX 5 13 1 -2
BITMAP
D8
70
00
70
88
08
78
C8
88
98
68
00
60
ENDCHAR
STARTCHAR uni1EB8
ENCODING 7864
SWIDTH 496 0
DWIDTH 7 0
BBX 5 12 1 -2
BITMAP
F8
80
80
80
F8
80
80
80
80
F8
00
20
ENDCHAR
STARTCHAR uni1EB9
ENCODING 7865
SWIDTH 468 0
DWIDTH 7 0
BBX 5 10 1 -2
BITMAP
70
C8
88
F8
80
80
C8
78
00
20
ENDCHAR
STARTCHAR uni1EBA
ENCODING 7866
SWIDTH 496 0
DWIDTH 7 0
BBX 5 14 1 0
BITMAP
30
10
20
00
F8
80
80
80
F8
80
80
80
80
F8
ENDCHAR
STARTCHAR uni1EBB
ENCODING 7867
SWIDTH 468 0
DWIDTH 7 0
BBX 5 12 1 0
BITMAP
20
10
20
00
70
C8
88
F8
80
80
C8
78
ENDCHAR
STARTCHAR uni1EBC
ENCODING 7868
SWIDTH 496 0
DWIDTH 7 0
BBX 5 13 1 0
BITMAP
68
90
00
F8
80
80
80
F8
80
80
80
80
F8
ENDCHAR
STARTCHAR uni1EBD
ENCODING 7869
SWIDTH 468 0
DWIDTH 7 0
BBX 5 11 1 0
BITMAP
50
B0
00
70
C8
88
F8
80
80
C8
78
ENDCHAR
STARTCHAR uni1EBE
ENCODING 7870
SWIDTH 496 0
DWIDTH 7 0
BBX 7 14 1 0
BITMAP
06
3C
58
00
F8
80
80
80
F8
80
80
80
80
F8
ENDCHAR
STARTCHAR uni1EBF
ENCODING 7871
SWIDTH 468 0
DWIDTH 7 0
BBX 6 12 1 0
BITMAP
04
68
D8
00
70
C8
88
F8
80
80
C8
78
ENDCHAR
STARTCHAR uni1EC0
ENCODING 7872
SWIDTH 496 0
DWIDTH 7 0
BBX 6 14 0 0
BITMAP
80
58
6C
00
7C
40
40
40
7C
40
40
40
40
7C
ENDCHAR
STARTCHAR uni1EC1
ENCODING 7873
SWIDTH 468 0
DWIDTH 7 0
BBX 6 12 0 0
BITMAP
80
F0
6C
00
38
64
44
7C
40
40
64
3C
ENDCHAR
STARTCHAR uni1EC2
ENCODING 7874
SWIDTH 496 0
DWIDTH 7 0
BBX 6 15 1 0
BITMAP
0C
04
38
D8
00
F8
80
80
80
F8
80
80
80
80
F8
ENDCHAR
STARTCHAR uni1EC3
ENCODING 7875
SWIDTH 468 0
DWIDTH 7 0
BBX 5 13 1 0
BITMAP
08
08
78
D8
00
70
C8
88
F8
80
80
C8
78
ENDCHAR
STARTCHAR uni1EC4
ENCODING 7876
SWIDTH 496 0
DWIDTH 7 0
BBX 5 16 1 0
BITMAP
70
50
00
30
D8
00
F8
80
80
80
F8
80
80
80
80
F8
ENDCHAR
STARTCHAR uni1EC5
ENCODING 7877
SWIDTH 468 0
DWIDTH 7 0
BBX 5 14 1 0
BITMAP
50
B0
00
60
D8
00
70
C8
88
F8
80
80
C8
78
ENDCHAR
STARTCHAR uni1EC6
ENCODING 7878
SWIDTH 496 0
DWIDTH 7 0
BBX 5 15 1 -2
BITMAP
30
50
00
F8
80
80
80
F8
80
80
80
80
F8
00
20
ENDCHAR
STARTCHAR uni1EC7
ENCODING 7879
SWIDTH 468 0
DWIDTH 7 0
BBX 5 13 1 -2
BITMAP
20
50
00
70
C8
88
F8
80
80
C8
78
00
20
ENDCHAR
STARTCHAR uni1EC8
ENCODING 7880
SWIDTH 250 0
DWIDTH 4 0
BBX 2 14 1 0
BITMAP
C0
40
80
00
80
80
80
80
80
80
80
80
80
80
ENDCHAR
STARTCHAR uni1EC9
ENCODING 7881
SWIDTH 234 0
DWIDTH 3 0
BBX 2 12 1 0
BITMAP
C0
40
80
00
80
80
80
80
80
80
80
80
ENDCHAR
STARTCHAR uni1ECA
ENCODING 7882
SWIDTH 250 0
DWIDTH 4 0
BBX 1 12 1 -2
BITMAP
80
80
80
80
80
80
80
80
80
80
00
80
ENDCHAR
STARTCHAR uni1ECB
ENCODING 7883
SWIDTH 229 0
DWIDTH 3 0
BBX 1 12 1 -2
BITMAP
80
00
80
80
80
80
80
80
80
80
00
80
ENDCHAR
STARTCHAR uni1ECC
ENCODING 7884
SWIDTH 600 0
DWIDTH 8 0
BBX 6 12 1 -2
BITMAP
78
CC
84
84
84
84
84
84
CC
78
00
30
ENDCHAR
STARTCHAR uni1ECD
ENCODING 7885
SWIDTH 501 0
DWIDTH 7 0
BBX 5 10 1 -2
BITMAP
70
88
88
88
88
88
88
70
00
20
ENDCHAR
STARTCHAR uni1ECE
ENCODING 7886
SWIDTH 600 0
DWIDTH 8 0
BBX 6 14 1 0
BITMAP
10
08
10
00
78
CC
84
84
84
84
84
84
CC
78
ENDCHAR
STARTCHAR uni1ECF
ENCODING 7887
SWIDTH 501 0
DWIDTH 7 0
BBX 5 12 1 0
BITMAP
20
10
20
00
70
88
88
88
88
88
88
70
ENDCHAR
STARTCHAR uni1ED0
ENCODING 7888
SWIDTH 600 0
DWIDTH 8 0
BBX 7 14 1 0
BITMAP
02
34
68
00
78
CC
84
84
84
84
84
84
CC
78
ENDCHAR
STARTCHAR uni1ED1
ENCODING 7889
SWIDTH 501 0
DWIDTH 7 0
BBX 6 12 1 0
BITMAP
04
78
D8
00
70
88
88
88
88
88
88
70
ENDCHAR
STARTCHAR uni1ED2
ENCODING 7890
SWIDTH 600 0
DWIDTH 8 0
BBX 7 14 0 0
BITMAP
C0
58
34
00
3C
66
42
42
42
42
42
42
66
3C
ENDCHAR
STARTCHAR uni1ED3
ENCODING 7891
SWIDTH 501 0
DWIDTH 7 0
BBX 6 12 0 0
BITMAP
80
F0
6C
00
38
44
44
44
44
44
44
38
ENDCHAR
STARTCHAR uni1ED4
ENCODING 7892
SWIDTH 600 0
DWIDTH 8 0
BBX 6 15 1 0
BITMAP
04
04
34
48
00
78
CC
84
84
84
84
84
84
CC
78
ENDCHAR
STARTCHAR uni1ED5
ENCODING 7893
SWIDTH 501 0
DWIDTH 7 0
BBX 6 13 1 0
BITMAP
08
04
78
D8
00
70
88
88
88
88
88
88
70
ENDCHAR
STARTCHAR uni1ED6
ENCODING 7894
SWIDTH 600 0
DWIDTH 8 0
BBX 6 16 1 0
BITMAP
28
50
00
30
68
00
78
CC
84
84
84
84
84
84
CC
78
ENDCHAR
STARTCHAR uni1ED7
ENCODING 7895
SWIDTH 501 0
DWIDTH 7 0
BBX 5 14 1 0
BITMAP
50
B0
00
60
D8
00
70
88
88
88
88
88
88
70
ENDCHAR
STARTCHAR uni1ED8
ENCODING 7896
SWIDTH 600 0
DWIDTH 8 0
BBX 6 15 1 -2
BITMAP
30
68
00
78
CC
84
84
84
84
84
84
CC
78
00
30
ENDCHAR
STARTCHAR uni1ED9
ENCODING 7897
SWIDTH 501 0
DWIDTH 7 0
BBX 5 13 1 -2
BITMAP
20
50
00
70
88
88
88
88
88
88
70
00
20
ENDCHAR
STARTCHAR uni1EDA
ENCODING 7898
SWIDTH 592 0
DWIDTH 8 0
BBX 7 13 1 0
BITMAP
18
30
02
7A
CC
84
84
84
84
84
84
CC
78
ENDCHAR
STARTCHAR uni1EDB
ENCODING 7899
SWIDTH 502 0
DWIDTH 7 0
BBX 6 11 1 0
BITMAP
18
20
04
74
9C
88
88
88
88
98
70
ENDCHAR
STARTCHAR uni1EDC
ENCODING 7900
SWIDTH 592 0
DWIDTH 8 0
BBX 7 13 1 0
BITMAP
60
30
02
7A
CC
84
84
84
84
84
84
CC
78
ENDCHAR
STARTCHAR uni1EDD
ENCODING 7901
SWIDTH 502 0
DWIDTH 7 0
BBX 6 11 1 0
BITMAP
C0
20
04
74
9C
88
88
88
88
98
70
ENDCHAR
STARTCHAR uni1EDE
ENCODING 7902
SWIDTH 592 0
DWIDTH 8 0
BBX 7 14 1 0
BITMAP
10
10
10
02
7A
CC
84
84
84
84
84
84
CC
78
ENDCHAR
STARTCHAR uni1EDF
ENCODING 7903
SWIDTH 502 0
DWIDTH 7 0
BBX 6 12 1 0
BITMAP
20
10
20
04
74
9C
88
88
88
88
98
70
ENDCHAR
STARTCHAR uni1EE0
ENCODING 7904
SWIDTH 592 0
DWIDTH 8 0
BBX 7 13 1 0
BITMAP
68
58
02
7A
CC
84
84
84
84
84
84
CC
78
ENDCHAR
STARTCHAR uni1EE1
ENCODING 7905
SWIDTH 502 0
DWIDTH 7 0
BBX 6 11 1 0
BITMAP
48
B0
04
74
9C
88
88
88
88
98
70
ENDCHAR
STARTCHAR uni1EE2
ENCODING 7906
SWIDTH 592 0
DWIDTH 8 0
BBX 7 13 1 -2
BITMAP
02
7A
CC
84
84
84
84
84
84
CC
78
00
30
ENDCHAR
STARTCHAR uni1EE3
ENCODING 7907
SWIDTH 502 0
DWIDTH 7 0
BBX 6 11 1 -2
BITMAP
04
74
9C
88
88
88
88
98
70
00
20
ENDCHAR
STARTCHAR uni1EE4
ENCODING 7908
SWIDTH 561 0
DWIDTH 8 0
BBX 6 12 1 -2
BITMAP
84
84
84
84
84
84
84
84
CC
78
00
30
ENDCHAR
STARTCHAR uni1EE5
ENCODING 7909
SWIDTH 483 0
DWIDTH 7 0
BBX 5 10 1 -2
BITMAP
88
88
88
88
88
88
98
68
00
60
ENDCHAR
STARTCHAR uni1EE6
ENCODING 7910
SWIDTH 561 0
DWIDTH 8 0
BBX 6 14 1 0
BITMAP
30
10
10
00
84
84
84
84
84
84
84
84
CC
78
ENDCHAR
STARTCHAR uni1EE7
ENCODING 7911
SWIDTH 483 0
DWIDTH 7 0
BBX 5 12 1 0
BITMAP
20
10
20
00
88
88
88
88
88
88
98
68
ENDCHAR
STARTCHAR uni1EE8
ENCODING 7912
SWIDTH 608 0
DWIDTH 9 0
BBX 8 13 1 0
BITMAP
18
30
01
85
87
84
84
84
84
84
84
4C
78
ENDCHAR
STARTCHAR uni1EE9
ENCODING 7913
SWIDTH 549 0
DWIDTH 8 0
BBX 7 11 1 0
BITMAP
18
20
00
8A
8C
88
88
88
88
98
78
ENDCHAR
STARTCHAR uni1EEA
ENCODING 7914
SWIDTH 608 0
DWIDTH 9 0
BBX 8 13 1 0
BITMAP
60
30
01
85
87
84
84
84
84
84
84
4C
78
ENDCHAR
STARTCHAR uni1EEB
ENCODING 7915
SWIDTH 549 0
DWIDTH 8 0
BBX 7 11 1 0
BITMAP
C0
20
00
8A
8C
88
88
88
88
98
78
ENDCHAR
STARTCHAR uni1EEC
ENCODING 7916
SWIDTH 608 0
DWIDTH 9 0
BBX 8 14 1 0
BITMAP
10
10
10
01
85
87
84
84
84
84
84
84
4C
78
ENDCHAR
STARTCHAR uni1EED
ENCODING 7917
SWIDTH 549 0
DWIDTH 8 0
BBX 7 12 1 0
BITMAP
20
10
20
00
8A
8C
88
88
88
88
98
78
ENDCHAR
STARTCHAR uni1EEE
ENCODING 7918
SWIDTH 608 0
DWIDTH 9 0
BBX 8 13 1 0
BITMAP
68
58
01
85
87
84
84
84
84
84
84
4C
78
ENDCHAR
STARTCHAR uni1EEF
ENCODING 7919
SWIDTH 549 0
DWIDTH 8 0
BBX 7 11 1 0
BITMAP
58
B0
00
8A
8C
88
88
88
88
98
78
ENDCHAR
STARTCHAR uni1EF0
ENCODING 7920
SWIDTH 608 0
DWIDTH 9 0
BBX 8 13 1 -2
BITMAP
01
85
87
84
84
84
84
84
84
4C
78
00
30
ENDCHAR
STARTCHAR uni1EF1
ENCODING 7921
SWIDTH 549 0
DWIDTH 8 0
BBX 7 10 1 -2
BITMAP
8A
8C
88
88
88
88
98
78
00
20
ENDCHAR
STARTCHAR Ygrave
ENCODING 7922
SWIDTH 524 0
DWIDTH 7 0
BBX 7 13 0 0
BITMAP
30
10
00
C2
44
64
2C
28
18
10
10
10
10
ENDCHAR
STARTCHAR ygrave
ENCODING 7923
SWIDTH 416 0
DWIDTH 6 0
BBX 6 14 0 -3
BITMAP
60
30
00
CC
48
48
48
30
30
30
30
20
20
40
ENDCHAR
STARTCHAR uni1EF4
ENCODING 7924
SWIDTH 524 0
DWIDTH 7 0
BBX 7 12 0 -2
BITMAP
C2
44
64
2C
28
18
10
10
10
10
00
10
ENDCHAR
STARTCHAR uni1EF5
ENCODING 7925
SWIDTH 416 0
DWIDTH 6 0
BBX 6 11 0 -3
BITMAP
CC
48
48
48
30
30
30
30
20
20
58
ENDCHAR
STARTCHAR uni1EF6
ENCODING 7926
SWIDTH 524 0
DWIDTH 7 0
BBX 7 14 0 0
BITMAP
18
08
10
00
C2
44
64
2C
28
18
10
10
10
10
ENDCHAR
STARTCHAR uni1EF7
ENCODING 7927
SWIDTH 416 0
DWIDTH 6 0
BBX 6 15 0 -3
BITMAP
10
10
10
00
CC
48
48
48
30
30
30
30
20
20
40
ENDCHAR
STARTCHAR uni1EF8
ENCODING 7928
SWIDTH 524 0
DWIDTH 7 0
BBX 7 13 0 0
BITMAP
34
48
00
C2
44
64
2C
28
18
10
10
10
10
ENDCHAR
STARTCHAR uni1EF9
ENCODING 7929
SWIDTH 416 0
DWIDTH 6 0
BBX 6 14 0 -3
BITMAP
68
58
00
CC
48
48
48
30
30
30
30
20
20
40
ENDCHAR
STARTCHAR uni1F4D
ENCODING 8013
SWIDTH 634 0
DWIDTH 9 0
BBX 11 10 -3 0
BITMAP
B380
6440
0C60
0820
0820
0820
0820
0C60
0440
0380
ENDCHAR
STARTCHAR uni2000
ENCODING 8192
SWIDTH 447 0
DWIDTH 6 0
BBX 1 1 0 0
BITMAP
00
ENDCHAR
STARTCHAR uni2001
ENCODING 8193
SWIDTH 876 0
DWIDTH 12 0
BBX 1 1 0 0
BITMAP
00
ENDCHAR
STARTCHAR uni2002
ENCODING 8194
SWIDTH 447 0
DWIDTH 6 0
BBX 1 1 0 0
BITMAP
00
ENDCHAR
STARTCHAR uni2003
ENCODING 8195
SWIDTH 876 0
DWIDTH 12 0
BBX 1 1 0 0
BITMAP
00
ENDCHAR
STARTCHAR uni2004
ENCODING 8196
SWIDTH 305 0
DWIDTH 4 0
BBX 1 1 0 0
BITMAP
00
ENDCHAR
STARTCHAR uni2005
ENCODING 8197
SWIDTH 233 0
DWIDTH 3 0
BBX 1 1 0 0
BITMAP
00
ENDCHAR
STARTCHAR uni2006
ENCODING 8198
SWIDTH 162 0
DWIDTH 2 0
BBX 1 1 0 0
BITMAP
00
ENDCHAR
STARTCHAR uni2007
ENCODING 8199
SWIDTH 491 0
DWIDTH 7 0
BBX 1 1 0 0
BITMAP
00
ENDCHAR
STARTCHAR uni2008
ENCODING 8200
SWIDTH 249 0
DWIDTH 3 0
BBX 1 1 0 0
BITMAP
00
ENDCHAR
STARTCHAR uni2009
ENCODING 8201
SWIDTH 190 0
DWIDTH 3 0
BBX 1 1 0 0
BITMAP
00
ENDCHAR
STARTCHAR uni200A
ENCODING 8202
SWIDTH 105 0
DWIDTH 1 0
BBX 1 1 0 0
BITMAP
00
ENDCHAR
STARTCHAR uni200B
ENCODING 8203
SWIDTH 0 0
DWIDTH 0 0
BBX 1 1 0 0
BITMAP
00
ENDCHAR
STARTCHAR uni2010
ENCODING 8208
SWIDTH 248 0
DWIDTH 3 0
BBX 3 1 0 4
BITMAP
E0
ENDCHAR
STARTCHAR uni2011
ENCODING 8209
SWIDTH 248 0
DWIDTH 3 0
BBX 3 1 0 4
BITMAP
E0
ENDCHAR
STARTCHAR endash
ENCODING 8211
SWIDTH 572 0
DWIDTH 8 0
BBX 6 1 1 4
BITMAP
FC
ENDCHAR
STARTCHAR emdash
ENCODING 8212
SWIDTH 678 0
DWIDTH 10 0
BBX 8 1 1 4
BITMAP
FF
ENDCHAR
STARTCHAR uni2015
ENCODING 8213
SWIDTH 678 0
DWIDTH 10 0
BBX 8 1 1 4
BITMAP
FF
ENDCHAR
STARTCHAR underscoredbl
ENCODING 8215
SWIDTH 402 0
DWIDTH 6 0
BBX 6 3 0 -3
BITMAP
FC
00
FC
ENDCHAR
STARTCHAR quoteleft
ENCODING 8216
SWIDTH 194 0
DWIDTH 3 0
BBX 2 3 1 8
BITMAP
C0
80
80
ENDCHAR
STARTCHAR quoteright
ENCODING 8217
SWIDTH 194 0
DWIDTH 3 0
BBX 1 4 1 7
BITMAP
80
80
80
80
ENDCHAR
STARTCHAR quotesinglbase
ENCODING 8218
SWIDTH 194 0
DWIDTH 3 0
BBX 2 3 0 -2
BITMAP
40
40
C0
ENDCHAR
STARTCHAR quotereversed
ENCODING 8219
SWIDTH 194 0
DWIDTH 3 0
BBX 1 3 1 8
BITMAP
80
80
80
ENDCHAR
STARTCHAR quotedblleft
ENCODING 8220
SWIDTH 333 0
DWIDTH 5 0
BBX 4 3 1 8
BITMAP
F0
A0
A0
ENDCHAR
STARTCHAR quotedblright
ENCODING 8221
SWIDTH 337 0
DWIDTH 5 0
BBX 3 4 1 7
BITMAP
A0
A0
A0
A0
ENDCHAR
STARTCHAR quotedblbase
ENCODING 8222
SWIDTH 326 0
DWIDTH 5 0
BBX 3 4 1 -3
BITMAP
A0
A0
A0
C0
ENDCHAR
STARTCHAR dagger
ENCODING 8224
SWIDTH 482 0
DWIDTH 7 0
BBX 5 10 1 0
BITMAP
20
20
F8
20
20
20
20
20
20
20
ENDCHAR
STARTCHAR daggerdbl
ENCODING 8225
SWIDTH 500 0
DWIDTH 7 0
BBX 5 13 1 -3
BITMAP
20
20
F8
20
20
20
20
20
20
F8
20
20
20
ENDCHAR
STARTCHAR bullet
ENCODING 8226
SWIDTH 336 0
DWIDTH 5 0
BBX 3 3 1 4
BITMAP
E0
E0
E0
ENDCHAR
STARTCHAR twodotenleader
ENCODING 8229
SWIDTH 420 0
DWIDTH 6 0
BBX 4 1 1 0
BITMAP
D0
ENDCHAR
STARTCHAR ellipsis
ENCODING 8230
SWIDTH 590 0
DWIDTH 8 0
BBX 7 1 1 0
BITMAP
D6
ENDCHAR
STARTCHAR uni2027
ENCODING 8231
SWIDTH 181 0
DWIDTH 3 0
BBX 1 1 1 4
BITMAP
80
ENDCHAR
STARTCHAR perthousand
ENCODING 8240
SWIDTH 818 0
DWIDTH 11 0
BBX 11 10 0 0
BITMAP
6000
9400
9400
9800
6800
16C0
1520
2920
2520
06C0
ENDCHAR
STARTCHAR minute
ENCODING 8242
SWIDTH 174 0
DWIDTH 2 0
BBX 1 3 1 8
BITMAP
80
80
80
ENDCHAR
STARTCHAR second
ENCODING 8243
SWIDTH 319 0
DWIDTH 4 0
BBX 3 4 1 7
BITMAP
A0
A0
A0
A0
ENDCHAR
STARTCHAR guilsinglleft
ENCODING 8249
SWIDTH 271 0
DWIDTH 4 0
BBX 2 5 1 1
BITMAP
40
80
80
80
40
ENDCHAR
STARTCHAR guilsinglright
ENCODING 8250
SWIDTH 271 0
DWIDTH 4 0
BBX 2 5 1 1
BITMAP
80
C0
40
C0
80
ENDCHAR
STARTCHAR exclamdbl
ENCODING 8252
SWIDTH 491 0
DWIDTH 7 0
BBX 5 10 1 0
BITMAP
98
98
98
98
98
90
90
00
00
98
ENDCHAR
STARTCHAR fraction
ENCODING 8260
SWIDTH 403 0
DWIDTH 6 0
BBX 5 8 0 1
BITMAP
08
08
10
10
20
40
40
80
ENDCHAR
STARTCHAR uni2074
ENCODING 8308
SWIDTH 329 0
DWIDTH 5 0
BBX 4 5 0 5
BITMAP
30
50
50
F0
10
ENDCHAR
STARTCHAR uni207F
ENCODING 8319
SWIDTH 374 0
DWIDTH 5 0
BBX 3 5 1 5
BITMAP
E0
A0
A0
A0
A0
ENDCHAR
STARTCHAR franc
ENCODING 8355
SWIDTH 480 0
DWIDTH 7 0
BBX 6 10 0 0
BITMAP
7C
40
40
40
7C
40
40
40
F0
40
ENDCHAR
STARTCHAR lira
ENCODING 8356
SWIDTH 510 0
DWIDTH 7 0
BBX 6 10 1 0
BITMAP
78
48
C8
C0
F0
C0
F0
40
C0
FC
ENDCHAR
STARTCHAR uni20A6
ENCODING 8358
SWIDTH 691 0
DWIDTH 10 0
BBX 9 10 0 0
BITMAP
2100
3100
3100
3100
FF80
2900
FF80
2700
2300
2100
ENDCHAR
STARTCHAR peseta
ENCODING 8359
SWIDTH 709 0
DWIDTH 10 0
BBX 8 10 1 0
BITMAP
F2
9A
8F
8A
9A
F2
82
82
82
83
ENDCHAR
STARTCHAR uni20A8
ENCODING 8360
SWIDTH 911 0
DWIDTH 13 0
BBX 11 10 1 0
BITMAP
F800
8800
8DC0
8E60
8A00
F180
90C0
8820
8A20
8DC0
ENDCHAR
STARTCHAR uni20A9
ENCODING 8361
SWIDTH 634 0
DWIDTH 9 0
BBX 9 10 0 0
BITMAP
C900
4900
5900
5900
FF80
5700
FF80
3600
3600
3600
ENDCHAR
STARTCHAR uni20AA
ENCODING 8362
SWIDTH 669 0
DWIDTH 9 0
BBX 7 8 1 0
BITMAP
FA
8A
AA
AA
AA
AA
A2
BE
ENDCHAR
STARTCHAR dong
ENCODING 8363
SWIDTH 510 0
DWIDTH 7 0
BBX 6 13 1 -2
BITMAP
08
08
3C
68
98
88
88
88
88
88
78
00
F8
ENDCHAR
STARTCHAR Euro
ENCODING 8364
SWIDTH 493 0
DWIDTH 7 0
BBX 5 10 1 0
BITMAP
38
60
40
F0
40
F0
40
40
60
38
ENDCHAR
STARTCHAR uni20B1
ENCODING 8369
SWIDTH 648 0
DWIDTH 9 0
BBX 9 10 0 0
BITMAP
7C00
6200
FF80
6300
FF80
6200
7C00
6000
6000
6000
ENDCHAR
STARTCHAR uni20B9
ENCODING 8377
SWIDTH 462 0
DWIDTH 6 0
BBX 6 10 0 0
BITMAP
FC
18
FC
18
F0
40
60
20
30
18
ENDCHAR
STARTCHAR uni20BA
ENCODING 8378
SWIDTH 500 0
DWIDTH 7 0
BBX 6 10 0 0
BITMAP
20
30
30
F0
30
E4
24
24
2C
38
ENDCHAR
STARTCHAR uni20BC
ENCODING 8380
SWIDTH 575 0
DWIDTH 8 0
BBX 6 8 1 0
BITMAP
30
78
78
B4
B4
B4
B4
B4
ENDCHAR
STARTCHAR uni20BD
ENCODING 8381
SWIDTH 583 0
DWIDTH 8 0
BBX 8 10 0 0
BITMAP
7C
62
63
63
62
FE
60
F8
60
60
ENDCHAR
STARTCHAR uni2105
ENCODING 8453
SWIDTH 640 0
DWIDTH 9 0
BBX 7 10 1 0
BITMAP
E0
A4
88
A8
F0
1E
2A
2A
4A
0E
ENDCHAR
STARTCHAR uni2113
ENCODING 8467
SWIDTH 422 0
DWIDTH 6 0
BBX 4 11 1 0
BITMAP
30
50
50
50
50
70
60
C0
40
40
20
ENDCHAR
STARTCHAR uni2116
ENCODING 8470
SWIDTH 886 0
DWIDTH 12 0
BBX 10 10 1 0
BITMAP
8DC0
CF40
CE40
AF40
ADC0
AC00
9DC0
9C00
8C00
8C00
ENDCHAR
STARTCHAR trademark
ENCODING 8482
SWIDTH 547 0
DWIDTH 8 0
BBX 5 4 1 6
BITMAP
E8
A8
B8
B8
ENDCHAR
STARTCHAR Omega
ENCODING 8486
SWIDTH 581 0
DWIDTH 8 0
BBX 6 10 1 0
BITMAP
78
C8
84
84
84
84
84
84
48
FC
ENDCHAR
STARTCHAR estimated
ENCODING 8494
SWIDTH 636 0
DWIDTH 9 0
BBX 7 8 1 0
BITMAP
38
44
C6
C6
FE
C0
44
3C
ENDCHAR
STARTCHAR oneeighth
ENCODING 8539
SWIDTH 666 0
DWIDTH 9 0
BBX 8 10 1 0
BITMAP
40
CC
48
50
50
26
29
46
49
06
ENDCHAR
STARTCHAR threeeighths
ENCODING 8540
SWIDTH 736 0
DWIDTH 10 0
BBX 9 10 1 0
BITMAP
E000
2200
6400
2400
E800
1300
1480
2300
2480
0300
ENDCHAR
STARTCHAR fiveeighths
ENCODING 8541
SWIDTH 736 0
DWIDTH 10 0
BBX 9 10 1 0
BITMAP
E000
8400
E400
2800
E800
1300
1480
2300
2480
0300
ENDCHAR
STARTCHAR seveneighths
ENCODING 8542
SWIDTH 692 0
DWIDTH 10 0
BBX 8 10 1 0
BITMAP
E0
24
48
48
90
17
25
22
45
07
ENDCHAR
STARTCHAR partialdiff
ENCODING 8706
SWIDTH 497 0
DWIDTH 7 0
BBX 5 10 1 0
BITMAP
F0
18
08
78
88
88
88
88
D8
70
ENDCHAR
STARTCHAR Delta
ENCODING 8710
SWIDTH 614 0
DWIDTH 9 0
BBX 8 10 0 0
BITMAP
08
18
14
14
24
26
22
42
43
FF
ENDCHAR
STARTCHAR product
ENCODING 8719
SWIDTH 614 0
DWIDTH 9 0
BBX 7 11 1 -1
BITMAP
FE
86
86
86
86
86
86
86
86
86
86
ENDCHAR
STARTCHAR summation
ENCODING 8721
SWIDTH 513 0
DWIDTH 7 0
BBX 6 12 1 -2
BITMAP
FC
80
40
60
20
10
10
20
60
40
80
FC
ENDCHAR
STARTCHAR minus
ENCODING 8722
SWIDTH 499 0
DWIDTH 7 0
BBX 5 1 1 4
BITMAP
F8
ENDCHAR
STARTCHAR radical
ENCODING 8730
SWIDTH 536 0
DWIDTH 8 0
BBX 6 10 1 0
BITMAP
04
04
0C
08
08
D8
50
70
30
20
ENDCHAR
STARTCHAR infinity
ENCODING 8734
SWIDTH 874 0
DWIDTH 12 0
BBX 10 8 1 0
BITMAP
7380
9E40
8C40
8C40
8C40
8C40
9E40
7380
ENDCHAR
STARTCHAR integral
ENCODING 8747
SWIDTH 235 0
DWIDTH 3 0
BBX 4 14 0 -3
BITMAP
30
40
40
40
40
40
40
40
40
40
40
40
40
C0
ENDCHAR
STARTCHAR approxequal
ENCODING 8776
SWIDTH 492 0
DWIDTH 7 0
BBX 5 5 1 2
BITMAP
C8
B8
00
E8
B8
ENDCHAR
STARTCHAR notequal
ENCODING 8800
SWIDTH 479 0
DWIDTH 7 0
BBX 5 8 1 1
BITMAP
10
10
F8
20
20
F8
40
80
ENDCHAR
STARTCHAR lessequal
ENCODING 8804
SWIDTH 445 0
DWIDTH 6 0
BBX 5 8 0 0
BITMAP
08
30
40
70
18
00
00
F8
ENDCHAR
STARTCHAR greaterequal
ENCODING 8805
SWIDTH 460 0
DWIDTH 6 0
BBX 5 8 1 0
BITMAP
80
60
18
30
C0
00
00
F8
ENDCHAR
STARTCHAR lozenge
ENCODING 9674
SWIDTH 442 0
DWIDTH 6 0
BBX 6 10 0 0
BITMAP
30
30
78
48
CC
CC
48
78
30
30
ENDCHAR
STARTCHAR uniEE01
ENCODING 60929
SWIDTH 271 0
DWIDTH 4 0
BBX 2 7 1 1
BITMAP
C0
00
00
00
00
00
C0
ENDCHAR
STARTCHAR uniEE02
ENCODING 60930
SWIDTH 298 0
DWIDTH 4 0
BBX 3 3 1 5
BITMAP
A0
A0
A0
ENDCHAR
STARTCHAR uniF6C3
ENCODING 63171
SWIDTH 235 0
DWIDTH 3 0
BBX 2 3 0 -2
BITMAP
40
40
C0
ENDCHAR
STARTCHAR uniFB01
ENCODING 64257
SWIDTH 489 0
DWIDTH 7 0
BBX 6 11 0 0
BITMAP
38
60
60
F4
64
64
64
64
64
64
64
ENDCHAR
STARTCHAR uniFB02
ENCODING 64258
SWIDTH 503 0
DWIDTH 7 0
BBX 6 11 0 0
BITMAP
3C
24
64
F4
64
64
64
64
64
64
64
ENDCHAR
STARTCHAR uniFB03
ENCODING 64259
SWIDTH 744 0
DWIDTH 10 0
BBX 9 11 0 0
BITMAP
3780
6400
4400
FE80
4480
4480
4480
4480
4480
4480
4480
ENDCHAR
STARTCHAR uniFB04
ENCODING 64260
SWIDTH 744 0
DWIDTH 10 0
BBX 9 11 0 0
BITMAP
3780
6480
4480
FE80
4480
4480
4480
4480
4480
4480
4480
ENDCHAR
STARTCHAR uniFEFF
ENCODING 65279
SWIDTH 0 0
DWIDTH 0 0
BBX 1 1 0 0
BITMAP
00
ENDCHAR
STARTCHAR uniFFFC
ENCODING 65532
SWIDTH 1024 0
DWIDTH 14 0
BBX 14 13 0 -3
BITMAP
FB6C
8004
0000
8004
8004
1B90
AB14
2AD0
9BB4
8004
0000
8004
FB6C
ENDCHAR
STARTCHAR uniFFFD
ENCODING 65533
SWIDTH 1025 0
DWIDTH 14 0
BBX 13 14 1 -3
BITMAP
0200
0700
0F80
1F80
30C0
76E0
FEF0
FDF8
7FE0
3DC0
1F80
0F80
0700
0200
ENDCHAR
STARTCHAR .notdef
ENCODING -1
SWIDTH 392 0
DWIDTH 5 0
BBX 5 10 0 0
BITMAP
F8
88
D8
E8
A8
A8
E8
D8
88
F8
ENDCHAR
STARTCHAR glyph369
ENCODING -1
SWIDTH 364 0
DWIDTH 5 0
BBX 3 2 1 8
BITMAP
A0
C0
ENDCHAR
STARTCHAR uni2009.locl
ENCODING -1
SWIDTH 124 0
DWIDTH 2 0
BBX 1 1 0 0
BITMAP
00
ENDCHAR
STARTCHAR f_f.dlig
ENCODING -1
SWIDTH 546 0
DWIDTH 8 0
BBX 7 11 0 0
BITMAP
36
64
4C
FE
4C
4C
4C
4C
4C
4C
4C
ENDCHAR
STARTCHAR longs_t.dlig
ENCODING -1
SWIDTH 544 0
DWIDTH 8 0
BBX 6 11 1 0
BITMAP
78
48
48
DC
48
48
48
48
48
48
0C
ENDCHAR
STARTCHAR s_t.dlig
ENCODING -1
SWIDTH 710 0
DWIDTH 10 0
BBX 8 11 1 0
BITMAP
0E
12
12
77
9A
82
62
12
9A
9A
71
ENDCHAR
STARTCHAR two.dnom
ENCODING -1
SWIDTH 329 0
DWIDTH 5 0
BBX 3 5 1 0
BITMAP
E0
A0
60
C0
E0
ENDCHAR
STARTCHAR one.dnom
ENCODING -1
SWIDTH 329 0
DWIDTH 5 0
BBX 2 5 1 0
BITMAP
40
C0
40
40
40
ENDCHAR
STARTCHAR zero.dnom
ENCODING -1
SWIDTH 329 0
DWIDTH 5 0
BBX 3 5 1 0
BITMAP
E0
A0
A0
A0
E0
ENDCHAR
STARTCHAR nine.c2sc
ENCODING -1
SWIDTH 447 0
DWIDTH 6 0
BBX 4 8 1 0
BITMAP
70
90
90
90
F0
10
30
60
ENDCHAR
STARTCHAR eight.c2sc
ENCODING -1
SWIDTH 447 0
DWIDTH 6 0
BBX 4 8 1 0
BITMAP
F0
90
90
60
90
90
90
F0
ENDCHAR
STARTCHAR seven.c2sc
ENCODING -1
SWIDTH 447 0
DWIDTH 6 0
BBX 6 8 0 0
BITMAP
FC
08
08
10
10
30
20
60
ENDCHAR
STARTCHAR six.c2sc
ENCODING -1
SWIDTH 447 0
DWIDTH 6 0
BBX 5 8 1 0
BITMAP
60
C0
80
F0
90
98
90
70
ENDCHAR
STARTCHAR five.c2sc
ENCODING -1
SWIDTH 447 0
DWIDTH 6 0
BBX 5 8 1 0
BITMAP
F0
80
80
F0
10
18
90
70
ENDCHAR
STARTCHAR four.c2sc
ENCODING -1
SWIDTH 447 0
DWIDTH 6 0
BBX 6 8 0 0
BITMAP
18
18
28
48
48
FC
08
08
ENDCHAR
STARTCHAR three.c2sc
ENCODING -1
SWIDTH 447 0
DWIDTH 6 0
BBX 5 8 0 0
BITMAP
78
48
88
30
08
08
C8
70
ENDCHAR
STARTCHAR two.c2sc
ENCODING -1
SWIDTH 447 0
DWIDTH 6 0
BBX 6 8 0 0
BITMAP
78
48
C8
08
10
20
60
7C
ENDCHAR
STARTCHAR one.c2sc
ENCODING -1
SWIDTH 447 0
DWIDTH 6 0
BBX 3 8 1 0
BITMAP
60
A0
20
20
20
20
20
20
ENDCHAR
STARTCHAR zero.c2sc
ENCODING -1
SWIDTH 447 0
DWIDTH 6 0
BBX 4 8 1 0
BITMAP
60
90
90
90
90
90
90
60
ENDCHAR
STARTCHAR Z.c2sc
ENCODING -1
SWIDTH 454 0
DWIDTH 6 0
BBX 5 8 1 0
BITMAP
F8
10
30
20
40
40
80
F8
ENDCHAR
STARTCHAR Y.c2sc
ENCODING -1
SWIDTH 458 0
DWIDTH 6 0
BBX 6 8 0 0
BITMAP
C4
4C
68
38
30
10
10
10
ENDCHAR
STARTCHAR X.c2sc
ENCODING -1
SWIDTH 478 0
DWIDTH 7 0
BBX 6 8 0 0
BITMAP
C4
68
28
30
30
28
6C
C4
ENDCHAR
STARTCHAR W.c2sc
ENCODING -1
SWIDTH 655 0
DWIDTH 9 0
BBX 9 8 0 0
BITMAP
C980
4900
5500
5500
5500
7500
2200
2200
ENDCHAR
STARTCHAR V.c2sc
ENCODING -1
SWIDTH 487 0
DWIDTH 7 0
BBX 7 8 0 0
BITMAP
C6
44
44
68
28
28
30
10
ENDCHAR
STARTCHAR U.c2sc
ENCODING -1
SWIDTH 488 0
DWIDTH 7 0
BBX 5 8 1 0
BITMAP
88
88
88
88
88
88
88
70
ENDCHAR
STARTCHAR T.c2sc
ENCODING -1
SWIDTH 456 0
DWIDTH 6 0
BBX 6 8 0 0
BITMAP
FC
10
10
10
10
10
10
10
ENDCHAR
STARTCHAR S.c2sc
ENCODING -1
SWIDTH 453 0
DWIDTH 6 0
BBX 6 8 0 0
BITMAP
78
4C
40
60
18
0C
CC
78
ENDCHAR
STARTCHAR R.c2sc
ENCODING -1
SWIDTH 465 0
DWIDTH 7 0
BBX 6 8 1 0
BITMAP
F0
88
88
88
F0
90
98
8C
ENDCHAR
STARTCHAR Q.c2sc
ENCODING -1
SWIDTH 519 0
DWIDTH 7 0
BBX 6 9 0 -1
BITMAP
38
44
44
44
C4
44
44
38
04
ENDCHAR
STARTCHAR P.c2sc
ENCODING -1
SWIDTH 481 0
DWIDTH 7 0
BBX 5 8 1 0
BITMAP
F0
88
88
88
F8
80
80
80
ENDCHAR
STARTCHAR O.c2sc
ENCODING -1
SWIDTH 519 0
DWIDTH 7 0
BBX 5 8 1 0
BITMAP
70
88
88
88
88
88
88
70
ENDCHAR
STARTCHAR N.c2sc
ENCODING -1
SWIDTH 533 0
DWIDTH 7 0
BBX 6 8 1 0
BITMAP
8C
CC
CC
AC
BC
9C
8C
8C
ENDCHAR
STARTCHAR M.c2sc
ENCODING -1
SWIDTH 652 0
DWIDTH 9 0
BBX 7 8 1 0
BITMAP
C6
C6
C6
EE
AA
AA
92
92
ENDCHAR
STARTCHAR L.c2sc
ENCODING -1
SWIDTH 411 0
DWIDTH 6 0
BBX 4 8 1 0
BITMAP
80
80
80
80
80
80
80
F0
ENDCHAR
STARTCHAR K.c2sc
ENCODING -1
SWIDTH 473 0
DWIDTH 7 0
BBX 6 8 1 0
BITMAP
8C
90
B0
E0
F0
90
98
8C
ENDCHAR
STARTCHAR J.c2sc
ENCODING -1
SWIDTH 419 0
DWIDTH 6 0
BBX 5 8 0 0
BITMAP
08
08
08
08
08
08
C8
70
ENDCHAR
STARTCHAR I.c2sc
ENCODING -1
SWIDTH 221 0
DWIDTH 3 0
BBX 1 8 1 0
BITMAP
80
80
80
80
80
80
80
80
ENDCHAR
STARTCHAR H.c2sc
ENCODING -1
SWIDTH 533 0
DWIDTH 7 0
BBX 6 8 1 0
BITMAP
8C
8C
8C
FC
8C
8C
8C
8C
ENDCHAR
STARTCHAR G.c2sc
ENCODING -1
SWIDTH 509 0
DWIDTH 7 0
BBX 5 8 1 0
BITMAP
70
88
80
80
98
88
88
78
ENDCHAR
STARTCHAR F.c2sc
ENCODING -1
SWIDTH 415 0
DWIDTH 6 0
BBX 4 8 1 0
BITMAP
F0
80
80
80
F0
80
80
80
ENDCHAR
STARTCHAR dollar.c2sc
ENCODING -1
SWIDTH 453 0
DWIDTH 6 0
BBX 6 11 0 -2
BITMAP
10
38
4C
40
70
18
04
CC
78
10
10
ENDCHAR
STARTCHAR sterling.c2sc
ENCODING -1
SWIDTH 467 0
DWIDTH 7 0
BBX 5 8 1 0
BITMAP
70
48
48
40
F0
40
C0
F8
ENDCHAR
STARTCHAR yen.c2sc
ENCODING -1
SWIDTH 400 0
DWIDTH 6 0
BBX 6 8 0 0
BITMAP
CC
48
78
30
78
30
78
30
ENDCHAR
STARTCHAR Gamma.c2sc
ENCODING -1
SWIDTH 405 0
DWIDTH 6 0
BBX 4 8 1 0
BITMAP
F0
80
80
80
80
80
80
80
ENDCHAR
STARTCHAR Delta.c2sc
ENCODING -1
SWIDTH 487 0
DWIDTH 7 0
BBX 7 8 0 0
BITMAP
10
28
28
28
6C
44
44
FE
ENDCHAR
STARTCHAR Theta.c2sc
ENCODING -1
SWIDTH 519 0
DWIDTH 7 0
BBX 5 8 1 0
BITMAP
70
88
88
F8
88
88
88
70
ENDCHAR
STARTCHAR Lambda.c2sc
ENCODING -1
SWIDTH 487 0
DWIDTH 7 0
BBX 7 8 0 0
BITMAP
10
28
28
28
6C
44
44
C6
ENDCHAR
STARTCHAR Xi.c2sc
ENCODING -1
SWIDTH 389 0
DWIDTH 5 0
BBX 5 8 0 0
BITMAP
F8
00
00
F0
00
00
00
F8
ENDCHAR
STARTCHAR Pi.c2sc
ENCODING -1
SWIDTH 525 0
DWIDTH 7 0
BBX 5 8 1 0
BITMAP
F8
88
88
88
88
88
88
88
ENDCHAR
STARTCHAR Sigma.c2sc
ENCODING -1
SWIDTH 435 0
DWIDTH 6 0
BBX 6 8 0 0
BITMAP
F8
40
60
30
30
60
40
FC
ENDCHAR
STARTCHAR Phi.c2sc
ENCODING -1
SWIDTH 587 0
DWIDTH 8 0
BBX 6 8 1 0
BITMAP
30
78
B4
B4
B4
B4
78
30
ENDCHAR
STARTCHAR Psi.c2sc
ENCODING -1
SWIDTH 560 0
DWIDTH 8 0
BBX 6 8 1 0
BITMAP
B4
B4
B4
B4
FC
78
30
30
ENDCHAR
STARTCHAR Omega.c2sc
ENCODING -1
SWIDTH 540 0
DWIDTH 8 0
BBX 6 8 1 0
BITMAP
78
CC
84
84
84
84
48
FC
ENDCHAR
STARTCHAR uni0402.c2sc
ENCODING -1
SWIDTH 596 0
DWIDTH 8 0
BBX 8 8 0 0
BITMAP
F8
20
20
3E
22
23
23
26
ENDCHAR
STARTCHAR uni0404.c2sc
ENCODING -1
SWIDTH 490 0
DWIDTH 7 0
BBX 5 8 1 0
BITMAP
70
88
88
E0
80
88
C8
70
ENDCHAR
STARTCHAR uni0409.c2sc
ENCODING -1
SWIDTH 782 0
DWIDTH 11 0
BBX 10 8 0 0
BITMAP
3C00
2400
2400
27C0
2440
2440
6440
C7C0
ENDCHAR
STARTCHAR uni040A.c2sc
ENCODING -1
SWIDTH 788 0
DWIDTH 11 0
BBX 9 8 1 0
BITMAP
8800
8800
8800
FF80
8880
8880
8880
8F80
ENDCHAR
STARTCHAR uni040B.c2sc
ENCODING -1
SWIDTH 596 0
DWIDTH 8 0
BBX 8 8 0 0
BITMAP
F8
20
20
3E
22
23
23
23
ENDCHAR
STARTCHAR uni040F.c2sc
ENCODING -1
SWIDTH 524 0
DWIDTH 7 0
BBX 5 10 1 -2
BITMAP
88
88
88
88
88
88
88
F8
20
20
ENDCHAR
STARTCHAR uni0411.c2sc
ENCODING -1
SWIDTH 479 0
DWIDTH 7 0
BBX 5 8 1 0
BITMAP
F8
80
80
F0
88
88
88
F0
ENDCHAR
STARTCHAR uni0414.c2sc
ENCODING -1
SWIDTH 563 0
DWIDTH 8 0
BBX 8 10 0 -2
BITMAP
3E
26
26
26
26
26
66
FF
C3
C3
ENDCHAR
STARTCHAR uni0416.c2sc
ENCODING -1
SWIDTH 651 0
DWIDTH 9 0
BBX 9 8 0 0
BITMAP
C980
6B00
2A00
3E00
2A00
6B00
4900
C980
ENDCHAR
STARTCHAR uni0417.c2sc
ENCODING -1
SWIDTH 466 0
DWIDTH 7 0
BBX 5 8 1 0
BITMAP
70
88
08
30
08
08
88
70
ENDCHAR
STARTCHAR uni0418.c2sc
ENCODING -1
SWIDTH 537 0
DWIDTH 8 0
BBX 6 8 1 0
BITMAP
8C
8C
9C
94
A4
A4
C4
C4
ENDCHAR
STARTCHAR uni041A.c2sc
ENCODING -1
SWIDTH 473 0
DWIDTH 7 0
BBX 6 8 1 0
BITMAP
88
90
A0
E0
A0
90
98
8C
ENDCHAR
STARTCHAR uni041B.c2sc
ENCODING -1
SWIDTH 521 0
DWIDTH 7 0
BBX 6 8 0 0
BITMAP
3C
24
24
24
24
64
44
C4
ENDCHAR
STARTCHAR uni0423.c2sc
ENCODING -1
SWIDTH 454 0
DWIDTH 6 0
BBX 6 8 0 0
BITMAP
CC
48
48
78
30
30
30
60
ENDCHAR
STARTCHAR uni0426.c2sc
ENCODING -1
SWIDTH 564 0
DWIDTH 8 0
BBX 7 10 1 -2
BITMAP
8C
8C
8C
8C
8C
8C
8C
FE
06
04
ENDCHAR
STARTCHAR uni0427.c2sc
ENCODING -1
SWIDTH 487 0
DWIDTH 7 0
BBX 5 8 1 0
BITMAP
88
88
88
88
F8
08
08
08
ENDCHAR
STARTCHAR uni0428.c2sc
ENCODING -1
SWIDTH 691 0
DWIDTH 10 0
BBX 8 8 1 0
BITMAP
99
99
99
99
99
99
99
FF
ENDCHAR
STARTCHAR uni0429.c2sc
ENCODING -1
SWIDTH 731 0
DWIDTH 10 0
BBX 9 10 1 -2
BITMAP
9300
9300
9300
9300
9300
9300
9300
FF80
0180
0180
ENDCHAR
STARTCHAR uni042A.c2sc
ENCODING -1
SWIDTH 559 0
DWIDTH 8 0
BBX 7 8 0 0
BITMAP
E0
20
20
3C
22
22
22
3C
ENDCHAR
STARTCHAR uni042B.c2sc
ENCODING -1
SWIDTH 658 0
DWIDTH 9 0
BBX 7 8 1 0
BITMAP
82
82
82
F2
8A
8A
8A
F2
ENDCHAR
STARTCHAR uni042C.c2sc
ENCODING -1
SWIDTH 475 0
DWIDTH 7 0
BBX 5 8 1 0
BITMAP
80
80
80
F0
88
88
88
F0
ENDCHAR
STARTCHAR uni042D.c2sc
ENCODING -1
SWIDTH 491 0
DWIDTH 7 0
BBX 5 8 1 0
BITMAP
70
88
88
38
08
88
98
70
ENDCHAR
STARTCHAR uni042E.c2sc
ENCODING -1
SWIDTH 705 0
DWIDTH 10 0
BBX 8 8 1 0
BITMAP
8E
93
B1
F1
B1
91
93
8E
ENDCHAR
STARTCHAR uni042F.c2sc
ENCODING -1
SWIDTH 499 0
DWIDTH 7 0
BBX 5 8 1 0
BITMAP
78
88
88
88
78
48
C8
88
ENDCHAR
STARTCHAR uni0492.c2sc
ENCODING -1
SWIDTH 444 0
DWIDTH 6 0
BBX 6 8 0 0
BITMAP
7C
60
60
F0
60
60
60
60
ENDCHAR
STARTCHAR uni0496.c2sc
ENCODING -1
SWIDTH 676 0
DWIDTH 9 0
BBX 9 10 0 -2
BITMAP
C900
4A00
2A00
3C00
2A00
6A00
4B00
C980
0080
0080
ENDCHAR
STARTCHAR uni049A.c2sc
ENCODING -1
SWIDTH 492 0
DWIDTH 7 0
BBX 6 10 1 -2
BITMAP
98
90
A0
E0
A0
B0
90
8C
0C
0C
ENDCHAR
STARTCHAR uni049C.c2sc
ENCODING -1
SWIDTH 562 0
DWIDTH 8 0
BBX 7 8 1 0
BITMAP
84
A8
B8
F0
B0
88
8C
86
ENDCHAR
STARTCHAR uni04A0.c2sc
ENCODING -1
SWIDTH 571 0
DWIDTH 8 0
BBX 8 8 0 0
BITMAP
E3
24
2C
38
2C
24
26
23
ENDCHAR
STARTCHAR uni04A8.c2sc
ENCODING -1
SWIDTH 625 0
DWIDTH 9 0
BBX 7 8 1 0
BITMAP
5C
96
92
B2
92
92
D4
7E
ENDCHAR
STARTCHAR uni04B0.c2sc
ENCODING -1
SWIDTH 480 0
DWIDTH 7 0
BBX 6 8 0 0
BITMAP
C4
4C
68
38
30
78
10
10
ENDCHAR
STARTCHAR uni04B2.c2sc
ENCODING -1
SWIDTH 514 0
DWIDTH 7 0
BBX 7 10 0 -2
BITMAP
C4
48
38
30
30
28
48
46
82
02
ENDCHAR
STARTCHAR uni04B4.c2sc
ENCODING -1
SWIDTH 695 0
DWIDTH 10 0
BBX 8 10 1 -2
BITMAP
FA
22
22
22
22
22
22
3F
01
01
ENDCHAR
STARTCHAR uni04B8.c2sc
ENCODING -1
SWIDTH 487 0
DWIDTH 7 0
BBX 5 8 1 0
BITMAP
88
88
A8
A8
F8
28
08
08
ENDCHAR
STARTCHAR uni04BA.c2sc
ENCODING -1
SWIDTH 487 0
DWIDTH 7 0
BBX 5 8 1 0
BITMAP
80
80
80
F8
88
88
88
88
ENDCHAR
STARTCHAR uni04BC.c2sc
ENCODING -1
SWIDTH 632 0
DWIDTH 9 0
BBX 8 8 0 0
BITMAP
0E
91
A1
7F
20
30
10
0E
ENDCHAR
STARTCHAR uni04D8.c2sc
ENCODING -1
SWIDTH 527 0
DWIDTH 7 0
BBX 7 8 0 0
BITMAP
78
44
04
06
FE
44
44
38
ENDCHAR
STARTCHAR uni04E0.c2sc
ENCODING -1
SWIDTH 466 0
DWIDTH 7 0
BBX 5 8 1 0
BITMAP
F8
10
20
30
08
08
88
70
ENDCHAR
STARTCHAR uni04E8.c2sc
ENCODING -1
SWIDTH 519 0
DWIDTH 7 0
BBX 5 8 1 0
BITMAP
70
88
88
F8
88
88
88
70
ENDCHAR
STARTCHAR lira.c2sc
ENCODING -1
SWIDTH 467 0
DWIDTH 7 0
BBX 5 8 1 0
BITMAP
70
48
40
F0
40
F0
C0
F8
ENDCHAR
STARTCHAR Euro.c2sc
ENCODING -1
SWIDTH 433 0
DWIDTH 6 0
BBX 5 8 1 0
BITMAP
78
C0
F0
C0
F0
C0
40
38
ENDCHAR
STARTCHAR uni2116.c2sc
ENCODING -1
SWIDTH 884 0
DWIDTH 12 0
BBX 10 8 1 0
BITMAP
89C0
CB40
CA40
AB40
A9C0
9800
99C0
8800
ENDCHAR
STARTCHAR uni20BD.c2sc
ENCODING -1
SWIDTH 512 0
DWIDTH 7 0
BBX 7 8 0 0
BITMAP
7C
64
66
64
FC
60
F0
60
ENDCHAR
STARTCHAR three.dnom
ENCODING -1
SWIDTH 329 0
DWIDTH 5 0
BBX 3 5 1 0
BITMAP
E0
20
40
20
E0
ENDCHAR
STARTCHAR four.dnom
ENCODING -1
SWIDTH 329 0
DWIDTH 5 0
BBX 4 5 0 0
BITMAP
30
50
50
F0
10
ENDCHAR
STARTCHAR five.dnom
ENCODING -1
SWIDTH 329 0
DWIDTH 5 0
BBX 3 5 1 0
BITMAP
E0
80
E0
20
E0
ENDCHAR
STARTCHAR six.dnom
ENCODING -1
SWIDTH 329 0
DWIDTH 5 0
BBX 3 5 1 0
BITMAP
60
80
E0
A0
E0
ENDCHAR
STARTCHAR seven.dnom
ENCODING -1
SWIDTH 329 0
DWIDTH 5 0
BBX 4 5 0 0
BITMAP
F0
10
20
20
40
ENDCHAR
STARTCHAR eight.dnom
ENCODING -1
SWIDTH 329 0
DWIDTH 5 0
BBX 3 5 1 0
BITMAP
E0
A0
40
A0
E0
ENDCHAR
STARTCHAR nine.dnom
ENCODING -1
SWIDTH 329 0
DWIDTH 5 0
BBX 3 5 1 0
BITMAP
E0
A0
E0
20
40
ENDCHAR
STARTCHAR glyph550
ENCODING -1
SWIDTH 404 0
DWIDTH 6 0
BBX 4 1 1 4
BITMAP
F0
ENDCHAR
STARTCHAR glyph551
ENCODING -1
SWIDTH 306 0
DWIDTH 4 0
BBX 3 4 1 7
BITMAP
60
40
C0
C0
ENDCHAR
STARTCHAR E.c2sc
ENCODING -1
SWIDTH 428 0
DWIDTH 6 0
BBX 5 8 1 0
BITMAP
F8
80
80
F0
80
80
80
F8
ENDCHAR
STARTCHAR g.ss01
ENCODING -1
SWIDTH 463 0
DWIDTH 7 0
BBX 6 11 0 -3
BITMAP
3C
4C
44
4C
38
40
7C
44
44
C4
78
ENDCHAR
STARTCHAR alpha.ss02
ENCODING -1
SWIDTH 523 0
DWIDTH 7 0
BBX 5 8 1 0
BITMAP
68
98
88
88
88
88
98
68
ENDCHAR
STARTCHAR R.ss03
ENCODING -1
SWIDTH 577 0
DWIDTH 8 0
BBX 6 10 1 0
BITMAP
F8
8C
84
84
8C
F8
8C
84
84
84
ENDCHAR
STARTCHAR K.ss04
ENCODING -1
SWIDTH 560 0
DWIDTH 8 0
BBX 7 10 1 0
BITMAP
86
88
98
90
E0
90
98
88
8C
86
ENDCHAR
STARTCHAR k.ss04
ENCODING -1
SWIDTH 453 0
DWIDTH 6 0
BBX 5 11 1 0
BITMAP
80
80
80
98
90
A0
E0
A0
90
90
88
ENDCHAR
STARTCHAR K.ss05
ENCODING -1
SWIDTH 572 0
DWIDTH 8 0
BBX 7 10 1 0
BITMAP
8C
88
90
B0
E0
A0
B0
98
88
86
ENDCHAR
STARTCHAR k.ss05
ENCODING -1
SWIDTH 454 0
DWIDTH 6 0
BBX 5 11 1 0
BITMAP
80
80
80
98
B0
A0
C0
E0
A0
B0
98
ENDCHAR
STARTCHAR D.c2sc
ENCODING -1
SWIDTH 492 0
DWIDTH 7 0
BBX 5 8 1 0
BITMAP
F0
98
88
88
88
88
98
F0
ENDCHAR
STARTCHAR C.c2sc
ENCODING -1
SWIDTH 490 0
DWIDTH 7 0
BBX 5 8 1 0
BITMAP
70
C8
88
80
80
88
88
70
ENDCHAR
STARTCHAR B.c2sc
ENCODING -1
SWIDTH 475 0
DWIDTH 7 0
BBX 5 8 1 0
BITMAP
F0
98
98
F0
88
88
88
F0
ENDCHAR
STARTCHAR A.c2sc
ENCODING -1
SWIDTH 501 0
DWIDTH 7 0
BBX 7 8 0 0
BITMAP
10
38
28
28
6C
7C
44
C6
ENDCHAR
STARTCHAR glyph564
ENCODING -1
SWIDTH 236 0
DWIDTH 3 0
BBX 2 3 1 8
BITMAP
40
80
80
ENDCHAR
STARTCHAR glyph565
ENCODING -1
SWIDTH 402 0
DWIDTH 6 0
BBX 3 4 1 9
BITMAP
C0
40
A0
E0
ENDCHAR
STARTCHAR glyph566
ENCODING -1
SWIDTH 0 0
DWIDTH 0 0
BBX 3 4 -5 8
BITMAP
20
40
E0
A0
ENDCHAR
STARTCHAR glyph567
ENCODING -1
SWIDTH 455 0
DWIDTH 6 0
BBX 6 3 1 9
BITMAP
0C
68
90
ENDCHAR
STARTCHAR glyph568
ENCODING -1
SWIDTH 454 0
DWIDTH 6 0
BBX 6 3 -1 8
BITMAP
C0
58
2C
ENDCHAR
STARTCHAR glyph569
ENCODING -1
SWIDTH 446 0
DWIDTH 6 0
BBX 5 4 1 9
BITMAP
18
08
70
90
ENDCHAR
STARTCHAR glyph570
ENCODING -1
SWIDTH 453 0
DWIDTH 6 0
BBX 4 5 1 9
BITMAP
60
A0
00
60
90
ENDCHAR
STARTCHAR uni0490.c2sc
ENCODING -1
SWIDTH 405 0
DWIDTH 6 0
BBX 4 10 1 0
BITMAP
10
10
F0
80
80
80
80
80
80
80
ENDCHAR
STARTCHAR glyph572
ENCODING -1
SWIDTH 404 0
DWIDTH 6 0
BBX 3 4 1 9
BITMAP
20
40
A0
E0
ENDCHAR
STARTCHAR glyph573
ENCODING -1
SWIDTH 404 0
DWIDTH 6 0
BBX 3 5 1 9
BITMAP
60
20
40
A0
E0
ENDCHAR
STARTCHAR zero.numr
ENCODING -1
SWIDTH 329 0
DWIDTH 5 0
BBX 3 5 1 5
BITMAP
E0
A0
A0
A0
E0
ENDCHAR
STARTCHAR four.numr
ENCODING -1
SWIDTH 329 0
DWIDTH 5 0
BBX 4 5 0 5
BITMAP
30
50
50
F0
10
ENDCHAR
STARTCHAR five.numr
ENCODING -1
SWIDTH 329 0
DWIDTH 5 0
BBX 3 5 1 5
BITMAP
E0
80
E0
20
E0
ENDCHAR
STARTCHAR six.numr
ENCODING -1
SWIDTH 329 0
DWIDTH 5 0
BBX 3 5 1 5
BITMAP
60
80
E0
A0
E0
ENDCHAR
STARTCHAR seven.numr
ENCODING -1
SWIDTH 329 0
DWIDTH 5 0
BBX 4 5 0 5
BITMAP
F0
10
20
20
40
ENDCHAR
STARTCHAR eight.numr
ENCODING -1
SWIDTH 329 0
DWIDTH 5 0
BBX 3 5 1 5
BITMAP
E0
A0
40
A0
E0
ENDCHAR
STARTCHAR nine.numr
ENCODING -1
SWIDTH 329 0
DWIDTH 5 0
BBX 3 5 1 5
BITMAP
E0
A0
E0
20
40
ENDCHAR
STARTCHAR C.ss06
ENCODING -1
SWIDTH 603 0
DWIDTH 8 0
BBX 7 10 1 0
BITMAP
78
C4
84
82
80
80
80
84
44
38
ENDCHAR
STARTCHAR G.ss06
ENCODING -1
SWIDTH 618 0
DWIDTH 9 0
BBX 7 10 1 0
BITMAP
3C
44
C2
80
80
8E
82
C2
46
3C
ENDCHAR
STARTCHAR D.ss06
ENCODING -1
SWIDTH 608 0
DWIDTH 9 0
BBX 7 10 1 0
BITMAP
F8
CC
C4
C2
C2
C2
C2
C4
CC
F8
ENDCHAR
STARTCHAR O.ss06
ENCODING -1
SWIDTH 643 0
DWIDTH 9 0
BBX 7 10 1 0
BITMAP
38
44
C6
82
82
82
82
C6
44
38
ENDCHAR
STARTCHAR Q.ss06
ENCODING -1
SWIDTH 644 0
DWIDTH 9 0
BBX 7 12 1 -2
BITMAP
38
44
C6
82
82
82
82
C6
44
38
04
06
ENDCHAR
STARTCHAR one.oldstyle.pnum
ENCODING -1
SWIDTH 421 0
DWIDTH 6 0
BBX 3 8 1 0
BITMAP
20
E0
20
20
20
20
20
20
ENDCHAR
STARTCHAR two.oldstyle.pnum
ENCODING -1
SWIDTH 492 0
DWIDTH 7 0
BBX 5 8 1 0
BITMAP
70
C8
88
18
10
20
40
F8
ENDCHAR
STARTCHAR three.oldstyle.pnum
ENCODING -1
SWIDTH 474 0
DWIDTH 7 0
BBX 6 10 0 -2
BITMAP
7C
08
10
38
08
04
04
0C
88
70
ENDCHAR
STARTCHAR four.oldstyle.pnum
ENCODING -1
SWIDTH 524 0
DWIDTH 7 0
BBX 7 10 0 -2
BITMAP
0C
0C
14
14
24
64
44
FE
04
04
ENDCHAR
STARTCHAR five.oldstyle.pnum
ENCODING -1
SWIDTH 483 0
DWIDTH 7 0
BBX 5 10 1 -2
BITMAP
F8
80
80
F0
98
08
08
08
98
F0
ENDCHAR
STARTCHAR seven.oldstyle.pnum
ENCODING -1
SWIDTH 458 0
DWIDTH 6 0
BBX 5 10 1 -2
BITMAP
F8
18
10
10
30
20
20
40
40
C0
ENDCHAR
STARTCHAR glyph592
ENCODING -1
SWIDTH 402 0
DWIDTH 6 0
BBX 3 5 1 8
BITMAP
E0
A0
00
A0
E0
ENDCHAR
STARTCHAR glyph593
ENCODING -1
SWIDTH 183 0
DWIDTH 3 0
BBX 1 4 1 -3
BITMAP
80
80
80
80
ENDCHAR
STARTCHAR OE.c2sc
ENCODING -1
SWIDTH 714 0
DWIDTH 10 0
BBX 9 8 1 0
BITMAP
7F80
8800
8800
8F00
8800
8800
C800
7F80
ENDCHAR
STARTCHAR nine.oldstyle.pnum
ENCODING -1
SWIDTH 520 0
DWIDTH 7 0
BBX 5 10 1 -2
BITMAP
70
C8
88
88
88
C8
78
08
18
F0
ENDCHAR
STARTCHAR glyph596
ENCODING -1
SWIDTH 234 0
DWIDTH 3 0
BBX 2 4 0 -3
BITMAP
40
40
40
C0
ENDCHAR
STARTCHAR three.oldstyle
ENCODING -1
SWIDTH 494 0
DWIDTH 7 0
BBX 6 10 0 -2
BITMAP
7C
08
10
38
0C
04
04
04
8C
78
ENDCHAR
STARTCHAR five.oldstyle
ENCODING -1
SWIDTH 494 0
DWIDTH 7 0
BBX 5 10 1 -2
BITMAP
78
80
80
F0
98
08
08
08
98
F0
ENDCHAR
STARTCHAR four.oldstyle
ENCODING -1
SWIDTH 494 0
DWIDTH 7 0
BBX 7 10 0 -2
BITMAP
0C
0C
1C
3C
2C
6C
4C
FE
0C
0C
ENDCHAR
STARTCHAR two.oldstyle
ENCODING -1
SWIDTH 494 0
DWIDTH 7 0
BBX 5 8 1 0
BITMAP
70
98
88
18
30
20
40
F8
ENDCHAR
STARTCHAR seven.oldstyle
ENCODING -1
SWIDTH 494 0
DWIDTH 7 0
BBX 5 10 1 -2
BITMAP
F8
08
18
10
10
20
20
60
40
40
ENDCHAR
STARTCHAR zero.oldstyle
ENCODING -1
SWIDTH 494 0
DWIDTH 7 0
BBX 6 8 1 0
BITMAP
70
C8
8C
8C
8C
8C
C8
70
ENDCHAR
STARTCHAR six.oldstyle
ENCODING -1
SWIDTH 494 0
DWIDTH 7 0
BBX 5 10 1 0
BITMAP
30
40
C0
B0
C8
88
88
88
C8
70
ENDCHAR
STARTCHAR nine.oldstyle
ENCODING -1
SWIDTH 494 0
DWIDTH 7 0
BBX 5 10 1 -2
BITMAP
70
98
88
88
88
98
78
08
10
E0
ENDCHAR
STARTCHAR eight.oldstyle
ENCODING -1
SWIDTH 494 0
DWIDTH 7 0
BBX 5 10 1 0
BITMAP
70
D8
88
D8
70
88
88
88
88
70
ENDCHAR
STARTCHAR one.oldstyle
ENCODING -1
SWIDTH 494 0
DWIDTH 7 0
BBX 4 8 1 0
BITMAP
30
D0
10
10
10
10
10
10
ENDCHAR
STARTCHAR glyph607
ENCODING -1
SWIDTH 237 0
DWIDTH 3 0
BBX 2 11 0 -3
BITMAP
40
40
40
40
40
40
40
40
40
40
C0
ENDCHAR
STARTCHAR glyph608
ENCODING -1
SWIDTH 238 0
DWIDTH 3 0
BBX 2 11 0 -3
BITMAP
40
40
40
40
40
40
40
40
40
40
C0
ENDCHAR
STARTCHAR glyph609
ENCODING -1
SWIDTH 235 0
DWIDTH 3 0
BBX 1 8 1 0
BITMAP
80
80
80
80
80
80
80
80
ENDCHAR
STARTCHAR glyph610
ENCODING -1
SWIDTH 235 0
DWIDTH 3 0
BBX 2 11 0 -3
BITMAP
40
40
40
40
40
40
40
40
40
80
40
ENDCHAR
STARTCHAR glyph611
ENCODING -1
SWIDTH 235 0
DWIDTH 3 0
BBX 1 8 1 0
BITMAP
80
80
80
80
80
80
80
80
ENDCHAR
STARTCHAR germandbls.sc
ENCODING -1
SWIDTH 475 0
DWIDTH 7 0
BBX 5 8 1 0
BITMAP
70
D8
B0
B0
88
88
88
B0
ENDCHAR
STARTCHAR zero.oldstyle.pnum
ENCODING -1
SWIDTH 545 0
DWIDTH 8 0
BBX 6 8 1 0
BITMAP
78
48
84
84
84
84
4C
78
ENDCHAR
STARTCHAR seven.pnum
ENCODING -1
SWIDTH 458 0
DWIDTH 6 0
BBX 6 10 0 0
BITMAP
FC
0C
08
08
10
10
10
20
20
60
ENDCHAR
STARTCHAR b.ss06
ENCODING -1
SWIDTH 493 0
DWIDTH 7 0
BBX 5 11 1 0
BITMAP
80
80
80
F0
C8
88
88
88
88
C8
F0
ENDCHAR
STARTCHAR c.ss06
ENCODING -1
SWIDTH 460 0
DWIDTH 6 0
BBX 6 8 0 0
BITMAP
38
48
44
C0
C0
44
48
38
ENDCHAR
STARTCHAR d.ss06
ENCODING -1
SWIDTH 503 0
DWIDTH 7 0
BBX 5 11 1 0
BITMAP
08
08
08
78
88
88
88
88
88
88
78
ENDCHAR
STARTCHAR g.ss06
ENCODING -1
SWIDTH 500 0
DWIDTH 7 0
BBX 5 11 1 -3
BITMAP
78
C8
88
88
88
88
C8
78
08
98
70
ENDCHAR
STARTCHAR o.ss06
ENCODING -1
SWIDTH 508 0
DWIDTH 7 0
BBX 5 8 1 0
BITMAP
70
88
88
88
88
88
88
70
ENDCHAR
STARTCHAR p.ss06
ENCODING -1
SWIDTH 500 0
DWIDTH 7 0
BBX 5 11 1 -3
BITMAP
F0
98
88
88
88
88
98
F0
80
80
80
ENDCHAR
STARTCHAR q.ss06
ENCODING -1
SWIDTH 508 0
DWIDTH 7 0
BBX 5 11 1 -3
BITMAP
78
88
88
88
88
88
88
78
08
08
08
ENDCHAR
STARTCHAR e.ss07
ENCODING -1
SWIDTH 468 0
DWIDTH 7 0
BBX 5 8 1 0
BITMAP
70
C8
88
F8
80
80
C8
78
ENDCHAR
STARTCHAR g.ss07
ENCODING -1
SWIDTH 492 0
DWIDTH 7 0
BBX 5 11 1 -3
BITMAP
78
88
88
88
88
88
C8
78
08
98
70
ENDCHAR
STARTCHAR one.pnum
ENCODING -1
SWIDTH 382 0
DWIDTH 5 0
BBX 3 10 1 0
BITMAP
60
A0
20
20
20
20
20
20
20
20
ENDCHAR
STARTCHAR ampersand.c2sc
ENCODING -1
SWIDTH 526 0
DWIDTH 7 0
BBX 7 8 0 0
BITMAP
70
58
58
30
74
5C
CC
7E
ENDCHAR
STARTCHAR Lslash.c2sc
ENCODING -1
SWIDTH 411 0
DWIDTH 6 0
BBX 6 8 0 0
BITMAP
40
40
40
70
C0
40
40
7C
ENDCHAR
STARTCHAR AE.c2sc
ENCODING -1
SWIDTH 676 0
DWIDTH 9 0
BBX 9 8 0 0
BITMAP
1F00
1800
1C00
2F00
2C00
7C00
4C00
8F80
ENDCHAR
STARTCHAR Thorn.c2sc
ENCODING -1
SWIDTH 440 0
DWIDTH 6 0
BBX 5 8 1 0
BITMAP
80
F0
90
98
90
F0
80
80
ENDCHAR
STARTCHAR Oslash.c2sc
ENCODING -1
SWIDTH 519 0
DWIDTH 7 0
BBX 5 8 1 0
BITMAP
78
98
98
A8
A8
C8
C8
F0
ENDCHAR
STARTCHAR Hbar.c2sc
ENCODING -1
SWIDTH 533 0
DWIDTH 7 0
BBX 7 8 0 0
BITMAP
44
FE
44
44
7C
44
44
44
ENDCHAR
STARTCHAR Eng.c2sc
ENCODING -1
SWIDTH 533 0
DWIDTH 7 0
BBX 5 11 1 -3
BITMAP
88
C8
C8
A8
A8
98
98
88
08
08
18
ENDCHAR
STARTCHAR Dcroat.c2sc
ENCODING -1
SWIDTH 492 0
DWIDTH 7 0
BBX 6 8 0 0
BITMAP
78
4C
44
E4
44
44
4C
78
ENDCHAR
STARTCHAR Eth.c2sc
ENCODING -1
SWIDTH 492 0
DWIDTH 7 0
BBX 6 8 0 0
BITMAP
78
4C
44
E4
44
44
4C
78
ENDCHAR
STARTCHAR Tbar.c2sc
ENCODING -1
SWIDTH 456 0
DWIDTH 6 0
BBX 6 8 0 0
BITMAP
FC
10
10
78
10
10
10
10
ENDCHAR
STARTCHAR Agrave.c2sc
ENCODING -1
SWIDTH 501 0
DWIDTH 7 0
BBX 7 11 0 0
BITMAP
60
10
00
10
38
28
28
6C
7C
44
C6
ENDCHAR
STARTCHAR Aacute.c2sc
ENCODING -1
SWIDTH 501 0
DWIDTH 7 0
BBX 7 11 0 0
BITMAP
0C
10
00
10
38
28
28
6C
7C
44
C6
ENDCHAR
STARTCHAR Acircumflex.c2sc
ENCODING -1
SWIDTH 501 0
DWIDTH 7 0
BBX 7 11 0 0
BITMAP
10
28
00
10
38
28
28
6C
7C
44
C6
ENDCHAR
STARTCHAR Atilde.c2sc
ENCODING -1
SWIDTH 501 0
DWIDTH 7 0
BBX 7 11 0 0
BITMAP
34
58
00
10
38
28
28
6C
7C
44
C6
ENDCHAR
STARTCHAR Adieresis.c2sc
ENCODING -1
SWIDTH 501 0
DWIDTH 7 0
BBX 7 10 0 0
BITMAP
6C
00
10
38
28
28
6C
7C
44
C6
ENDCHAR
STARTCHAR Aring.c2sc
ENCODING -1
SWIDTH 501 0
DWIDTH 7 0
BBX 7 12 0 0
BITMAP
18
28
18
00
10
38
28
28
6C
7C
44
C6
ENDCHAR
STARTCHAR Aringacute.c2sc
ENCODING -1
SWIDTH 501 0
DWIDTH 7 0
BBX 7 11 0 0
BITMAP
08
10
10
18
38
28
28
6C
7C
44
C6
ENDCHAR
STARTCHAR Ccedilla.c2sc
ENCODING -1
SWIDTH 490 0
DWIDTH 7 0
BBX 5 11 1 -3
BITMAP
70
C8
88
80
80
88
88
70
20
10
20
ENDCHAR
STARTCHAR Egrave.c2sc
ENCODING -1
SWIDTH 428 0
DWIDTH 6 0
BBX 5 11 1 0
BITMAP
C0
60
00
F8
80
80
F0
80
80
80
F8
ENDCHAR
STARTCHAR Eacute.c2sc
ENCODING -1
SWIDTH 428 0
DWIDTH 6 0
BBX 5 11 1 0
BITMAP
30
20
00
F8
80
80
F0
80
80
80
F8
ENDCHAR
STARTCHAR Ecircumflex.c2sc
ENCODING -1
SWIDTH 428 0
DWIDTH 6 0
BBX 5 11 1 0
BITMAP
60
D0
00
F8
80
80
F0
80
80
80
F8
ENDCHAR
STARTCHAR Edieresis.c2sc
ENCODING -1
SWIDTH 428 0
DWIDTH 6 0
BBX 5 10 1 0
BITMAP
D0
00
F8
80
80
F0
80
80
80
F8
ENDCHAR
STARTCHAR Igrave.c2sc
ENCODING -1
SWIDTH 221 0
DWIDTH 3 0
BBX 3 11 -1 0
BITMAP
C0
20
00
20
20
20
20
20
20
20
20
ENDCHAR
STARTCHAR Iacute.c2sc
ENCODING -1
SWIDTH 221 0
DWIDTH 3 0
BBX 3 11 1 0
BITMAP
60
80
00
80
80
80
80
80
80
80
80
ENDCHAR
STARTCHAR Icircumflex.c2sc
ENCODING -1
SWIDTH 221 0
DWIDTH 3 0
BBX 3 11 0 0
BITMAP
40
A0
00
40
40
40
40
40
40
40
40
ENDCHAR
STARTCHAR Idieresis.c2sc
ENCODING -1
SWIDTH 221 0
DWIDTH 3 0
BBX 5 10 -1 0
BITMAP
D8
00
20
20
20
20
20
20
20
20
ENDCHAR
STARTCHAR Ntilde.c2sc
ENCODING -1
SWIDTH 533 0
DWIDTH 7 0
BBX 6 11 1 0
BITMAP
68
50
00
8C
CC
CC
AC
BC
9C
8C
8C
ENDCHAR
STARTCHAR Ograve.c2sc
ENCODING -1
SWIDTH 519 0
DWIDTH 7 0
BBX 5 11 1 0
BITMAP
40
20
00
70
88
88
88
88
88
88
70
ENDCHAR
STARTCHAR Oacute.c2sc
ENCODING -1
SWIDTH 519 0
DWIDTH 7 0
BBX 5 11 1 0
BITMAP
18
20
00
70
88
88
88
88
88
88
70
ENDCHAR
STARTCHAR Ocircumflex.c2sc
ENCODING -1
SWIDTH 519 0
DWIDTH 7 0
BBX 5 11 1 0
BITMAP
20
50
00
70
88
88
88
88
88
88
70
ENDCHAR
STARTCHAR Otilde.c2sc
ENCODING -1
SWIDTH 519 0
DWIDTH 7 0
BBX 5 11 1 0
BITMAP
68
90
00
70
88
88
88
88
88
88
70
ENDCHAR
STARTCHAR Odieresis.c2sc
ENCODING -1
SWIDTH 519 0
DWIDTH 7 0
BBX 5 10 1 0
BITMAP
D8
00
70
88
88
88
88
88
88
70
ENDCHAR
STARTCHAR Ugrave.c2sc
ENCODING -1
SWIDTH 488 0
DWIDTH 7 0
BBX 5 11 1 0
BITMAP
C0
20
00
88
88
88
88
88
88
88
70
ENDCHAR
STARTCHAR Uacute.c2sc
ENCODING -1
SWIDTH 488 0
DWIDTH 7 0
BBX 5 11 1 0
BITMAP
18
20
00
88
88
88
88
88
88
88
70
ENDCHAR
STARTCHAR Ucircumflex.c2sc
ENCODING -1
SWIDTH 488 0
DWIDTH 7 0
BBX 5 11 1 0
BITMAP
20
50
00
88
88
88
88
88
88
88
70
ENDCHAR
STARTCHAR Udieresis.c2sc
ENCODING -1
SWIDTH 488 0
DWIDTH 7 0
BBX 5 10 1 0
BITMAP
D8
00
88
88
88
88
88
88
88
70
ENDCHAR
STARTCHAR Yacute.c2sc
ENCODING -1
SWIDTH 458 0
DWIDTH 6 0
BBX 6 11 0 0
BITMAP
18
30
00
C4
4C
68
38
30
10
10
10
ENDCHAR
STARTCHAR Amacron.c2sc
ENCODING -1
SWIDTH 501 0
DWIDTH 7 0
BBX 7 10 0 0
BITMAP
3C
00
10
38
28
28
6C
7C
44
C6
ENDCHAR
STARTCHAR Abreve.c2sc
ENCODING -1
SWIDTH 501 0
DWIDTH 7 0
BBX 7 11 0 0
BITMAP
6C
38
00
10
38
28
28
6C
7C
44
C6
ENDCHAR
STARTCHAR Aogonek.c2sc
ENCODING -1
SWIDTH 501 0
DWIDTH 7 0
BBX 7 11 0 -3
BITMAP
10
38
28
28
6C
7C
44
C6
04
0C
06
ENDCHAR
STARTCHAR Cacute.c2sc
ENCODING -1
SWIDTH 490 0
DWIDTH 7 0
BBX 5 11 1 0
BITMAP
18
20
00
70
C8
88
80
80
88
88
70
ENDCHAR
STARTCHAR Ccircumflex.c2sc
ENCODING -1
SWIDTH 490 0
DWIDTH 7 0
BBX 5 11 1 0
BITMAP
20
50
00
70
C8
88
80
80
88
88
70
ENDCHAR
STARTCHAR Cdotaccent.c2sc
ENCODING -1
SWIDTH 490 0
DWIDTH 7 0
BBX 5 10 1 0
BITMAP
20
00
70
C8
88
80
80
88
88
70
ENDCHAR
STARTCHAR Ccaron.c2sc
ENCODING -1
SWIDTH 490 0
DWIDTH 7 0
BBX 5 11 1 0
BITMAP
50
20
00
70
C8
88
80
80
88
88
70
ENDCHAR
STARTCHAR Dcaron.c2sc
ENCODING -1
SWIDTH 492 0
DWIDTH 7 0
BBX 5 11 1 0
BITMAP
F0
60
00
F0
98
88
88
88
88
98
F0
ENDCHAR
STARTCHAR Emacron.c2sc
ENCODING -1
SWIDTH 428 0
DWIDTH 6 0
BBX 5 10 1 0
BITMAP
F0
00
F8
80
80
F0
80
80
80
F8
ENDCHAR
STARTCHAR Ebreve.c2sc
ENCODING -1
SWIDTH 428 0
DWIDTH 6 0
BBX 5 11 1 0
BITMAP
90
70
00
F8
80
80
F0
80
80
80
F8
ENDCHAR
STARTCHAR Edotaccent.c2sc
ENCODING -1
SWIDTH 428 0
DWIDTH 6 0
BBX 5 10 1 0
BITMAP
60
00
F8
80
80
F0
80
80
80
F8
ENDCHAR
STARTCHAR Eogonek.c2sc
ENCODING -1
SWIDTH 428 0
DWIDTH 6 0
BBX 5 11 1 -3
BITMAP
F8
80
80
F0
80
80
80
F8
10
20
30
ENDCHAR
STARTCHAR Ecaron.c2sc
ENCODING -1
SWIDTH 428 0
DWIDTH 6 0
BBX 5 11 1 0
BITMAP
D0
60
00
F8
80
80
F0
80
80
80
F8
ENDCHAR
STARTCHAR Gcircumflex.c2sc
ENCODING -1
SWIDTH 509 0
DWIDTH 7 0
BBX 5 11 1 0
BITMAP
20
50
00
70
88
80
80
98
88
88
78
ENDCHAR
STARTCHAR Gbreve.c2sc
ENCODING -1
SWIDTH 509 0
DWIDTH 7 0
BBX 5 11 1 0
BITMAP
D8
70
00
70
88
80
80
98
88
88
78
ENDCHAR
STARTCHAR Gdotaccent.c2sc
ENCODING -1
SWIDTH 509 0
DWIDTH 7 0
BBX 5 10 1 0
BITMAP
20
00
70
88
80
80
98
88
88
78
ENDCHAR
STARTCHAR uni0122.c2sc
ENCODING -1
SWIDTH 509 0
DWIDTH 7 0
BBX 5 12 1 -4
BITMAP
70
88
80
80
98
88
88
78
00
20
20
40
ENDCHAR
STARTCHAR Hcircumflex.c2sc
ENCODING -1
SWIDTH 533 0
DWIDTH 7 0
BBX 6 11 1 0
BITMAP
30
50
00
8C
8C
8C
FC
8C
8C
8C
8C
ENDCHAR
STARTCHAR Itilde.c2sc
ENCODING -1
SWIDTH 221 0
DWIDTH 3 0
BBX 5 11 -1 0
BITMAP
68
90
00
20
20
20
20
20
20
20
20
ENDCHAR
STARTCHAR Imacron.c2sc
ENCODING -1
SWIDTH 221 0
DWIDTH 3 0
BBX 4 10 0 0
BITMAP
F0
00
40
40
40
40
40
40
40
40
ENDCHAR
STARTCHAR Ibreve.c2sc
ENCODING -1
SWIDTH 221 0
DWIDTH 3 0
BBX 5 11 -1 0
BITMAP
D8
70
00
20
20
20
20
20
20
20
20
ENDCHAR
STARTCHAR Iogonek.c2sc
ENCODING -1
SWIDTH 221 0
DWIDTH 3 0
BBX 3 11 0 -3
BITMAP
40
40
40
40
40
40
40
40
40
80
60
ENDCHAR
STARTCHAR Idotaccent.c2sc
ENCODING -1
SWIDTH 221 0
DWIDTH 3 0
BBX 1 10 1 0
BITMAP
80
00
80
80
80
80
80
80
80
80
ENDCHAR
STARTCHAR Jcircumflex.c2sc
ENCODING -1
SWIDTH 419 0
DWIDTH 6 0
BBX 6 11 0 0
BITMAP
18
14
00
08
08
08
08
08
08
C8
70
ENDCHAR
STARTCHAR uni0136.c2sc
ENCODING -1
SWIDTH 473 0
DWIDTH 7 0
BBX 6 12 1 -4
BITMAP
8C
90
B0
E0
F0
90
98
88
04
60
40
40
ENDCHAR
STARTCHAR Lacute.c2sc
ENCODING -1
SWIDTH 411 0
DWIDTH 6 0
BBX 4 11 1 0
BITMAP
60
80
00
80
80
80
80
80
80
80
F0
ENDCHAR
STARTCHAR uni013B.c2sc
ENCODING -1
SWIDTH 411 0
DWIDTH 6 0
BBX 4 12 1 -4
BITMAP
80
80
80
80
80
80
80
F0
00
60
40
40
ENDCHAR
STARTCHAR Lcaron.c2sc
ENCODING -1
SWIDTH 411 0
DWIDTH 6 0
BBX 4 8 1 0
BITMAP
A0
A0
A0
80
80
80
80
F0
ENDCHAR
STARTCHAR Ldot.c2sc
ENCODING -1
SWIDTH 411 0
DWIDTH 6 0
BBX 4 8 1 0
BITMAP
80
80
80
A0
80
80
80
F0
ENDCHAR
STARTCHAR Nacute.c2sc
ENCODING -1
SWIDTH 533 0
DWIDTH 7 0
BBX 6 11 1 0
BITMAP
18
30
00
8C
CC
CC
AC
BC
9C
8C
8C
ENDCHAR
STARTCHAR uni0145.c2sc
ENCODING -1
SWIDTH 533 0
DWIDTH 7 0
BBX 6 12 1 -4
BITMAP
8C
CC
CC
AC
BC
9C
8C
8C
00
20
20
20
ENDCHAR
STARTCHAR Ncaron.c2sc
ENCODING -1
SWIDTH 533 0
DWIDTH 7 0
BBX 6 11 1 0
BITMAP
58
20
00
8C
CC
CC
AC
BC
9C
8C
8C
ENDCHAR
STARTCHAR Omacron.c2sc
ENCODING -1
SWIDTH 519 0
DWIDTH 7 0
BBX 5 10 1 0
BITMAP
78
00
70
88
88
88
88
88
88
70
ENDCHAR
STARTCHAR Obreve.c2sc
ENCODING -1
SWIDTH 519 0
DWIDTH 7 0
BBX 5 11 1 0
BITMAP
48
70
00
70
88
88
88
88
88
88
70
ENDCHAR
STARTCHAR Ohungarumlaut.c2sc
ENCODING -1
SWIDTH 519 0
DWIDTH 7 0
BBX 5 11 1 0
BITMAP
28
50
00
70
88
88
88
88
88
88
70
ENDCHAR
STARTCHAR Racute.c2sc
ENCODING -1
SWIDTH 465 0
DWIDTH 7 0
BBX 6 11 1 0
BITMAP
30
60
00
F0
88
88
88
F0
90
98
8C
ENDCHAR
STARTCHAR uni0156.c2sc
ENCODING -1
SWIDTH 465 0
DWIDTH 7 0
BBX 6 12 1 -4
BITMAP
F0
88
88
88
F0
90
98
88
04
60
40
40
ENDCHAR
STARTCHAR Rcaron.c2sc
ENCODING -1
SWIDTH 465 0
DWIDTH 7 0
BBX 6 11 1 0
BITMAP
D0
60
00
F0
88
88
88
F0
90
98
8C
ENDCHAR
STARTCHAR Sacute.c2sc
ENCODING -1
SWIDTH 453 0
DWIDTH 6 0
BBX 6 11 0 0
BITMAP
18
10
00
78
4C
40
60
18
0C
CC
78
ENDCHAR
STARTCHAR Scircumflex.c2sc
ENCODING -1
SWIDTH 453 0
DWIDTH 6 0
BBX 6 11 0 0
BITMAP
30
68
00
78
4C
40
60
18
0C
CC
78
ENDCHAR
STARTCHAR Scedilla.c2sc
ENCODING -1
SWIDTH 453 0
DWIDTH 6 0
BBX 6 11 0 -3
BITMAP
78
4C
40
60
18
0C
CC
78
10
10
10
ENDCHAR
STARTCHAR Scaron.c2sc
ENCODING -1
SWIDTH 453 0
DWIDTH 6 0
BBX 6 11 0 0
BITMAP
68
10
00
78
4C
40
60
18
0C
CC
78
ENDCHAR
STARTCHAR uni021A.c2sc
ENCODING -1
SWIDTH 456 0
DWIDTH 6 0
BBX 6 12 0 -4
BITMAP
FC
10
10
10
10
10
10
10
00
30
20
20
ENDCHAR
STARTCHAR Tcaron.c2sc
ENCODING -1
SWIDTH 456 0
DWIDTH 6 0
BBX 6 11 0 0
BITMAP
68
30
00
FC
10
10
10
10
10
10
10
ENDCHAR
STARTCHAR uni0162.c2sc
ENCODING -1
SWIDTH 456 0
DWIDTH 6 0
BBX 6 11 0 -3
BITMAP
FC
10
10
10
10
10
10
10
10
30
10
ENDCHAR
STARTCHAR Utilde.c2sc
ENCODING -1
SWIDTH 488 0
DWIDTH 7 0
BBX 5 11 1 0
BITMAP
50
B0
00
88
88
88
88
88
88
88
70
ENDCHAR
STARTCHAR Umacron.c2sc
ENCODING -1
SWIDTH 488 0
DWIDTH 7 0
BBX 5 10 1 0
BITMAP
F0
00
88
88
88
88
88
88
88
70
ENDCHAR
STARTCHAR Ubreve.c2sc
ENCODING -1
SWIDTH 488 0
DWIDTH 7 0
BBX 5 11 1 0
BITMAP
D0
70
00
88
88
88
88
88
88
88
70
ENDCHAR
STARTCHAR Uring.c2sc
ENCODING -1
SWIDTH 488 0
DWIDTH 7 0
BBX 5 12 1 0
BITMAP
70
50
70
00
88
88
88
88
88
88
88
70
ENDCHAR
STARTCHAR Uhungarumlaut.c2sc
ENCODING -1
SWIDTH 488 0
DWIDTH 7 0
BBX 5 11 1 0
BITMAP
38
50
00
88
88
88
88
88
88
88
70
ENDCHAR
STARTCHAR Uogonek.c2sc
ENCODING -1
SWIDTH 488 0
DWIDTH 7 0
BBX 5 11 1 -3
BITMAP
88
88
88
88
88
88
88
70
20
20
30
ENDCHAR
STARTCHAR Wcircumflex.c2sc
ENCODING -1
SWIDTH 655 0
DWIDTH 9 0
BBX 9 11 0 0
BITMAP
0800
1400
0000
C980
4900
5500
5500
5500
7500
2200
2200
ENDCHAR
STARTCHAR Ycircumflex.c2sc
ENCODING -1
SWIDTH 458 0
DWIDTH 6 0
BBX 6 11 0 0
BITMAP
30
68
00
C4
4C
68
38
30
10
10
10
ENDCHAR
STARTCHAR Ydieresis.c2sc
ENCODING -1
SWIDTH 458 0
DWIDTH 6 0
BBX 6 10 0 0
BITMAP
48
20
C4
4C
68
38
30
10
10
10
ENDCHAR
STARTCHAR Zacute.c2sc
ENCODING -1
SWIDTH 454 0
DWIDTH 6 0
BBX 5 11 1 0
BITMAP
30
60
00
F8
10
30
20
40
40
80
F8
ENDCHAR
STARTCHAR Zdotaccent.c2sc
ENCODING -1
SWIDTH 454 0
DWIDTH 6 0
BBX 5 10 1 0
BITMAP
60
00
F8
10
30
20
40
40
80
F8
ENDCHAR
STARTCHAR Zcaron.c2sc
ENCODING -1
SWIDTH 454 0
DWIDTH 6 0
BBX 5 11 1 0
BITMAP
D0
60
00
F8
10
30
20
40
40
80
F8
ENDCHAR
STARTCHAR two.pnum
ENCODING -1
SWIDTH 493 0
DWIDTH 7 0
BBX 5 10 1 0
BITMAP
70
98
88
08
10
10
20
40
C0
F8
ENDCHAR
STARTCHAR three.pnum
ENCODING -1
SWIDTH 493 0
DWIDTH 7 0
BBX 5 10 1 0
BITMAP
70
98
88
18
70
18
08
88
98
70
ENDCHAR
STARTCHAR four.pnum
ENCODING -1
SWIDTH 493 0
DWIDTH 7 0
BBX 7 10 0 0
BITMAP
08
18
18
28
28
68
48
FE
08
08
ENDCHAR
STARTCHAR five.pnum
ENCODING -1
SWIDTH 493 0
DWIDTH 7 0
BBX 5 10 1 0
BITMAP
78
40
C0
F0
88
08
08
88
C8
70
ENDCHAR
STARTCHAR six.pnum
ENCODING -1
SWIDTH 503 0
DWIDTH 7 0
BBX 5 10 1 0
BITMAP
30
40
40
B0
C8
88
88
88
48
70
ENDCHAR
STARTCHAR eight.pnum
ENCODING -1
SWIDTH 513 0
DWIDTH 7 0
BBX 5 10 1 0
BITMAP
70
C8
88
C8
70
C8
88
88
C8
70
ENDCHAR
STARTCHAR nine.pnum
ENCODING -1
SWIDTH 503 0
DWIDTH 7 0
BBX 5 10 1 0
BITMAP
70
98
88
88
88
98
68
08
10
60
ENDCHAR
STARTCHAR zero.pnum
ENCODING -1
SWIDTH 513 0
DWIDTH 7 0
BBX 5 10 1 0
BITMAP
70
C8
88
88
88
88
88
88
C8
70
ENDCHAR
STARTCHAR G_acutecomb.ccmp
ENCODING -1
SWIDTH 590 0
DWIDTH 8 0
BBX 6 13 1 0
BITMAP
18
30
00
78
CC
84
80
80
9C
84
84
C4
78
ENDCHAR
STARTCHAR g_acutecomb.ccmp
ENCODING -1
SWIDTH 492 0
DWIDTH 7 0
BBX 5 14 1 -3
BITMAP
30
20
00
68
98
88
88
88
88
88
78
08
98
70
ENDCHAR
STARTCHAR N_gravecomb.ccmp
ENCODING -1
SWIDTH 619 0
DWIDTH 9 0
BBX 7 13 1 0
BITMAP
60
10
00
C2
C2
E2
E2
D2
D2
CA
CA
C6
C6
ENDCHAR
STARTCHAR n_gravecomb.ccmp
ENCODING -1
SWIDTH 483 0
DWIDTH 7 0
BBX 5 11 1 0
BITMAP
C0
20
00
B0
C8
88
88
88
88
88
88
ENDCHAR
STARTCHAR A_uni030F.ccmp
ENCODING -1
SWIDTH 576 0
DWIDTH 8 0
BBX 8 13 0 0
BITMAP
78
38
00
18
18
18
24
24
24
7E
42
42
C3
ENDCHAR
STARTCHAR a_uni030F.ccmp
ENCODING -1
SWIDTH 479 0
DWIDTH 7 0
BBX 6 11 0 0
BITMAP
F0
38
00
38
44
04
3C
64
44
4C
34
ENDCHAR
STARTCHAR E_uni030F.ccmp
ENCODING -1
SWIDTH 496 0
DWIDTH 7 0
BBX 5 13 1 0
BITMAP
A0
50
00
F8
80
80
80
F8
80
80
80
80
F8
ENDCHAR
STARTCHAR e_uni030F.ccmp
ENCODING -1
SWIDTH 468 0
DWIDTH 7 0
BBX 6 11 0 0
BITMAP
F0
30
08
38
64
44
7C
40
40
64
3C
ENDCHAR
STARTCHAR I_uni030F.ccmp
ENCODING -1
SWIDTH 250 0
DWIDTH 4 0
BBX 4 13 -1 0
BITMAP
A0
50
00
20
20
20
20
20
20
20
20
20
20
ENDCHAR
STARTCHAR dotlessi_uni030F.ccmp
ENCODING -1
SWIDTH 234 0
DWIDTH 3 0
BBX 4 11 -1 0
BITMAP
A0
50
00
20
20
20
20
20
20
20
20
ENDCHAR
STARTCHAR O_uni030F.ccmp
ENCODING -1
SWIDTH 600 0
DWIDTH 8 0
BBX 6 13 1 0
BITMAP
F0
70
00
78
CC
84
84
84
84
84
84
CC
78
ENDCHAR
STARTCHAR o_uni030F.ccmp
ENCODING -1
SWIDTH 501 0
DWIDTH 7 0
BBX 6 11 0 0
BITMAP
F0
30
08
38
44
44
44
44
44
44
38
ENDCHAR
STARTCHAR R_uni030F.ccmp
ENCODING -1
SWIDTH 530 0
DWIDTH 7 0
BBX 6 13 1 0
BITMAP
A0
50
00
F8
88
8C
8C
88
F0
90
88
88
8C
ENDCHAR
STARTCHAR r_uni030F.ccmp
ENCODING -1
SWIDTH 304 0
DWIDTH 4 0
BBX 5 11 -1 0
BITMAP
F0
38
00
38
20
20
20
20
20
20
20
ENDCHAR
STARTCHAR U_uni030F.ccmp
ENCODING -1
SWIDTH 561 0
DWIDTH 8 0
BBX 6 13 1 0
BITMAP
E0
50
20
84
84
84
84
84
84
84
84
CC
78
ENDCHAR
STARTCHAR u_uni030F.ccmp
ENCODING -1
SWIDTH 483 0
DWIDTH 7 0
BBX 6 11 0 0
BITMAP
F0
30
08
44
44
44
44
44
44
4C
34
ENDCHAR
STARTCHAR Upsilon1_acutecomb.ccmp
ENCODING -1
SWIDTH 514 0
DWIDTH 7 0
BBX 10 11 -2 0
BITMAP
4000
98C0
0980
0900
0500
0600
0600
0200
0200
0200
0200
ENDCHAR
STARTCHAR B_dotbelowcomb.ccmp
ENCODING -1
SWIDTH 545 0
DWIDTH 8 0
BBX 6 12 1 -2
BITMAP
F8
8C
8C
88
F8
8C
84
84
8C
F8
00
20
ENDCHAR
STARTCHAR b_dotbelowcomb.ccmp
ENCODING -1
SWIDTH 493 0
DWIDTH 7 0
BBX 5 13 1 -2
BITMAP
80
80
80
B0
C8
88
88
88
88
C8
B0
00
20
ENDCHAR
STARTCHAR D_dotbelowcomb.ccmp
ENCODING -1
SWIDTH 570 0
DWIDTH 8 0
BBX 6 12 1 -2
BITMAP
F0
88
84
84
84
84
84
84
88
F0
00
20
ENDCHAR
STARTCHAR d_dotbelowcomb.ccmp
ENCODING -1
SWIDTH 496 0
DWIDTH 7 0
BBX 5 13 1 -2
BITMAP
08
08
08
68
98
88
88
88
88
88
78
00
20
ENDCHAR
STARTCHAR D_uniF6C3.ccmp
ENCODING -1
SWIDTH 570 0
DWIDTH 8 0
BBX 6 14 1 -4
BITMAP
F0
88
84
84
84
84
84
84
88
F0
00
20
20
20
ENDCHAR
STARTCHAR d_uniF6C3.ccmp
ENCODING -1
SWIDTH 496 0
DWIDTH 7 0
BBX 5 15 1 -4
BITMAP
08
08
08
68
98
88
88
88
88
88
78
00
20
20
20
ENDCHAR
STARTCHAR H_dotbelowcomb.ccmp
ENCODING -1
SWIDTH 620 0
DWIDTH 9 0
BBX 7 12 1 -2
BITMAP
C2
C2
C2
C2
FE
C2
C2
C2
C2
C2
00
30
ENDCHAR
STARTCHAR h_dotbelowcomb.ccmp
ENCODING -1
SWIDTH 482 0
DWIDTH 7 0
BBX 5 13 1 -2
BITMAP
80
80
80
B0
C8
88
88
88
88
88
88
00
20
ENDCHAR
STARTCHAR K_acutecomb.ccmp
ENCODING -1
SWIDTH 544 0
DWIDTH 8 0
BBX 7 13 1 0
BITMAP
18
20
00
C6
C8
D8
D0
E0
D0
D8
C8
CC
C6
ENDCHAR
STARTCHAR k_acutecomb.ccmp
ENCODING -1
SWIDTH 450 0
DWIDTH 6 0
BBX 5 12 1 0
BITMAP
30
A0
80
80
98
B0
A0
C0
E0
B0
90
98
ENDCHAR
STARTCHAR K_dotbelowcomb.ccmp
ENCODING -1
SWIDTH 544 0
DWIDTH 8 0
BBX 7 11 1 -1
BITMAP
C6
C8
D8
D0
E0
D0
D8
C8
CC
C4
32
ENDCHAR
STARTCHAR k_dotbelowcomb.ccmp
ENCODING -1
SWIDTH 450 0
DWIDTH 6 0
BBX 5 13 1 -2
BITMAP
80
80
80
98
B0
A0
C0
E0
B0
90
98
00
60
ENDCHAR
STARTCHAR L_dotbelowcomb.ccmp
ENCODING -1
SWIDTH 475 0
DWIDTH 7 0
BBX 5 12 1 -2
BITMAP
80
80
80
80
80
80
80
80
80
F8
00
20
ENDCHAR
STARTCHAR l_dotbelowcomb.ccmp
ENCODING -1
SWIDTH 229 0
DWIDTH 3 0
BBX 1 13 1 -2
BITMAP
80
80
80
80
80
80
80
80
80
80
80
00
80
ENDCHAR
STARTCHAR M_dotbelowcomb.ccmp
ENCODING -1
SWIDTH 755 0
DWIDTH 11 0
BBX 9 12 1 -2
BITMAP
C180
C380
C380
A380
A780
A580
9580
9D80
9980
8980
0000
1800
ENDCHAR
STARTCHAR m_dotbelowcomb.ccmp
ENCODING -1
SWIDTH 752 0
DWIDTH 11 0
BBX 9 10 1 -2
BITMAP
B700
C980
8880
8880
8880
8880
8880
8880
0000
1800
ENDCHAR
STARTCHAR N_dotbelowcomb.ccmp
ENCODING -1
SWIDTH 619 0
DWIDTH 9 0
BBX 7 12 1 -2
BITMAP
C2
C2
E2
E2
D2
D2
CA
CA
C6
C6
00
30
ENDCHAR
STARTCHAR n_dotbelowcomb.ccmp
ENCODING -1
SWIDTH 483 0
DWIDTH 7 0
BBX 5 10 1 -2
BITMAP
B0
C8
88
88
88
88
88
88
00
20
ENDCHAR
STARTCHAR O_tildecomb_acutecomb.ccmp
ENCODING -1
SWIDTH 600 0
DWIDTH 8 0
BBX 6 15 1 0
BITMAP
18
10
28
58
00
78
CC
84
84
84
84
84
84
CC
78
ENDCHAR
STARTCHAR P_acutecomb.ccmp
ENCODING -1
SWIDTH 554 0
DWIDTH 8 0
BBX 6 13 1 0
BITMAP
18
20
00
F8
84
84
84
84
F8
80
80
80
80
ENDCHAR
STARTCHAR p_acutecomb.ccmp
ENCODING -1
SWIDTH 493 0
DWIDTH 7 0
BBX 5 14 1 -3
BITMAP
18
30
00
B0
C8
88
88
88
88
88
F0
80
80
80
ENDCHAR
STARTCHAR R_dotbelowcomb.ccmp
ENCODING -1
SWIDTH 530 0
DWIDTH 7 0
BBX 6 12 1 -2
BITMAP
F8
88
8C
8C
88
F0
90
88
88
8C
00
20
ENDCHAR
STARTCHAR r_dotbelowcomb.ccmp
ENCODING -1
SWIDTH 304 0
DWIDTH 4 0
BBX 3 10 1 -2
BITMAP
E0
80
80
80
80
80
80
80
00
80
ENDCHAR
STARTCHAR S_dotbelowcomb.ccmp
ENCODING -1
SWIDTH 518 0
DWIDTH 7 0
BBX 7 12 0 -2
BITMAP
38
44
46
40
70
1C
04
C6
44
38
00
10
ENDCHAR
STARTCHAR s_dotbelowcomb.ccmp
ENCODING -1
SWIDTH 455 0
DWIDTH 6 0
BBX 6 10 0 -2
BITMAP
38
48
40
60
18
08
CC
78
00
10
ENDCHAR
STARTCHAR T_dotbelowcomb.ccmp
ENCODING -1
SWIDTH 520 0
DWIDTH 7 0
BBX 7 12 0 -2
BITMAP
FE
10
10
10
10
10
10
10
10
10
00
10
ENDCHAR
STARTCHAR t_dotbelowcomb.ccmp
ENCODING -1
SWIDTH 295 0
DWIDTH 4 0
BBX 4 12 0 -2
BITMAP
40
40
F0
40
40
40
40
40
40
30
00
20
ENDCHAR
STARTCHAR U_tildecomb_acutecomb.ccmp
ENCODING -1
SWIDTH 561 0
DWIDTH 8 0
BBX 6 15 1 0
BITMAP
10
10
28
50
00
84
84
84
84
84
84
84
84
CC
78
ENDCHAR
STARTCHAR V_tildecomb.ccmp
ENCODING -1
SWIDTH 560 0
DWIDTH 8 0
BBX 8 13 0 0
BITMAP
34
2C
00
C3
42
42
66
24
24
3C
18
18
18
ENDCHAR
STARTCHAR v_tildecomb.ccmp
ENCODING -1
SWIDTH 427 0
DWIDTH 6 0
BBX 6 11 0 0
BITMAP
68
58
00
CC
48
48
48
30
30
30
30
ENDCHAR
STARTCHAR V_dotbelowcomb.ccmp
ENCODING -1
SWIDTH 560 0
DWIDTH 8 0
BBX 8 12 0 -2
BITMAP
C3
42
42
66
24
24
3C
18
18
18
00
18
ENDCHAR
STARTCHAR v_dotbelowcomb.ccmp
ENCODING -1
SWIDTH 427 0
DWIDTH 6 0
BBX 6 10 0 -2
BITMAP
CC
48
48
48
30
30
30
30
00
30
ENDCHAR
STARTCHAR W_dotbelowcomb.ccmp
ENCODING -1
SWIDTH 761 0
DWIDTH 11 0
BBX 10 12 0 -2
BITMAP
C440
4440
4C40
4AC0
6A80
2A80
3280
3180
3180
3100
0000
0400
ENDCHAR
STARTCHAR w_dotbelowcomb.ccmp
ENCODING -1
SWIDTH 649 0
DWIDTH 9 0
BBX 9 10 0 -2
BITMAP
C980
4900
5500
5500
5500
3600
2200
2200
0000
0800
ENDCHAR
STARTCHAR Z_dotbelowcomb.ccmp
ENCODING -1
SWIDTH 522 0
DWIDTH 7 0
BBX 6 12 1 -2
BITMAP
FC
08
18
10
30
20
40
40
80
FC
00
20
ENDCHAR
STARTCHAR z_dotbelowcomb.ccmp
ENCODING -1
SWIDTH 438 0
DWIDTH 6 0
BBX 5 10 1 -2
BITMAP
F0
10
30
20
40
40
80
F8
00
60
ENDCHAR
STARTCHAR Alphatonos.c2sc
ENCODING -1
SWIDTH 501 0
DWIDTH 7 0
BBX 7 9 0 0
BITMAP
40
50
38
28
28
6C
7C
44
C6
ENDCHAR
STARTCHAR Epsilontonos.c2sc
ENCODING -1
SWIDTH 458 0
DWIDTH 6 0
BBX 7 9 -1 0
BITMAP
C0
BE
30
30
3C
30
30
30
3E
ENDCHAR
STARTCHAR Etatonos.c2sc
ENCODING -1
SWIDTH 562 0
DWIDTH 8 0
BBX 8 9 -1 0
BITMAP
C0
B1
31
31
3F
31
31
31
31
ENDCHAR
STARTCHAR Iotatonos.c2sc
ENCODING -1
SWIDTH 250 0
DWIDTH 4 0
BBX 4 9 -1 0
BITMAP
C0
B0
30
30
30
30
30
30
30
ENDCHAR
STARTCHAR Omicrontonos.c2sc
ENCODING -1
SWIDTH 523 0
DWIDTH 7 0
BBX 7 9 0 0
BITMAP
80
B8
44
44
46
46
44
44
38
ENDCHAR
STARTCHAR Upsilontonos.c2sc
ENCODING -1
SWIDTH 487 0
DWIDTH 7 0
BBX 8 9 -1 0
BITMAP
80
A3
32
14
14
0C
08
08
08
ENDCHAR
STARTCHAR Omegatonos.c2sc
ENCODING -1
SWIDTH 545 0
DWIDTH 8 0
BBX 7 9 0 0
BITMAP
80
BC
26
42
42
42
42
24
7E
ENDCHAR
STARTCHAR Alpha.c2sc
ENCODING -1
SWIDTH 501 0
DWIDTH 7 0
BBX 7 8 0 0
BITMAP
10
38
28
28
6C
7C
44
C6
ENDCHAR
STARTCHAR Beta.c2sc
ENCODING -1
SWIDTH 475 0
DWIDTH 7 0
BBX 5 8 1 0
BITMAP
F0
98
98
F0
88
88
88
F0
ENDCHAR
STARTCHAR Epsilon.c2sc
ENCODING -1
SWIDTH 428 0
DWIDTH 6 0
BBX 5 8 1 0
BITMAP
F8
80
80
F0
80
80
80
F8
ENDCHAR
STARTCHAR Zeta.c2sc
ENCODING -1
SWIDTH 454 0
DWIDTH 6 0
BBX 5 8 1 0
BITMAP
F8
10
30
20
40
40
80
F8
ENDCHAR
STARTCHAR Eta.c2sc
ENCODING -1
SWIDTH 533 0
DWIDTH 7 0
BBX 6 8 1 0
BITMAP
8C
8C
8C
FC
8C
8C
8C
8C
ENDCHAR
STARTCHAR Iota.c2sc
ENCODING -1
SWIDTH 221 0
DWIDTH 3 0
BBX 1 8 1 0
BITMAP
80
80
80
80
80
80
80
80
ENDCHAR
STARTCHAR Kappa.c2sc
ENCODING -1
SWIDTH 473 0
DWIDTH 7 0
BBX 6 8 1 0
BITMAP
8C
90
B0
E0
F0
90
98
8C
ENDCHAR
STARTCHAR Mu.c2sc
ENCODING -1
SWIDTH 652 0
DWIDTH 9 0
BBX 7 8 1 0
BITMAP
C6
C6
C6
EE
AA
AA
92
92
ENDCHAR
STARTCHAR Nu.c2sc
ENCODING -1
SWIDTH 533 0
DWIDTH 7 0
BBX 6 8 1 0
BITMAP
8C
CC
CC
AC
BC
9C
8C
8C
ENDCHAR
STARTCHAR Omicron.c2sc
ENCODING -1
SWIDTH 519 0
DWIDTH 7 0
BBX 5 8 1 0
BITMAP
70
88
88
88
88
88
88
70
ENDCHAR
STARTCHAR Rho.c2sc
ENCODING -1
SWIDTH 481 0
DWIDTH 7 0
BBX 5 8 1 0
BITMAP
F0
88
88
88
F8
80
80
80
ENDCHAR
STARTCHAR Tau.c2sc
ENCODING -1
SWIDTH 456 0
DWIDTH 6 0
BBX 6 8 0 0
BITMAP
FC
10
10
10
10
10
10
10
ENDCHAR
STARTCHAR Upsilon.c2sc
ENCODING -1
SWIDTH 458 0
DWIDTH 6 0
BBX 6 8 0 0
BITMAP
C4
4C
68
38
30
10
10
10
ENDCHAR
STARTCHAR Chi.c2sc
ENCODING -1
SWIDTH 478 0
DWIDTH 7 0
BBX 6 8 0 0
BITMAP
C4
68
28
30
30
28
6C
C4
ENDCHAR
STARTCHAR Iotadieresis.c2sc
ENCODING -1
SWIDTH 221 0
DWIDTH 3 0
BBX 5 10 -1 0
BITMAP
D8
00
20
20
20
20
20
20
20
20
ENDCHAR
STARTCHAR Upsilondieresis.c2sc
ENCODING -1
SWIDTH 458 0
DWIDTH 6 0
BBX 6 10 0 0
BITMAP
48
20
C4
4C
68
38
30
10
10
10
ENDCHAR
STARTCHAR uni0401.c2sc
ENCODING -1
SWIDTH 428 0
DWIDTH 6 0
BBX 5 10 1 0
BITMAP
D0
00
F8
80
80
F0
80
80
80
F8
ENDCHAR
STARTCHAR uni0403.c2sc
ENCODING -1
SWIDTH 405 0
DWIDTH 6 0
BBX 4 11 1 0
BITMAP
30
20
00
F0
80
80
80
80
80
80
80
ENDCHAR
STARTCHAR uni0405.c2sc
ENCODING -1
SWIDTH 453 0
DWIDTH 6 0
BBX 6 8 0 0
BITMAP
78
4C
40
60
18
0C
CC
78
ENDCHAR
STARTCHAR uni0406.c2sc
ENCODING -1
SWIDTH 221 0
DWIDTH 3 0
BBX 1 8 1 0
BITMAP
80
80
80
80
80
80
80
80
ENDCHAR
STARTCHAR uni0407.c2sc
ENCODING -1
SWIDTH 221 0
DWIDTH 3 0
BBX 5 10 -1 0
BITMAP
D8
00
20
20
20
20
20
20
20
20
ENDCHAR
STARTCHAR uni0408.c2sc
ENCODING -1
SWIDTH 419 0
DWIDTH 6 0
BBX 5 8 0 0
BITMAP
08
08
08
08
08
08
C8
70
ENDCHAR
STARTCHAR uni040C.c2sc
ENCODING -1
SWIDTH 473 0
DWIDTH 7 0
BBX 6 11 1 0
BITMAP
30
60
00
8C
90
B0
E0
F0
90
98
8C
ENDCHAR
STARTCHAR uni040E.c2sc
ENCODING -1
SWIDTH 454 0
DWIDTH 6 0
BBX 6 11 0 0
BITMAP
48
38
00
CC
48
48
78
30
30
30
60
ENDCHAR
STARTCHAR uni0410.c2sc
ENCODING -1
SWIDTH 501 0
DWIDTH 7 0
BBX 7 8 0 0
BITMAP
10
38
28
28
6C
7C
44
C6
ENDCHAR
STARTCHAR uni0412.c2sc
ENCODING -1
SWIDTH 475 0
DWIDTH 7 0
BBX 5 8 1 0
BITMAP
F0
98
98
F0
88
88
88
F0
ENDCHAR
STARTCHAR uni0413.c2sc
ENCODING -1
SWIDTH 405 0
DWIDTH 6 0
BBX 4 8 1 0
BITMAP
F0
80
80
80
80
80
80
80
ENDCHAR
STARTCHAR uni0415.c2sc
ENCODING -1
SWIDTH 428 0
DWIDTH 6 0
BBX 5 8 1 0
BITMAP
F8
80
80
F0
80
80
80
F8
ENDCHAR
STARTCHAR uni0419.c2sc
ENCODING -1
SWIDTH 537 0
DWIDTH 8 0
BBX 6 11 1 0
BITMAP
48
70
00
8C
8C
9C
94
A4
A4
C4
C4
ENDCHAR
STARTCHAR uni041C.c2sc
ENCODING -1
SWIDTH 652 0
DWIDTH 9 0
BBX 7 8 1 0
BITMAP
C6
C6
C6
EE
AA
AA
92
92
ENDCHAR
STARTCHAR uni041D.c2sc
ENCODING -1
SWIDTH 533 0
DWIDTH 7 0
BBX 6 8 1 0
BITMAP
8C
8C
8C
FC
8C
8C
8C
8C
ENDCHAR
STARTCHAR uni041E.c2sc
ENCODING -1
SWIDTH 519 0
DWIDTH 7 0
BBX 5 8 1 0
BITMAP
70
88
88
88
88
88
88
70
ENDCHAR
STARTCHAR uni041F.c2sc
ENCODING -1
SWIDTH 525 0
DWIDTH 7 0
BBX 5 8 1 0
BITMAP
F8
88
88
88
88
88
88
88
ENDCHAR
STARTCHAR uni0420.c2sc
ENCODING -1
SWIDTH 481 0
DWIDTH 7 0
BBX 5 8 1 0
BITMAP
F0
88
88
88
F8
80
80
80
ENDCHAR
STARTCHAR uni0421.c2sc
ENCODING -1
SWIDTH 490 0
DWIDTH 7 0
BBX 5 8 1 0
BITMAP
70
C8
88
80
80
88
88
70
ENDCHAR
STARTCHAR uni0422.c2sc
ENCODING -1
SWIDTH 456 0
DWIDTH 6 0
BBX 6 8 0 0
BITMAP
FC
10
10
10
10
10
10
10
ENDCHAR
STARTCHAR uni0425.c2sc
ENCODING -1
SWIDTH 478 0
DWIDTH 7 0
BBX 6 8 0 0
BITMAP
C4
68
28
30
30
28
6C
C4
ENDCHAR
STARTCHAR uni0498.c2sc
ENCODING -1
SWIDTH 466 0
DWIDTH 7 0
BBX 5 11 1 -3
BITMAP
70
88
08
30
08
08
88
F0
20
20
20
ENDCHAR
STARTCHAR uni04A2.c2sc
ENCODING -1
SWIDTH 533 0
DWIDTH 7 0
BBX 7 10 1 -2
BITMAP
8C
8C
8C
FC
8C
8C
8C
8E
06
06
ENDCHAR
STARTCHAR uni04AA.c2sc
ENCODING -1
SWIDTH 490 0
DWIDTH 7 0
BBX 5 11 1 -3
BITMAP
70
C8
88
80
80
88
88
70
20
20
20
ENDCHAR
STARTCHAR uni04AE.c2sc
ENCODING -1
SWIDTH 458 0
DWIDTH 6 0
BBX 6 8 0 0
BITMAP
C4
4C
68
38
30
10
10
10
ENDCHAR
STARTCHAR uni04BE.c2sc
ENCODING -1
SWIDTH 632 0
DWIDTH 9 0
BBX 8 11 0 -3
BITMAP
0E
91
A1
7F
20
30
10
0E
04
04
04
ENDCHAR
STARTCHAR uni04E2.c2sc
ENCODING -1
SWIDTH 537 0
DWIDTH 8 0
BBX 6 10 1 0
BITMAP
78
00
8C
8C
9C
94
A4
A4
C4
C4
ENDCHAR
STARTCHAR uni04EE.c2sc
ENCODING -1
SWIDTH 454 0
DWIDTH 6 0
BBX 6 10 0 0
BITMAP
78
00
CC
48
48
78
30
30
30
60
ENDCHAR
STARTCHAR uni0424.c2sc
ENCODING -1
SWIDTH 587 0
DWIDTH 8 0
BBX 6 8 1 0
BITMAP
30
78
B4
B4
B4
B4
78
30
ENDCHAR
STARTCHAR IJ.c2sc
ENCODING -1
SWIDTH 641 0
DWIDTH 9 0
BBX 7 8 1 0
BITMAP
82
82
82
82
82
82
B2
9C
ENDCHAR
STARTCHAR AEacute.c2sc
ENCODING -1
SWIDTH 676 0
DWIDTH 9 0
BBX 9 10 0 0
BITMAP
0600
0400
1F00
1800
1C00
2F00
2C00
7C00
4C00
8F80
ENDCHAR
STARTCHAR Oslashacute.c2sc
ENCODING -1
SWIDTH 519 0
DWIDTH 7 0
BBX 5 10 1 0
BITMAP
18
20
78
98
98
A8
A8
C8
C8
F0
ENDCHAR
STARTCHAR uni0218.c2sc
ENCODING -1
SWIDTH 453 0
DWIDTH 6 0
BBX 6 12 0 -4
BITMAP
78
4C
40
60
18
0C
CC
78
00
10
30
20
ENDCHAR
STARTCHAR Wgrave.c2sc
ENCODING -1
SWIDTH 655 0
DWIDTH 9 0
BBX 9 10 0 0
BITMAP
1000
0800
C980
4900
5500
5500
5500
7500
2200
2200
ENDCHAR
STARTCHAR Wacute.c2sc
ENCODING -1
SWIDTH 655 0
DWIDTH 9 0
BBX 9 10 0 0
BITMAP
0600
0800
C980
4900
5500
5500
5500
7500
2200
2200
ENDCHAR
STARTCHAR Wdieresis.c2sc
ENCODING -1
SWIDTH 655 0
DWIDTH 9 0
BBX 9 10 0 0
BITMAP
3600
0000
C980
4900
5500
5500
5500
7500
2200
2200
ENDCHAR
STARTCHAR Ygrave.c2sc
ENCODING -1
SWIDTH 458 0
DWIDTH 6 0
BBX 6 10 0 0
BITMAP
60
30
C4
4C
68
38
30
10
10
10
ENDCHAR
STARTCHAR Aogonek.locl
ENCODING -1
SWIDTH 576 0
DWIDTH 8 0
BBX 8 13 0 -3
BITMAP
18
18
18
24
24
24
7E
42
42
C3
18
10
18
ENDCHAR
STARTCHAR aogonek.locl
ENCODING -1
SWIDTH 479 0
DWIDTH 7 0
BBX 5 11 1 -3
BITMAP
70
88
08
78
C8
88
98
68
40
40
60
ENDCHAR
STARTCHAR Eogonek.locl
ENCODING -1
SWIDTH 496 0
DWIDTH 7 0
BBX 5 13 1 -3
BITMAP
F8
80
80
80
F8
80
80
80
80
F8
20
40
30
ENDCHAR
STARTCHAR eogonek.locl
ENCODING -1
SWIDTH 468 0
DWIDTH 7 0
BBX 5 11 1 -3
BITMAP
70
C8
88
F8
80
80
C8
78
20
40
60
ENDCHAR
STARTCHAR Aogonek.c2sc.locl
ENCODING -1
SWIDTH 501 0
DWIDTH 7 0
BBX 7 11 0 -3
BITMAP
10
38
28
28
6C
7C
44
C6
10
20
10
ENDCHAR
STARTCHAR Eogonek.c2sc.locl
ENCODING -1
SWIDTH 428 0
DWIDTH 6 0
BBX 5 11 1 -3
BITMAP
F8
80
80
F0
80
80
80
F8
40
40
60
ENDCHAR
STARTCHAR glyph1293
ENCODING -1
SWIDTH 234 0
DWIDTH 3 0
BBX 1 10 1 -2
BITMAP
80
80
80
80
80
80
80
80
00
80
ENDCHAR
ENDFONT
